<?xml version="1.0" encoding="utf-8" standalone="no"?>
<!DOCTYPE svg PUBLIC "-//W3C//DTD SVG 1.1//EN"
  "http://www.w3.org/Graphics/SVG/1.1/DTD/svg11.dtd">
<svg xmlns:xlink="http://www.w3.org/1999/xlink" width="576pt" height="360pt" viewBox="0 0 576 360" xmlns="http://www.w3.org/2000/svg" version="1.1">
 <metadata>
  <rdf:RDF xmlns:dc="http://purl.org/dc/elements/1.1/" xmlns:cc="http://creativecommons.org/ns#" xmlns:rdf="http://www.w3.org/1999/02/22-rdf-syntax-ns#">
   <cc:Work>
    <dc:type rdf:resource="http://purl.org/dc/dcmitype/StillImage"/>
    <dc:date>2024-10-25T22:11:16.442688</dc:date>
    <dc:format>image/svg+xml</dc:format>
    <dc:creator>
     <cc:Agent>
      <dc:title>Matplotlib v3.8.3, https://matplotlib.org/</dc:title>
     </cc:Agent>
    </dc:creator>
   </cc:Work>
  </rdf:RDF>
 </metadata>
 <defs>
  <style type="text/css">*{stroke-linejoin: round; stroke-linecap: butt}</style>
 </defs>
 <g id="figure_1">
  <g id="patch_1">
   <path d="M 0 360 
L 576 360 
L 576 0 
L 0 0 
z
" style="fill: #ffffff"/>
  </g>
  <g id="axes_1">
   <g id="patch_2">
    <path d="M 59.790625 147.74375 
L 562.01875 147.74375 
L 562.01875 10.8 
L 59.790625 10.8 
z
" style="fill: #ffffff"/>
   </g>
   <g id="PolyCollection_1">
    <defs>
     <path id="m35051feebe" d="M 59.790625 -225.950625 
L 59.790625 -225.950625 
L 122.569141 -241.620307 
L 185.347656 -297.567793 
L 248.126172 -337.206377 
L 310.904688 -316.928557 
L 373.683203 -277.628962 
L 436.461719 -235.015591 
L 499.240234 -225.971184 
L 562.01875 -225.963134 
L 562.01875 -225.966674 
L 562.01875 -225.966674 
L 499.240234 -225.99346 
L 436.461719 -237.177092 
L 373.683203 -280.656779 
L 310.904688 -320.048601 
L 248.126172 -340.205875 
L 185.347656 -300.132202 
L 122.569141 -242.534246 
L 59.790625 -225.950625 
z
" style="stroke: #1f77b4; stroke-opacity: 0.2"/>
    </defs>
    <g clip-path="url(#p3f62136270)">
     <use xlink:href="#m35051feebe" x="0" y="360" style="fill: #1f77b4; fill-opacity: 0.2; stroke: #1f77b4; stroke-opacity: 0.2"/>
    </g>
   </g>
   <g id="PolyCollection_2">
    <defs>
     <path id="m0ab63c3411" d="M 59.790625 -225.950625 
L 59.790625 -225.950625 
L 122.569141 -240.115442 
L 185.347656 -293.474738 
L 248.126172 -329.003345 
L 310.904688 -304.637708 
L 373.683203 -263.658557 
L 436.461719 -227.327255 
L 499.240234 -225.99991 
L 562.01875 -225.989033 
L 562.01875 -225.992404 
L 562.01875 -225.992404 
L 499.240234 -226.003548 
L 436.461719 -228.357407 
L 373.683203 -265.567292 
L 310.904688 -306.38936 
L 248.126172 -330.113192 
L 185.347656 -295.218621 
L 122.569141 -240.983049 
L 59.790625 -225.950625 
z
" style="stroke: #ff7f0e; stroke-opacity: 0.2"/>
    </defs>
    <g clip-path="url(#p3f62136270)">
     <use xlink:href="#m0ab63c3411" x="0" y="360" style="fill: #ff7f0e; fill-opacity: 0.2; stroke: #ff7f0e; stroke-opacity: 0.2"/>
    </g>
   </g>
   <g id="PolyCollection_3">
    <defs>
     <path id="m08a765db28" d="M 59.790625 -225.950625 
L 59.790625 -225.950625 
L 122.569141 -241.579071 
L 185.347656 -296.875161 
L 248.126172 -332.972172 
L 310.904688 -306.682147 
L 373.683203 -263.785694 
L 436.461719 -226.384331 
L 499.240234 -225.999502 
L 562.01875 -225.98761 
L 562.01875 -225.989723 
L 562.01875 -225.989723 
L 499.240234 -226.001797 
L 436.461719 -226.706646 
L 373.683203 -265.215676 
L 310.904688 -308.010501 
L 248.126172 -333.60347 
L 185.347656 -298.564362 
L 122.569141 -242.479091 
L 59.790625 -225.950625 
z
" style="stroke: #2ca02c; stroke-opacity: 0.2"/>
    </defs>
    <g clip-path="url(#p3f62136270)">
     <use xlink:href="#m08a765db28" x="0" y="360" style="fill: #2ca02c; fill-opacity: 0.2; stroke: #2ca02c; stroke-opacity: 0.2"/>
    </g>
   </g>
   <g id="PolyCollection_4">
    <defs>
     <path id="m181805abfe" d="M 59.790625 -225.950625 
L 59.790625 -225.950625 
L 122.569141 -241.962001 
L 185.347656 -297.77597 
L 248.126172 -333.971004 
L 310.904688 -307.444183 
L 373.683203 -264.158061 
L 436.461719 -226.491831 
L 499.240234 -225.993955 
L 562.01875 -225.980456 
L 562.01875 -225.982919 
L 562.01875 -225.982919 
L 499.240234 -225.996309 
L 436.461719 -226.776853 
L 373.683203 -265.665487 
L 310.904688 -308.65283 
L 248.126172 -334.520606 
L 185.347656 -299.486485 
L 122.569141 -242.747955 
L 59.790625 -225.950625 
z
" style="stroke: #d62728; stroke-opacity: 0.2"/>
    </defs>
    <g clip-path="url(#p3f62136270)">
     <use xlink:href="#m181805abfe" x="0" y="360" style="fill: #d62728; fill-opacity: 0.2; stroke: #d62728; stroke-opacity: 0.2"/>
    </g>
   </g>
   <g id="PolyCollection_5">
    <defs>
     <path id="m3ace8b5dfb" d="M 59.790625 -225.950625 
L 59.790625 -225.950625 
L 122.569141 -242.197199 
L 185.347656 -298.763328 
L 248.126172 -336.36091 
L 310.904688 -310.029971 
L 373.683203 -266.682383 
L 436.461719 -226.756411 
L 499.240234 -225.997866 
L 562.01875 -225.983148 
L 562.01875 -225.985503 
L 562.01875 -225.985503 
L 499.240234 -226.000244 
L 436.461719 -227.236807 
L 373.683203 -268.276168 
L 310.904688 -311.314379 
L 248.126172 -336.901369 
L 185.347656 -300.772919 
L 122.569141 -243.154609 
L 59.790625 -225.950625 
z
" style="stroke: #9467bd; stroke-opacity: 0.2"/>
    </defs>
    <g clip-path="url(#p3f62136270)">
     <use xlink:href="#m3ace8b5dfb" x="0" y="360" style="fill: #9467bd; fill-opacity: 0.2; stroke: #9467bd; stroke-opacity: 0.2"/>
    </g>
   </g>
   <g id="matplotlib.axis_1">
    <g id="xtick_1">
     <g id="line2d_1">
      <defs>
       <path id="m0a92c0284b" d="M 0 0 
L 0 -3.5 
" style="stroke: #000000; stroke-width: 0.8"/>
      </defs>
      <g>
       <use xlink:href="#m0a92c0284b" x="59.790625" y="147.74375" style="stroke: #000000; stroke-width: 0.8"/>
      </g>
     </g>
     <g id="text_1">
      <!-- 0 -->
      <g transform="translate(56.609375 158.842187) scale(0.1 -0.1)">
       <defs>
        <path id="DejaVuSans-30" d="M 2034 4250 
Q 1547 4250 1301 3770 
Q 1056 3291 1056 2328 
Q 1056 1369 1301 889 
Q 1547 409 2034 409 
Q 2525 409 2770 889 
Q 3016 1369 3016 2328 
Q 3016 3291 2770 3770 
Q 2525 4250 2034 4250 
z
M 2034 4750 
Q 2819 4750 3233 4129 
Q 3647 3509 3647 2328 
Q 3647 1150 3233 529 
Q 2819 -91 2034 -91 
Q 1250 -91 836 529 
Q 422 1150 422 2328 
Q 422 3509 836 4129 
Q 1250 4750 2034 4750 
z
" transform="scale(0.015625)"/>
       </defs>
       <use xlink:href="#DejaVuSans-30"/>
      </g>
     </g>
    </g>
    <g id="xtick_2">
     <g id="line2d_2">
      <g>
       <use xlink:href="#m0a92c0284b" x="122.569141" y="147.74375" style="stroke: #000000; stroke-width: 0.8"/>
      </g>
     </g>
     <g id="text_2">
      <!-- 1 -->
      <g transform="translate(119.387891 158.842187) scale(0.1 -0.1)">
       <defs>
        <path id="DejaVuSans-31" d="M 794 531 
L 1825 531 
L 1825 4091 
L 703 3866 
L 703 4441 
L 1819 4666 
L 2450 4666 
L 2450 531 
L 3481 531 
L 3481 0 
L 794 0 
L 794 531 
z
" transform="scale(0.015625)"/>
       </defs>
       <use xlink:href="#DejaVuSans-31"/>
      </g>
     </g>
    </g>
    <g id="xtick_3">
     <g id="line2d_3">
      <g>
       <use xlink:href="#m0a92c0284b" x="185.347656" y="147.74375" style="stroke: #000000; stroke-width: 0.8"/>
      </g>
     </g>
     <g id="text_3">
      <!-- 2 -->
      <g transform="translate(182.166406 158.842187) scale(0.1 -0.1)">
       <defs>
        <path id="DejaVuSans-32" d="M 1228 531 
L 3431 531 
L 3431 0 
L 469 0 
L 469 531 
Q 828 903 1448 1529 
Q 2069 2156 2228 2338 
Q 2531 2678 2651 2914 
Q 2772 3150 2772 3378 
Q 2772 3750 2511 3984 
Q 2250 4219 1831 4219 
Q 1534 4219 1204 4116 
Q 875 4013 500 3803 
L 500 4441 
Q 881 4594 1212 4672 
Q 1544 4750 1819 4750 
Q 2544 4750 2975 4387 
Q 3406 4025 3406 3419 
Q 3406 3131 3298 2873 
Q 3191 2616 2906 2266 
Q 2828 2175 2409 1742 
Q 1991 1309 1228 531 
z
" transform="scale(0.015625)"/>
       </defs>
       <use xlink:href="#DejaVuSans-32"/>
      </g>
     </g>
    </g>
    <g id="xtick_4">
     <g id="line2d_4">
      <g>
       <use xlink:href="#m0a92c0284b" x="248.126172" y="147.74375" style="stroke: #000000; stroke-width: 0.8"/>
      </g>
     </g>
     <g id="text_4">
      <!-- 3 -->
      <g transform="translate(244.944922 158.842187) scale(0.1 -0.1)">
       <defs>
        <path id="DejaVuSans-33" d="M 2597 2516 
Q 3050 2419 3304 2112 
Q 3559 1806 3559 1356 
Q 3559 666 3084 287 
Q 2609 -91 1734 -91 
Q 1441 -91 1130 -33 
Q 819 25 488 141 
L 488 750 
Q 750 597 1062 519 
Q 1375 441 1716 441 
Q 2309 441 2620 675 
Q 2931 909 2931 1356 
Q 2931 1769 2642 2001 
Q 2353 2234 1838 2234 
L 1294 2234 
L 1294 2753 
L 1863 2753 
Q 2328 2753 2575 2939 
Q 2822 3125 2822 3475 
Q 2822 3834 2567 4026 
Q 2313 4219 1838 4219 
Q 1578 4219 1281 4162 
Q 984 4106 628 3988 
L 628 4550 
Q 988 4650 1302 4700 
Q 1616 4750 1894 4750 
Q 2613 4750 3031 4423 
Q 3450 4097 3450 3541 
Q 3450 3153 3228 2886 
Q 3006 2619 2597 2516 
z
" transform="scale(0.015625)"/>
       </defs>
       <use xlink:href="#DejaVuSans-33"/>
      </g>
     </g>
    </g>
    <g id="xtick_5">
     <g id="line2d_5">
      <g>
       <use xlink:href="#m0a92c0284b" x="310.904688" y="147.74375" style="stroke: #000000; stroke-width: 0.8"/>
      </g>
     </g>
     <g id="text_5">
      <!-- 4 -->
      <g transform="translate(307.723438 158.842187) scale(0.1 -0.1)">
       <defs>
        <path id="DejaVuSans-34" d="M 2419 4116 
L 825 1625 
L 2419 1625 
L 2419 4116 
z
M 2253 4666 
L 3047 4666 
L 3047 1625 
L 3713 1625 
L 3713 1100 
L 3047 1100 
L 3047 0 
L 2419 0 
L 2419 1100 
L 313 1100 
L 313 1709 
L 2253 4666 
z
" transform="scale(0.015625)"/>
       </defs>
       <use xlink:href="#DejaVuSans-34"/>
      </g>
     </g>
    </g>
    <g id="xtick_6">
     <g id="line2d_6">
      <g>
       <use xlink:href="#m0a92c0284b" x="373.683203" y="147.74375" style="stroke: #000000; stroke-width: 0.8"/>
      </g>
     </g>
     <g id="text_6">
      <!-- 5 -->
      <g transform="translate(370.501953 158.842187) scale(0.1 -0.1)">
       <defs>
        <path id="DejaVuSans-35" d="M 691 4666 
L 3169 4666 
L 3169 4134 
L 1269 4134 
L 1269 2991 
Q 1406 3038 1543 3061 
Q 1681 3084 1819 3084 
Q 2600 3084 3056 2656 
Q 3513 2228 3513 1497 
Q 3513 744 3044 326 
Q 2575 -91 1722 -91 
Q 1428 -91 1123 -41 
Q 819 9 494 109 
L 494 744 
Q 775 591 1075 516 
Q 1375 441 1709 441 
Q 2250 441 2565 725 
Q 2881 1009 2881 1497 
Q 2881 1984 2565 2268 
Q 2250 2553 1709 2553 
Q 1456 2553 1204 2497 
Q 953 2441 691 2322 
L 691 4666 
z
" transform="scale(0.015625)"/>
       </defs>
       <use xlink:href="#DejaVuSans-35"/>
      </g>
     </g>
    </g>
    <g id="xtick_7">
     <g id="line2d_7">
      <g>
       <use xlink:href="#m0a92c0284b" x="436.461719" y="147.74375" style="stroke: #000000; stroke-width: 0.8"/>
      </g>
     </g>
     <g id="text_7">
      <!-- 6 -->
      <g transform="translate(433.280469 158.842187) scale(0.1 -0.1)">
       <defs>
        <path id="DejaVuSans-36" d="M 2113 2584 
Q 1688 2584 1439 2293 
Q 1191 2003 1191 1497 
Q 1191 994 1439 701 
Q 1688 409 2113 409 
Q 2538 409 2786 701 
Q 3034 994 3034 1497 
Q 3034 2003 2786 2293 
Q 2538 2584 2113 2584 
z
M 3366 4563 
L 3366 3988 
Q 3128 4100 2886 4159 
Q 2644 4219 2406 4219 
Q 1781 4219 1451 3797 
Q 1122 3375 1075 2522 
Q 1259 2794 1537 2939 
Q 1816 3084 2150 3084 
Q 2853 3084 3261 2657 
Q 3669 2231 3669 1497 
Q 3669 778 3244 343 
Q 2819 -91 2113 -91 
Q 1303 -91 875 529 
Q 447 1150 447 2328 
Q 447 3434 972 4092 
Q 1497 4750 2381 4750 
Q 2619 4750 2861 4703 
Q 3103 4656 3366 4563 
z
" transform="scale(0.015625)"/>
       </defs>
       <use xlink:href="#DejaVuSans-36"/>
      </g>
     </g>
    </g>
    <g id="xtick_8">
     <g id="line2d_8">
      <g>
       <use xlink:href="#m0a92c0284b" x="499.240234" y="147.74375" style="stroke: #000000; stroke-width: 0.8"/>
      </g>
     </g>
     <g id="text_8">
      <!-- 7 -->
      <g transform="translate(496.058984 158.842187) scale(0.1 -0.1)">
       <defs>
        <path id="DejaVuSans-37" d="M 525 4666 
L 3525 4666 
L 3525 4397 
L 1831 0 
L 1172 0 
L 2766 4134 
L 525 4134 
L 525 4666 
z
" transform="scale(0.015625)"/>
       </defs>
       <use xlink:href="#DejaVuSans-37"/>
      </g>
     </g>
    </g>
    <g id="xtick_9">
     <g id="line2d_9">
      <g>
       <use xlink:href="#m0a92c0284b" x="562.01875" y="147.74375" style="stroke: #000000; stroke-width: 0.8"/>
      </g>
     </g>
     <g id="text_9">
      <!-- 8 -->
      <g transform="translate(558.8375 158.842187) scale(0.1 -0.1)">
       <defs>
        <path id="DejaVuSans-38" d="M 2034 2216 
Q 1584 2216 1326 1975 
Q 1069 1734 1069 1313 
Q 1069 891 1326 650 
Q 1584 409 2034 409 
Q 2484 409 2743 651 
Q 3003 894 3003 1313 
Q 3003 1734 2745 1975 
Q 2488 2216 2034 2216 
z
M 1403 2484 
Q 997 2584 770 2862 
Q 544 3141 544 3541 
Q 544 4100 942 4425 
Q 1341 4750 2034 4750 
Q 2731 4750 3128 4425 
Q 3525 4100 3525 3541 
Q 3525 3141 3298 2862 
Q 3072 2584 2669 2484 
Q 3125 2378 3379 2068 
Q 3634 1759 3634 1313 
Q 3634 634 3220 271 
Q 2806 -91 2034 -91 
Q 1263 -91 848 271 
Q 434 634 434 1313 
Q 434 1759 690 2068 
Q 947 2378 1403 2484 
z
M 1172 3481 
Q 1172 3119 1398 2916 
Q 1625 2713 2034 2713 
Q 2441 2713 2670 2916 
Q 2900 3119 2900 3481 
Q 2900 3844 2670 4047 
Q 2441 4250 2034 4250 
Q 1625 4250 1398 4047 
Q 1172 3844 1172 3481 
z
" transform="scale(0.015625)"/>
       </defs>
       <use xlink:href="#DejaVuSans-38"/>
      </g>
     </g>
    </g>
    <g id="text_10">
     <!-- Time (µs) -->
     <g transform="translate(287.394531 172.520312) scale(0.1 -0.1)">
      <defs>
       <path id="DejaVuSans-54" d="M -19 4666 
L 3928 4666 
L 3928 4134 
L 2272 4134 
L 2272 0 
L 1638 0 
L 1638 4134 
L -19 4134 
L -19 4666 
z
" transform="scale(0.015625)"/>
       <path id="DejaVuSans-69" d="M 603 3500 
L 1178 3500 
L 1178 0 
L 603 0 
L 603 3500 
z
M 603 4863 
L 1178 4863 
L 1178 4134 
L 603 4134 
L 603 4863 
z
" transform="scale(0.015625)"/>
       <path id="DejaVuSans-6d" d="M 3328 2828 
Q 3544 3216 3844 3400 
Q 4144 3584 4550 3584 
Q 5097 3584 5394 3201 
Q 5691 2819 5691 2113 
L 5691 0 
L 5113 0 
L 5113 2094 
Q 5113 2597 4934 2840 
Q 4756 3084 4391 3084 
Q 3944 3084 3684 2787 
Q 3425 2491 3425 1978 
L 3425 0 
L 2847 0 
L 2847 2094 
Q 2847 2600 2669 2842 
Q 2491 3084 2119 3084 
Q 1678 3084 1418 2786 
Q 1159 2488 1159 1978 
L 1159 0 
L 581 0 
L 581 3500 
L 1159 3500 
L 1159 2956 
Q 1356 3278 1631 3431 
Q 1906 3584 2284 3584 
Q 2666 3584 2933 3390 
Q 3200 3197 3328 2828 
z
" transform="scale(0.015625)"/>
       <path id="DejaVuSans-65" d="M 3597 1894 
L 3597 1613 
L 953 1613 
Q 991 1019 1311 708 
Q 1631 397 2203 397 
Q 2534 397 2845 478 
Q 3156 559 3463 722 
L 3463 178 
Q 3153 47 2828 -22 
Q 2503 -91 2169 -91 
Q 1331 -91 842 396 
Q 353 884 353 1716 
Q 353 2575 817 3079 
Q 1281 3584 2069 3584 
Q 2775 3584 3186 3129 
Q 3597 2675 3597 1894 
z
M 3022 2063 
Q 3016 2534 2758 2815 
Q 2500 3097 2075 3097 
Q 1594 3097 1305 2825 
Q 1016 2553 972 2059 
L 3022 2063 
z
" transform="scale(0.015625)"/>
       <path id="DejaVuSans-20" transform="scale(0.015625)"/>
       <path id="DejaVuSans-28" d="M 1984 4856 
Q 1566 4138 1362 3434 
Q 1159 2731 1159 2009 
Q 1159 1288 1364 580 
Q 1569 -128 1984 -844 
L 1484 -844 
Q 1016 -109 783 600 
Q 550 1309 550 2009 
Q 550 2706 781 3412 
Q 1013 4119 1484 4856 
L 1984 4856 
z
" transform="scale(0.015625)"/>
       <path id="DejaVuSans-b5" d="M 544 -1331 
L 544 3500 
L 1119 3500 
L 1119 1325 
Q 1119 872 1334 640 
Q 1550 409 1972 409 
Q 2434 409 2667 671 
Q 2900 934 2900 1459 
L 2900 3500 
L 3475 3500 
L 3475 806 
Q 3475 619 3529 530 
Q 3584 441 3700 441 
Q 3728 441 3778 458 
Q 3828 475 3916 513 
L 3916 50 
Q 3788 -22 3673 -56 
Q 3559 -91 3450 -91 
Q 3234 -91 3106 31 
Q 2978 153 2931 403 
Q 2775 156 2548 32 
Q 2322 -91 2016 -91 
Q 1697 -91 1473 31 
Q 1250 153 1119 397 
L 1119 -1331 
L 544 -1331 
z
" transform="scale(0.015625)"/>
       <path id="DejaVuSans-73" d="M 2834 3397 
L 2834 2853 
Q 2591 2978 2328 3040 
Q 2066 3103 1784 3103 
Q 1356 3103 1142 2972 
Q 928 2841 928 2578 
Q 928 2378 1081 2264 
Q 1234 2150 1697 2047 
L 1894 2003 
Q 2506 1872 2764 1633 
Q 3022 1394 3022 966 
Q 3022 478 2636 193 
Q 2250 -91 1575 -91 
Q 1294 -91 989 -36 
Q 684 19 347 128 
L 347 722 
Q 666 556 975 473 
Q 1284 391 1588 391 
Q 1994 391 2212 530 
Q 2431 669 2431 922 
Q 2431 1156 2273 1281 
Q 2116 1406 1581 1522 
L 1381 1569 
Q 847 1681 609 1914 
Q 372 2147 372 2553 
Q 372 3047 722 3315 
Q 1072 3584 1716 3584 
Q 2034 3584 2315 3537 
Q 2597 3491 2834 3397 
z
" transform="scale(0.015625)"/>
       <path id="DejaVuSans-29" d="M 513 4856 
L 1013 4856 
Q 1481 4119 1714 3412 
Q 1947 2706 1947 2009 
Q 1947 1309 1714 600 
Q 1481 -109 1013 -844 
L 513 -844 
Q 928 -128 1133 580 
Q 1338 1288 1338 2009 
Q 1338 2731 1133 3434 
Q 928 4138 513 4856 
z
" transform="scale(0.015625)"/>
      </defs>
      <use xlink:href="#DejaVuSans-54"/>
      <use xlink:href="#DejaVuSans-69" x="57.958984"/>
      <use xlink:href="#DejaVuSans-6d" x="85.742188"/>
      <use xlink:href="#DejaVuSans-65" x="183.154297"/>
      <use xlink:href="#DejaVuSans-20" x="244.677734"/>
      <use xlink:href="#DejaVuSans-28" x="276.464844"/>
      <use xlink:href="#DejaVuSans-b5" x="315.478516"/>
      <use xlink:href="#DejaVuSans-73" x="379.101562"/>
      <use xlink:href="#DejaVuSans-29" x="431.201172"/>
     </g>
    </g>
   </g>
   <g id="matplotlib.axis_2">
    <g id="ytick_1">
     <g id="line2d_10">
      <defs>
       <path id="m27fde75119" d="M 0 0 
L 3.5 0 
" style="stroke: #000000; stroke-width: 0.8"/>
      </defs>
      <g>
       <use xlink:href="#m27fde75119" x="59.790625" y="134.049375" style="stroke: #000000; stroke-width: 0.8"/>
      </g>
     </g>
     <g id="text_11">
      <!-- 0 -->
      <g transform="translate(49.928125 137.848594) scale(0.1 -0.1)">
       <use xlink:href="#DejaVuSans-30"/>
      </g>
     </g>
    </g>
    <g id="ytick_2">
     <g id="line2d_11">
      <g>
       <use xlink:href="#m27fde75119" x="59.790625" y="99.813437" style="stroke: #000000; stroke-width: 0.8"/>
      </g>
     </g>
     <g id="text_12">
      <!-- 5000 -->
      <g transform="translate(30.840625 103.612656) scale(0.1 -0.1)">
       <use xlink:href="#DejaVuSans-35"/>
       <use xlink:href="#DejaVuSans-30" x="63.623047"/>
       <use xlink:href="#DejaVuSans-30" x="127.246094"/>
       <use xlink:href="#DejaVuSans-30" x="190.869141"/>
      </g>
     </g>
    </g>
    <g id="ytick_3">
     <g id="line2d_12">
      <g>
       <use xlink:href="#m27fde75119" x="59.790625" y="65.5775" style="stroke: #000000; stroke-width: 0.8"/>
      </g>
     </g>
     <g id="text_13">
      <!-- 10000 -->
      <g transform="translate(24.478125 69.376719) scale(0.1 -0.1)">
       <use xlink:href="#DejaVuSans-31"/>
       <use xlink:href="#DejaVuSans-30" x="63.623047"/>
       <use xlink:href="#DejaVuSans-30" x="127.246094"/>
       <use xlink:href="#DejaVuSans-30" x="190.869141"/>
       <use xlink:href="#DejaVuSans-30" x="254.492188"/>
      </g>
     </g>
    </g>
    <g id="ytick_4">
     <g id="line2d_13">
      <g>
       <use xlink:href="#m27fde75119" x="59.790625" y="31.341562" style="stroke: #000000; stroke-width: 0.8"/>
      </g>
     </g>
     <g id="text_14">
      <!-- 15000 -->
      <g transform="translate(24.478125 35.140781) scale(0.1 -0.1)">
       <use xlink:href="#DejaVuSans-31"/>
       <use xlink:href="#DejaVuSans-35" x="63.623047"/>
       <use xlink:href="#DejaVuSans-30" x="127.246094"/>
       <use xlink:href="#DejaVuSans-30" x="190.869141"/>
       <use xlink:href="#DejaVuSans-30" x="254.492188"/>
      </g>
     </g>
    </g>
    <g id="text_15">
     <!-- Area (a.u.) -->
     <g transform="translate(18.398438 105.677344) rotate(-90) scale(0.1 -0.1)">
      <defs>
       <path id="DejaVuSans-41" d="M 2188 4044 
L 1331 1722 
L 3047 1722 
L 2188 4044 
z
M 1831 4666 
L 2547 4666 
L 4325 0 
L 3669 0 
L 3244 1197 
L 1141 1197 
L 716 0 
L 50 0 
L 1831 4666 
z
" transform="scale(0.015625)"/>
       <path id="DejaVuSans-72" d="M 2631 2963 
Q 2534 3019 2420 3045 
Q 2306 3072 2169 3072 
Q 1681 3072 1420 2755 
Q 1159 2438 1159 1844 
L 1159 0 
L 581 0 
L 581 3500 
L 1159 3500 
L 1159 2956 
Q 1341 3275 1631 3429 
Q 1922 3584 2338 3584 
Q 2397 3584 2469 3576 
Q 2541 3569 2628 3553 
L 2631 2963 
z
" transform="scale(0.015625)"/>
       <path id="DejaVuSans-61" d="M 2194 1759 
Q 1497 1759 1228 1600 
Q 959 1441 959 1056 
Q 959 750 1161 570 
Q 1363 391 1709 391 
Q 2188 391 2477 730 
Q 2766 1069 2766 1631 
L 2766 1759 
L 2194 1759 
z
M 3341 1997 
L 3341 0 
L 2766 0 
L 2766 531 
Q 2569 213 2275 61 
Q 1981 -91 1556 -91 
Q 1019 -91 701 211 
Q 384 513 384 1019 
Q 384 1609 779 1909 
Q 1175 2209 1959 2209 
L 2766 2209 
L 2766 2266 
Q 2766 2663 2505 2880 
Q 2244 3097 1772 3097 
Q 1472 3097 1187 3025 
Q 903 2953 641 2809 
L 641 3341 
Q 956 3463 1253 3523 
Q 1550 3584 1831 3584 
Q 2591 3584 2966 3190 
Q 3341 2797 3341 1997 
z
" transform="scale(0.015625)"/>
       <path id="DejaVuSans-2e" d="M 684 794 
L 1344 794 
L 1344 0 
L 684 0 
L 684 794 
z
" transform="scale(0.015625)"/>
       <path id="DejaVuSans-75" d="M 544 1381 
L 544 3500 
L 1119 3500 
L 1119 1403 
Q 1119 906 1312 657 
Q 1506 409 1894 409 
Q 2359 409 2629 706 
Q 2900 1003 2900 1516 
L 2900 3500 
L 3475 3500 
L 3475 0 
L 2900 0 
L 2900 538 
Q 2691 219 2414 64 
Q 2138 -91 1772 -91 
Q 1169 -91 856 284 
Q 544 659 544 1381 
z
M 1991 3584 
L 1991 3584 
z
" transform="scale(0.015625)"/>
      </defs>
      <use xlink:href="#DejaVuSans-41"/>
      <use xlink:href="#DejaVuSans-72" x="68.408203"/>
      <use xlink:href="#DejaVuSans-65" x="107.271484"/>
      <use xlink:href="#DejaVuSans-61" x="168.794922"/>
      <use xlink:href="#DejaVuSans-20" x="230.074219"/>
      <use xlink:href="#DejaVuSans-28" x="261.861328"/>
      <use xlink:href="#DejaVuSans-61" x="300.875"/>
      <use xlink:href="#DejaVuSans-2e" x="362.154297"/>
      <use xlink:href="#DejaVuSans-75" x="393.941406"/>
      <use xlink:href="#DejaVuSans-2e" x="457.320312"/>
      <use xlink:href="#DejaVuSans-29" x="489.107422"/>
     </g>
    </g>
   </g>
   <g id="line2d_14">
    <path d="M 59.790625 134.049375 
L 122.569141 117.90445 
L 185.347656 61.117079 
L 248.126172 21.136617 
L 310.904688 41.427576 
L 373.683203 80.859025 
L 436.461719 123.959469 
L 499.240234 134.02073 
L 562.01875 134.035079 
" clip-path="url(#p3f62136270)" style="fill: none; stroke: #1f77b4; stroke-width: 1.5; stroke-linecap: square"/>
   </g>
   <g id="line2d_15">
    <path d="M 59.790625 134.049375 
L 122.569141 119.461442 
L 185.347656 65.67887 
L 248.126172 30.440729 
L 310.904688 54.501621 
L 373.683203 95.442168 
L 436.461719 132.231179 
L 499.240234 133.998217 
L 562.01875 134.009308 
" clip-path="url(#p3f62136270)" style="fill: none; stroke: #ff7f0e; stroke-width: 1.5; stroke-linecap: square"/>
   </g>
   <g id="line2d_16">
    <path d="M 59.790625 134.049375 
L 122.569141 117.9801 
L 185.347656 62.338307 
L 248.126172 26.709313 
L 310.904688 52.630488 
L 373.683203 95.493245 
L 436.461719 133.461282 
L 499.240234 133.999314 
L 562.01875 134.011242 
" clip-path="url(#p3f62136270)" style="fill: none; stroke: #2ca02c; stroke-width: 1.5; stroke-linecap: square"/>
   </g>
   <g id="line2d_17">
    <path d="M 59.790625 134.049375 
L 122.569141 117.632405 
L 185.347656 61.358563 
L 248.126172 25.751708 
L 310.904688 51.949332 
L 373.683203 95.084813 
L 436.461719 133.374214 
L 499.240234 134.004815 
L 562.01875 134.018331 
" clip-path="url(#p3f62136270)" style="fill: none; stroke: #d62728; stroke-width: 1.5; stroke-linecap: square"/>
   </g>
   <g id="line2d_18">
    <path d="M 59.790625 134.049375 
L 122.569141 117.303579 
L 185.347656 60.246655 
L 248.126172 23.364066 
L 310.904688 49.324702 
L 373.683203 92.546479 
L 436.461719 133.01117 
L 499.240234 134.000898 
L 562.01875 134.015662 
" clip-path="url(#p3f62136270)" style="fill: none; stroke: #9467bd; stroke-width: 1.5; stroke-linecap: square"/>
   </g>
   <g id="line2d_19"/>
   <g id="line2d_20"/>
   <g id="line2d_21"/>
   <g id="line2d_22"/>
   <g id="line2d_23"/>
   <g id="patch_3">
    <path d="M 59.790625 147.74375 
L 59.790625 10.8 
" style="fill: none; stroke: #000000; stroke-width: 0.8; stroke-linejoin: miter; stroke-linecap: square"/>
   </g>
   <g id="patch_4">
    <path d="M 562.01875 147.74375 
L 562.01875 10.8 
" style="fill: none; stroke: #000000; stroke-width: 0.8; stroke-linejoin: miter; stroke-linecap: square"/>
   </g>
   <g id="patch_5">
    <path d="M 59.790625 147.74375 
L 562.01875 147.74375 
" style="fill: none; stroke: #000000; stroke-width: 0.8; stroke-linejoin: miter; stroke-linecap: square"/>
   </g>
   <g id="patch_6">
    <path d="M 59.790625 10.8 
L 562.01875 10.8 
" style="fill: none; stroke: #000000; stroke-width: 0.8; stroke-linejoin: miter; stroke-linecap: square"/>
   </g>
   <g id="legend_1">
    <g id="patch_7">
     <path d="M 475.98125 106.86875 
L 555.01875 106.86875 
Q 557.01875 106.86875 557.01875 104.86875 
L 557.01875 17.8 
Q 557.01875 15.8 555.01875 15.8 
L 475.98125 15.8 
Q 473.98125 15.8 473.98125 17.8 
L 473.98125 104.86875 
Q 473.98125 106.86875 475.98125 106.86875 
z
" style="fill: #ffffff; opacity: 0.8; stroke: #cccccc; stroke-linejoin: miter"/>
    </g>
    <g id="text_16">
     <!-- Growth Name -->
     <g transform="translate(481.064844 27.398438) scale(0.1 -0.1)">
      <defs>
       <path id="DejaVuSans-47" d="M 3809 666 
L 3809 1919 
L 2778 1919 
L 2778 2438 
L 4434 2438 
L 4434 434 
Q 4069 175 3628 42 
Q 3188 -91 2688 -91 
Q 1594 -91 976 548 
Q 359 1188 359 2328 
Q 359 3472 976 4111 
Q 1594 4750 2688 4750 
Q 3144 4750 3555 4637 
Q 3966 4525 4313 4306 
L 4313 3634 
Q 3963 3931 3569 4081 
Q 3175 4231 2741 4231 
Q 1884 4231 1454 3753 
Q 1025 3275 1025 2328 
Q 1025 1384 1454 906 
Q 1884 428 2741 428 
Q 3075 428 3337 486 
Q 3600 544 3809 666 
z
" transform="scale(0.015625)"/>
       <path id="DejaVuSans-6f" d="M 1959 3097 
Q 1497 3097 1228 2736 
Q 959 2375 959 1747 
Q 959 1119 1226 758 
Q 1494 397 1959 397 
Q 2419 397 2687 759 
Q 2956 1122 2956 1747 
Q 2956 2369 2687 2733 
Q 2419 3097 1959 3097 
z
M 1959 3584 
Q 2709 3584 3137 3096 
Q 3566 2609 3566 1747 
Q 3566 888 3137 398 
Q 2709 -91 1959 -91 
Q 1206 -91 779 398 
Q 353 888 353 1747 
Q 353 2609 779 3096 
Q 1206 3584 1959 3584 
z
" transform="scale(0.015625)"/>
       <path id="DejaVuSans-77" d="M 269 3500 
L 844 3500 
L 1563 769 
L 2278 3500 
L 2956 3500 
L 3675 769 
L 4391 3500 
L 4966 3500 
L 4050 0 
L 3372 0 
L 2619 2869 
L 1863 0 
L 1184 0 
L 269 3500 
z
" transform="scale(0.015625)"/>
       <path id="DejaVuSans-74" d="M 1172 4494 
L 1172 3500 
L 2356 3500 
L 2356 3053 
L 1172 3053 
L 1172 1153 
Q 1172 725 1289 603 
Q 1406 481 1766 481 
L 2356 481 
L 2356 0 
L 1766 0 
Q 1100 0 847 248 
Q 594 497 594 1153 
L 594 3053 
L 172 3053 
L 172 3500 
L 594 3500 
L 594 4494 
L 1172 4494 
z
" transform="scale(0.015625)"/>
       <path id="DejaVuSans-68" d="M 3513 2113 
L 3513 0 
L 2938 0 
L 2938 2094 
Q 2938 2591 2744 2837 
Q 2550 3084 2163 3084 
Q 1697 3084 1428 2787 
Q 1159 2491 1159 1978 
L 1159 0 
L 581 0 
L 581 4863 
L 1159 4863 
L 1159 2956 
Q 1366 3272 1645 3428 
Q 1925 3584 2291 3584 
Q 2894 3584 3203 3211 
Q 3513 2838 3513 2113 
z
" transform="scale(0.015625)"/>
       <path id="DejaVuSans-4e" d="M 628 4666 
L 1478 4666 
L 3547 763 
L 3547 4666 
L 4159 4666 
L 4159 0 
L 3309 0 
L 1241 3903 
L 1241 0 
L 628 0 
L 628 4666 
z
" transform="scale(0.015625)"/>
      </defs>
      <use xlink:href="#DejaVuSans-47"/>
      <use xlink:href="#DejaVuSans-72" x="77.490234"/>
      <use xlink:href="#DejaVuSans-6f" x="116.353516"/>
      <use xlink:href="#DejaVuSans-77" x="177.535156"/>
      <use xlink:href="#DejaVuSans-74" x="259.322266"/>
      <use xlink:href="#DejaVuSans-68" x="298.53125"/>
      <use xlink:href="#DejaVuSans-20" x="361.910156"/>
      <use xlink:href="#DejaVuSans-4e" x="393.697266"/>
      <use xlink:href="#DejaVuSans-61" x="468.501953"/>
      <use xlink:href="#DejaVuSans-6d" x="529.78125"/>
      <use xlink:href="#DejaVuSans-65" x="627.193359"/>
     </g>
    </g>
    <g id="line2d_24">
     <path d="M 477.98125 38.576563 
L 487.98125 38.576563 
L 497.98125 38.576563 
" style="fill: none; stroke: #1f77b4; stroke-width: 1.5; stroke-linecap: square"/>
    </g>
    <g id="text_17">
     <!-- Sample 1 -->
     <g transform="translate(505.98125 42.076563) scale(0.1 -0.1)">
      <defs>
       <path id="DejaVuSans-53" d="M 3425 4513 
L 3425 3897 
Q 3066 4069 2747 4153 
Q 2428 4238 2131 4238 
Q 1616 4238 1336 4038 
Q 1056 3838 1056 3469 
Q 1056 3159 1242 3001 
Q 1428 2844 1947 2747 
L 2328 2669 
Q 3034 2534 3370 2195 
Q 3706 1856 3706 1288 
Q 3706 609 3251 259 
Q 2797 -91 1919 -91 
Q 1588 -91 1214 -16 
Q 841 59 441 206 
L 441 856 
Q 825 641 1194 531 
Q 1563 422 1919 422 
Q 2459 422 2753 634 
Q 3047 847 3047 1241 
Q 3047 1584 2836 1778 
Q 2625 1972 2144 2069 
L 1759 2144 
Q 1053 2284 737 2584 
Q 422 2884 422 3419 
Q 422 4038 858 4394 
Q 1294 4750 2059 4750 
Q 2388 4750 2728 4690 
Q 3069 4631 3425 4513 
z
" transform="scale(0.015625)"/>
       <path id="DejaVuSans-70" d="M 1159 525 
L 1159 -1331 
L 581 -1331 
L 581 3500 
L 1159 3500 
L 1159 2969 
Q 1341 3281 1617 3432 
Q 1894 3584 2278 3584 
Q 2916 3584 3314 3078 
Q 3713 2572 3713 1747 
Q 3713 922 3314 415 
Q 2916 -91 2278 -91 
Q 1894 -91 1617 61 
Q 1341 213 1159 525 
z
M 3116 1747 
Q 3116 2381 2855 2742 
Q 2594 3103 2138 3103 
Q 1681 3103 1420 2742 
Q 1159 2381 1159 1747 
Q 1159 1113 1420 752 
Q 1681 391 2138 391 
Q 2594 391 2855 752 
Q 3116 1113 3116 1747 
z
" transform="scale(0.015625)"/>
       <path id="DejaVuSans-6c" d="M 603 4863 
L 1178 4863 
L 1178 0 
L 603 0 
L 603 4863 
z
" transform="scale(0.015625)"/>
      </defs>
      <use xlink:href="#DejaVuSans-53"/>
      <use xlink:href="#DejaVuSans-61" x="63.476562"/>
      <use xlink:href="#DejaVuSans-6d" x="124.755859"/>
      <use xlink:href="#DejaVuSans-70" x="222.167969"/>
      <use xlink:href="#DejaVuSans-6c" x="285.644531"/>
      <use xlink:href="#DejaVuSans-65" x="313.427734"/>
      <use xlink:href="#DejaVuSans-20" x="374.951172"/>
      <use xlink:href="#DejaVuSans-31" x="406.738281"/>
     </g>
    </g>
    <g id="line2d_25">
     <path d="M 477.98125 53.254688 
L 487.98125 53.254688 
L 497.98125 53.254688 
" style="fill: none; stroke: #ff7f0e; stroke-width: 1.5; stroke-linecap: square"/>
    </g>
    <g id="text_18">
     <!-- Sample 2 -->
     <g transform="translate(505.98125 56.754688) scale(0.1 -0.1)">
      <use xlink:href="#DejaVuSans-53"/>
      <use xlink:href="#DejaVuSans-61" x="63.476562"/>
      <use xlink:href="#DejaVuSans-6d" x="124.755859"/>
      <use xlink:href="#DejaVuSans-70" x="222.167969"/>
      <use xlink:href="#DejaVuSans-6c" x="285.644531"/>
      <use xlink:href="#DejaVuSans-65" x="313.427734"/>
      <use xlink:href="#DejaVuSans-20" x="374.951172"/>
      <use xlink:href="#DejaVuSans-32" x="406.738281"/>
     </g>
    </g>
    <g id="line2d_26">
     <path d="M 477.98125 67.932813 
L 487.98125 67.932813 
L 497.98125 67.932813 
" style="fill: none; stroke: #2ca02c; stroke-width: 1.5; stroke-linecap: square"/>
    </g>
    <g id="text_19">
     <!-- Sample 3 -->
     <g transform="translate(505.98125 71.432813) scale(0.1 -0.1)">
      <use xlink:href="#DejaVuSans-53"/>
      <use xlink:href="#DejaVuSans-61" x="63.476562"/>
      <use xlink:href="#DejaVuSans-6d" x="124.755859"/>
      <use xlink:href="#DejaVuSans-70" x="222.167969"/>
      <use xlink:href="#DejaVuSans-6c" x="285.644531"/>
      <use xlink:href="#DejaVuSans-65" x="313.427734"/>
      <use xlink:href="#DejaVuSans-20" x="374.951172"/>
      <use xlink:href="#DejaVuSans-33" x="406.738281"/>
     </g>
    </g>
    <g id="line2d_27">
     <path d="M 477.98125 82.610938 
L 487.98125 82.610938 
L 497.98125 82.610938 
" style="fill: none; stroke: #d62728; stroke-width: 1.5; stroke-linecap: square"/>
    </g>
    <g id="text_20">
     <!-- Sample 4 -->
     <g transform="translate(505.98125 86.110938) scale(0.1 -0.1)">
      <use xlink:href="#DejaVuSans-53"/>
      <use xlink:href="#DejaVuSans-61" x="63.476562"/>
      <use xlink:href="#DejaVuSans-6d" x="124.755859"/>
      <use xlink:href="#DejaVuSans-70" x="222.167969"/>
      <use xlink:href="#DejaVuSans-6c" x="285.644531"/>
      <use xlink:href="#DejaVuSans-65" x="313.427734"/>
      <use xlink:href="#DejaVuSans-20" x="374.951172"/>
      <use xlink:href="#DejaVuSans-34" x="406.738281"/>
     </g>
    </g>
    <g id="line2d_28">
     <path d="M 477.98125 97.289062 
L 487.98125 97.289062 
L 497.98125 97.289062 
" style="fill: none; stroke: #9467bd; stroke-width: 1.5; stroke-linecap: square"/>
    </g>
    <g id="text_21">
     <!-- Sample 5 -->
     <g transform="translate(505.98125 100.789062) scale(0.1 -0.1)">
      <use xlink:href="#DejaVuSans-53"/>
      <use xlink:href="#DejaVuSans-61" x="63.476562"/>
      <use xlink:href="#DejaVuSans-6d" x="124.755859"/>
      <use xlink:href="#DejaVuSans-70" x="222.167969"/>
      <use xlink:href="#DejaVuSans-6c" x="285.644531"/>
      <use xlink:href="#DejaVuSans-65" x="313.427734"/>
      <use xlink:href="#DejaVuSans-20" x="374.951172"/>
      <use xlink:href="#DejaVuSans-35" x="406.738281"/>
     </g>
    </g>
   </g>
   <g id="text_22">
    <path d="M 87.443828 38.233281 
Q 87.443828 36.747344 86.832109 35.90125 
Q 86.220391 35.055156 85.151641 35.055156 
Q 84.080547 35.055156 83.468828 35.90125 
Q 82.857109 36.747344 82.857109 38.233281 
Q 82.857109 39.719219 83.468828 40.565313 
Q 84.080547 41.411406 85.151641 41.411406 
Q 86.220391 41.411406 86.832109 40.565313 
Q 87.443828 39.719219 87.443828 38.233281 
z
M 82.857109 35.369219 
Q 83.283672 34.637969 83.930547 34.284063 
Q 84.579766 33.927813 85.479766 33.927813 
Q 86.975078 33.927813 87.907891 35.11375 
Q 88.843047 36.299688 88.843047 38.233281 
Q 88.843047 40.166875 87.907891 41.355156 
Q 86.975078 42.541094 85.479766 42.541094 
Q 84.579766 42.541094 83.930547 42.184844 
Q 83.283672 41.828594 82.857109 41.097344 
L 82.857109 42.327813 
L 81.502422 42.327813 
L 81.502422 30.930156 
L 82.857109 30.930156 
L 82.857109 35.369219 
z
" style="stroke: #ffffff; stroke-width: 0.75"/>
    <path d="M 87.443828 38.233281 
Q 87.443828 36.747344 86.832109 35.90125 
Q 86.220391 35.055156 85.151641 35.055156 
Q 84.080547 35.055156 83.468828 35.90125 
Q 82.857109 36.747344 82.857109 38.233281 
Q 82.857109 39.719219 83.468828 40.565313 
Q 84.080547 41.411406 85.151641 41.411406 
Q 86.220391 41.411406 86.832109 40.565313 
Q 87.443828 39.719219 87.443828 38.233281 
z
M 82.857109 35.369219 
Q 83.283672 34.637969 83.930547 34.284063 
Q 84.579766 33.927813 85.479766 33.927813 
Q 86.975078 33.927813 87.907891 35.11375 
Q 88.843047 36.299688 88.843047 38.233281 
Q 88.843047 40.166875 87.907891 41.355156 
Q 86.975078 42.541094 85.479766 42.541094 
Q 84.579766 42.541094 83.930547 42.184844 
Q 83.283672 41.828594 82.857109 41.097344 
L 82.857109 42.327813 
L 81.502422 42.327813 
L 81.502422 30.930156 
L 82.857109 30.930156 
L 82.857109 35.369219 
z
"/>
   </g>
  </g>
  <g id="axes_2">
   <g id="patch_8">
    <path d="M 59.790625 322.34375 
L 562.01875 322.34375 
L 562.01875 185.4 
L 59.790625 185.4 
z
" style="fill: #ffffff"/>
   </g>
   <g id="PolyCollection_6">
    <defs>
     <path id="mabf439f602" d="M 59.790625 -54.774219 
L 59.790625 -54.774219 
L 122.569141 -91.217802 
L 185.347656 -130.319632 
L 248.126172 -150.960419 
L 310.904688 -161.997017 
L 373.683203 -165.553622 
L 436.461719 -166.079035 
L 499.240234 -166.181289 
L 562.01875 -166.108083 
L 562.01875 -168.771149 
L 562.01875 -168.771149 
L 499.240234 -168.771149 
L 436.461719 -168.791145 
L 373.683203 -168.257747 
L 310.904688 -164.483901 
L 248.126172 -153.202149 
L 185.347656 -132.181258 
L 122.569141 -92.78757 
L 59.790625 -54.774219 
z
" style="stroke: #1f77b4; stroke-opacity: 0.2"/>
    </defs>
    <g clip-path="url(#p0796d4a7ca)">
     <use xlink:href="#mabf439f602" x="0" y="360" style="fill: #1f77b4; fill-opacity: 0.2; stroke: #1f77b4; stroke-opacity: 0.2"/>
    </g>
   </g>
   <g id="PolyCollection_7">
    <defs>
     <path id="m8af129e189" d="M 59.790625 -54.774219 
L 59.790625 -54.774219 
L 122.569141 -89.811016 
L 185.347656 -129.873687 
L 248.126172 -150.613227 
L 310.904688 -160.851206 
L 373.683203 -163.442881 
L 436.461719 -163.510935 
L 499.240234 -163.53036 
L 562.01875 -163.517873 
L 562.01875 -164.079822 
L 562.01875 -164.079822 
L 499.240234 -164.065982 
L 436.461719 -164.11045 
L 373.683203 -163.941078 
L 310.904688 -161.309097 
L 248.126172 -151.169661 
L 185.347656 -130.613611 
L 122.569141 -91.190516 
L 59.790625 -54.774219 
z
" style="stroke: #ff7f0e; stroke-opacity: 0.2"/>
    </defs>
    <g clip-path="url(#p0796d4a7ca)">
     <use xlink:href="#m8af129e189" x="0" y="360" style="fill: #ff7f0e; fill-opacity: 0.2; stroke: #ff7f0e; stroke-opacity: 0.2"/>
    </g>
   </g>
   <g id="PolyCollection_8">
    <defs>
     <path id="m0de76c9a78" d="M 59.790625 -54.774219 
L 59.790625 -54.774219 
L 122.569141 -91.188622 
L 185.347656 -132.362783 
L 248.126172 -153.624321 
L 310.904688 -164.044741 
L 373.683203 -166.595311 
L 436.461719 -166.59106 
L 499.240234 -166.603813 
L 562.01875 -166.60941 
L 562.01875 -166.969495 
L 562.01875 -166.969495 
L 499.240234 -166.966626 
L 436.461719 -166.952456 
L 373.683203 -166.934 
L 310.904688 -164.403374 
L 248.126172 -154.141689 
L 185.347656 -133.135383 
L 122.569141 -92.678099 
L 59.790625 -54.774219 
z
" style="stroke: #2ca02c; stroke-opacity: 0.2"/>
    </defs>
    <g clip-path="url(#p0796d4a7ca)">
     <use xlink:href="#m0de76c9a78" x="0" y="360" style="fill: #2ca02c; fill-opacity: 0.2; stroke: #2ca02c; stroke-opacity: 0.2"/>
    </g>
   </g>
   <g id="PolyCollection_9">
    <defs>
     <path id="m6696e11089" d="M 59.790625 -54.774219 
L 59.790625 -54.774219 
L 122.569141 -92.26568 
L 185.347656 -133.190891 
L 248.126172 -154.446768 
L 310.904688 -164.909374 
L 373.683203 -167.433203 
L 436.461719 -167.465115 
L 499.240234 -167.467889 
L 562.01875 -167.455402 
L 562.01875 -167.785683 
L 562.01875 -167.785683 
L 499.240234 -167.784296 
L 436.461719 -167.788424 
L 373.683203 -167.759287 
L 310.904688 -165.270248 
L 248.126172 -154.960191 
L 185.347656 -133.914027 
L 122.569141 -93.693394 
L 59.790625 -54.774219 
z
" style="stroke: #d62728; stroke-opacity: 0.2"/>
    </defs>
    <g clip-path="url(#p0796d4a7ca)">
     <use xlink:href="#m6696e11089" x="0" y="360" style="fill: #d62728; fill-opacity: 0.2; stroke: #d62728; stroke-opacity: 0.2"/>
    </g>
   </g>
   <g id="PolyCollection_10">
    <defs>
     <path id="m5c2d286ef7" d="M 59.790625 -54.774219 
L 59.790625 -54.774219 
L 122.569141 -92.443909 
L 185.347656 -133.614166 
L 248.126172 -155.004797 
L 310.904688 -165.775151 
L 373.683203 -168.429839 
L 436.461719 -168.468687 
L 499.240234 -168.466883 
L 562.01875 -168.463137 
L 562.01875 -168.78322 
L 562.01875 -168.78322 
L 499.240234 -168.78877 
L 436.461719 -168.786967 
L 373.683203 -168.742615 
L 310.904688 -166.126729 
L 248.126172 -155.60075 
L 185.347656 -134.469016 
L 122.569141 -94.107731 
L 59.790625 -54.774219 
z
" style="stroke: #9467bd; stroke-opacity: 0.2"/>
    </defs>
    <g clip-path="url(#p0796d4a7ca)">
     <use xlink:href="#m5c2d286ef7" x="0" y="360" style="fill: #9467bd; fill-opacity: 0.2; stroke: #9467bd; stroke-opacity: 0.2"/>
    </g>
   </g>
   <g id="matplotlib.axis_3">
    <g id="xtick_10">
     <g id="line2d_29">
      <g>
       <use xlink:href="#m0a92c0284b" x="59.790625" y="322.34375" style="stroke: #000000; stroke-width: 0.8"/>
      </g>
     </g>
     <g id="text_23">
      <!-- 0 -->
      <g transform="translate(56.609375 333.442187) scale(0.1 -0.1)">
       <use xlink:href="#DejaVuSans-30"/>
      </g>
     </g>
    </g>
    <g id="xtick_11">
     <g id="line2d_30">
      <g>
       <use xlink:href="#m0a92c0284b" x="122.569141" y="322.34375" style="stroke: #000000; stroke-width: 0.8"/>
      </g>
     </g>
     <g id="text_24">
      <!-- 1 -->
      <g transform="translate(119.387891 333.442187) scale(0.1 -0.1)">
       <use xlink:href="#DejaVuSans-31"/>
      </g>
     </g>
    </g>
    <g id="xtick_12">
     <g id="line2d_31">
      <g>
       <use xlink:href="#m0a92c0284b" x="185.347656" y="322.34375" style="stroke: #000000; stroke-width: 0.8"/>
      </g>
     </g>
     <g id="text_25">
      <!-- 2 -->
      <g transform="translate(182.166406 333.442187) scale(0.1 -0.1)">
       <use xlink:href="#DejaVuSans-32"/>
      </g>
     </g>
    </g>
    <g id="xtick_13">
     <g id="line2d_32">
      <g>
       <use xlink:href="#m0a92c0284b" x="248.126172" y="322.34375" style="stroke: #000000; stroke-width: 0.8"/>
      </g>
     </g>
     <g id="text_26">
      <!-- 3 -->
      <g transform="translate(244.944922 333.442187) scale(0.1 -0.1)">
       <use xlink:href="#DejaVuSans-33"/>
      </g>
     </g>
    </g>
    <g id="xtick_14">
     <g id="line2d_33">
      <g>
       <use xlink:href="#m0a92c0284b" x="310.904688" y="322.34375" style="stroke: #000000; stroke-width: 0.8"/>
      </g>
     </g>
     <g id="text_27">
      <!-- 4 -->
      <g transform="translate(307.723438 333.442187) scale(0.1 -0.1)">
       <use xlink:href="#DejaVuSans-34"/>
      </g>
     </g>
    </g>
    <g id="xtick_15">
     <g id="line2d_34">
      <g>
       <use xlink:href="#m0a92c0284b" x="373.683203" y="322.34375" style="stroke: #000000; stroke-width: 0.8"/>
      </g>
     </g>
     <g id="text_28">
      <!-- 5 -->
      <g transform="translate(370.501953 333.442187) scale(0.1 -0.1)">
       <use xlink:href="#DejaVuSans-35"/>
      </g>
     </g>
    </g>
    <g id="xtick_16">
     <g id="line2d_35">
      <g>
       <use xlink:href="#m0a92c0284b" x="436.461719" y="322.34375" style="stroke: #000000; stroke-width: 0.8"/>
      </g>
     </g>
     <g id="text_29">
      <!-- 6 -->
      <g transform="translate(433.280469 333.442187) scale(0.1 -0.1)">
       <use xlink:href="#DejaVuSans-36"/>
      </g>
     </g>
    </g>
    <g id="xtick_17">
     <g id="line2d_36">
      <g>
       <use xlink:href="#m0a92c0284b" x="499.240234" y="322.34375" style="stroke: #000000; stroke-width: 0.8"/>
      </g>
     </g>
     <g id="text_30">
      <!-- 7 -->
      <g transform="translate(496.058984 333.442187) scale(0.1 -0.1)">
       <use xlink:href="#DejaVuSans-37"/>
      </g>
     </g>
    </g>
    <g id="xtick_18">
     <g id="line2d_37">
      <g>
       <use xlink:href="#m0a92c0284b" x="562.01875" y="322.34375" style="stroke: #000000; stroke-width: 0.8"/>
      </g>
     </g>
     <g id="text_31">
      <!-- 8 -->
      <g transform="translate(558.8375 333.442187) scale(0.1 -0.1)">
       <use xlink:href="#DejaVuSans-38"/>
      </g>
     </g>
    </g>
    <g id="text_32">
     <!-- Time (µs) -->
     <g transform="translate(287.394531 347.120313) scale(0.1 -0.1)">
      <use xlink:href="#DejaVuSans-54"/>
      <use xlink:href="#DejaVuSans-69" x="57.958984"/>
      <use xlink:href="#DejaVuSans-6d" x="85.742188"/>
      <use xlink:href="#DejaVuSans-65" x="183.154297"/>
      <use xlink:href="#DejaVuSans-20" x="244.677734"/>
      <use xlink:href="#DejaVuSans-28" x="276.464844"/>
      <use xlink:href="#DejaVuSans-b5" x="315.478516"/>
      <use xlink:href="#DejaVuSans-73" x="379.101562"/>
      <use xlink:href="#DejaVuSans-29" x="431.201172"/>
     </g>
    </g>
   </g>
   <g id="matplotlib.axis_4">
    <g id="ytick_5">
     <g id="line2d_38">
      <g>
       <use xlink:href="#m27fde75119" x="59.790625" y="305.225781" style="stroke: #000000; stroke-width: 0.8"/>
      </g>
     </g>
     <g id="text_33">
      <!-- 0.00 -->
      <g transform="translate(34.025 309.025) scale(0.1 -0.1)">
       <use xlink:href="#DejaVuSans-30"/>
       <use xlink:href="#DejaVuSans-2e" x="63.623047"/>
       <use xlink:href="#DejaVuSans-30" x="95.410156"/>
       <use xlink:href="#DejaVuSans-30" x="159.033203"/>
      </g>
     </g>
    </g>
    <g id="ytick_6">
     <g id="line2d_39">
      <g>
       <use xlink:href="#m27fde75119" x="59.790625" y="270.989844" style="stroke: #000000; stroke-width: 0.8"/>
      </g>
     </g>
     <g id="text_34">
      <!-- 0.01 -->
      <g transform="translate(34.025 274.789062) scale(0.1 -0.1)">
       <use xlink:href="#DejaVuSans-30"/>
       <use xlink:href="#DejaVuSans-2e" x="63.623047"/>
       <use xlink:href="#DejaVuSans-30" x="95.410156"/>
       <use xlink:href="#DejaVuSans-31" x="159.033203"/>
      </g>
     </g>
    </g>
    <g id="ytick_7">
     <g id="line2d_40">
      <g>
       <use xlink:href="#m27fde75119" x="59.790625" y="236.753906" style="stroke: #000000; stroke-width: 0.8"/>
      </g>
     </g>
     <g id="text_35">
      <!-- 0.02 -->
      <g transform="translate(34.025 240.553125) scale(0.1 -0.1)">
       <use xlink:href="#DejaVuSans-30"/>
       <use xlink:href="#DejaVuSans-2e" x="63.623047"/>
       <use xlink:href="#DejaVuSans-30" x="95.410156"/>
       <use xlink:href="#DejaVuSans-32" x="159.033203"/>
      </g>
     </g>
    </g>
    <g id="ytick_8">
     <g id="line2d_41">
      <g>
       <use xlink:href="#m27fde75119" x="59.790625" y="202.517969" style="stroke: #000000; stroke-width: 0.8"/>
      </g>
     </g>
     <g id="text_36">
      <!-- 0.03 -->
      <g transform="translate(34.025 206.317188) scale(0.1 -0.1)">
       <use xlink:href="#DejaVuSans-30"/>
       <use xlink:href="#DejaVuSans-2e" x="63.623047"/>
       <use xlink:href="#DejaVuSans-30" x="95.410156"/>
       <use xlink:href="#DejaVuSans-33" x="159.033203"/>
      </g>
     </g>
    </g>
    <g id="text_37">
     <!-- Distance (m) -->
     <g transform="translate(27.945313 286.095313) rotate(-90) scale(0.1 -0.1)">
      <defs>
       <path id="DejaVuSans-44" d="M 1259 4147 
L 1259 519 
L 2022 519 
Q 2988 519 3436 956 
Q 3884 1394 3884 2338 
Q 3884 3275 3436 3711 
Q 2988 4147 2022 4147 
L 1259 4147 
z
M 628 4666 
L 1925 4666 
Q 3281 4666 3915 4102 
Q 4550 3538 4550 2338 
Q 4550 1131 3912 565 
Q 3275 0 1925 0 
L 628 0 
L 628 4666 
z
" transform="scale(0.015625)"/>
       <path id="DejaVuSans-6e" d="M 3513 2113 
L 3513 0 
L 2938 0 
L 2938 2094 
Q 2938 2591 2744 2837 
Q 2550 3084 2163 3084 
Q 1697 3084 1428 2787 
Q 1159 2491 1159 1978 
L 1159 0 
L 581 0 
L 581 3500 
L 1159 3500 
L 1159 2956 
Q 1366 3272 1645 3428 
Q 1925 3584 2291 3584 
Q 2894 3584 3203 3211 
Q 3513 2838 3513 2113 
z
" transform="scale(0.015625)"/>
       <path id="DejaVuSans-63" d="M 3122 3366 
L 3122 2828 
Q 2878 2963 2633 3030 
Q 2388 3097 2138 3097 
Q 1578 3097 1268 2742 
Q 959 2388 959 1747 
Q 959 1106 1268 751 
Q 1578 397 2138 397 
Q 2388 397 2633 464 
Q 2878 531 3122 666 
L 3122 134 
Q 2881 22 2623 -34 
Q 2366 -91 2075 -91 
Q 1284 -91 818 406 
Q 353 903 353 1747 
Q 353 2603 823 3093 
Q 1294 3584 2113 3584 
Q 2378 3584 2631 3529 
Q 2884 3475 3122 3366 
z
" transform="scale(0.015625)"/>
      </defs>
      <use xlink:href="#DejaVuSans-44"/>
      <use xlink:href="#DejaVuSans-69" x="77.001953"/>
      <use xlink:href="#DejaVuSans-73" x="104.785156"/>
      <use xlink:href="#DejaVuSans-74" x="156.884766"/>
      <use xlink:href="#DejaVuSans-61" x="196.09375"/>
      <use xlink:href="#DejaVuSans-6e" x="257.373047"/>
      <use xlink:href="#DejaVuSans-63" x="320.751953"/>
      <use xlink:href="#DejaVuSans-65" x="375.732422"/>
      <use xlink:href="#DejaVuSans-20" x="437.255859"/>
      <use xlink:href="#DejaVuSans-28" x="469.042969"/>
      <use xlink:href="#DejaVuSans-6d" x="508.056641"/>
      <use xlink:href="#DejaVuSans-29" x="605.46875"/>
     </g>
    </g>
   </g>
   <g id="line2d_42">
    <path d="M 59.790625 305.225781 
L 122.569141 267.960212 
L 185.347656 228.694315 
L 248.126172 207.811334 
L 310.904688 196.627121 
L 373.683203 192.992664 
L 436.461719 192.424092 
L 499.240234 192.424092 
L 562.01875 192.424092 
" clip-path="url(#p0796d4a7ca)" style="fill: none; stroke: #1f77b4; stroke-width: 1.5; stroke-linecap: square"/>
   </g>
   <g id="line2d_43">
    <path d="M 59.790625 305.225781 
L 122.569141 269.514375 
L 185.347656 229.755796 
L 248.126172 209.113412 
L 310.904688 198.912928 
L 373.683203 196.307309 
L 436.461719 196.200476 
L 499.240234 196.200476 
L 562.01875 196.200476 
" clip-path="url(#p0796d4a7ca)" style="fill: none; stroke: #ff7f0e; stroke-width: 1.5; stroke-linecap: square"/>
   </g>
   <g id="line2d_44">
    <path d="M 59.790625 305.225781 
L 122.569141 268.04891 
L 185.347656 227.238944 
L 248.126172 206.129022 
L 310.904688 195.766767 
L 373.683203 193.234654 
L 436.461719 193.209148 
L 499.240234 193.209148 
L 562.01875 193.209148 
" clip-path="url(#p0796d4a7ca)" style="fill: none; stroke: #2ca02c; stroke-width: 1.5; stroke-linecap: square"/>
   </g>
   <g id="line2d_45">
    <path d="M 59.790625 305.225781 
L 122.569141 267.033626 
L 185.347656 226.455068 
L 248.126172 205.303493 
L 310.904688 194.914316 
L 373.683203 192.404431 
L 436.461719 192.37807 
L 499.240234 192.37807 
L 562.01875 192.37807 
" clip-path="url(#p0796d4a7ca)" style="fill: none; stroke: #d62728; stroke-width: 1.5; stroke-linecap: square"/>
   </g>
   <g id="line2d_46">
    <path d="M 59.790625 305.225781 
L 122.569141 266.715901 
L 185.347656 225.945414 
L 248.126172 204.708279 
L 310.904688 194.047164 
L 373.683203 191.412872 
L 436.461719 191.372173 
L 499.240234 191.372173 
L 562.01875 191.372173 
" clip-path="url(#p0796d4a7ca)" style="fill: none; stroke: #9467bd; stroke-width: 1.5; stroke-linecap: square"/>
   </g>
   <g id="line2d_47"/>
   <g id="line2d_48"/>
   <g id="line2d_49"/>
   <g id="line2d_50"/>
   <g id="line2d_51"/>
   <g id="patch_9">
    <path d="M 59.790625 322.34375 
L 59.790625 185.4 
" style="fill: none; stroke: #000000; stroke-width: 0.8; stroke-linejoin: miter; stroke-linecap: square"/>
   </g>
   <g id="patch_10">
    <path d="M 562.01875 322.34375 
L 562.01875 185.4 
" style="fill: none; stroke: #000000; stroke-width: 0.8; stroke-linejoin: miter; stroke-linecap: square"/>
   </g>
   <g id="patch_11">
    <path d="M 59.790625 322.34375 
L 562.01875 322.34375 
" style="fill: none; stroke: #000000; stroke-width: 0.8; stroke-linejoin: miter; stroke-linecap: square"/>
   </g>
   <g id="patch_12">
    <path d="M 59.790625 185.4 
L 562.01875 185.4 
" style="fill: none; stroke: #000000; stroke-width: 0.8; stroke-linejoin: miter; stroke-linecap: square"/>
   </g>
   <g id="legend_2">
    <g id="patch_13">
     <path d="M 475.98125 317.34375 
L 555.01875 317.34375 
Q 557.01875 317.34375 557.01875 315.34375 
L 557.01875 228.275 
Q 557.01875 226.275 555.01875 226.275 
L 475.98125 226.275 
Q 473.98125 226.275 473.98125 228.275 
L 473.98125 315.34375 
Q 473.98125 317.34375 475.98125 317.34375 
z
" style="fill: #ffffff; opacity: 0.8; stroke: #cccccc; stroke-linejoin: miter"/>
    </g>
    <g id="text_38">
     <!-- Growth Name -->
     <g transform="translate(481.064844 237.873438) scale(0.1 -0.1)">
      <use xlink:href="#DejaVuSans-47"/>
      <use xlink:href="#DejaVuSans-72" x="77.490234"/>
      <use xlink:href="#DejaVuSans-6f" x="116.353516"/>
      <use xlink:href="#DejaVuSans-77" x="177.535156"/>
      <use xlink:href="#DejaVuSans-74" x="259.322266"/>
      <use xlink:href="#DejaVuSans-68" x="298.53125"/>
      <use xlink:href="#DejaVuSans-20" x="361.910156"/>
      <use xlink:href="#DejaVuSans-4e" x="393.697266"/>
      <use xlink:href="#DejaVuSans-61" x="468.501953"/>
      <use xlink:href="#DejaVuSans-6d" x="529.78125"/>
      <use xlink:href="#DejaVuSans-65" x="627.193359"/>
     </g>
    </g>
    <g id="line2d_52">
     <path d="M 477.98125 249.051563 
L 487.98125 249.051563 
L 497.98125 249.051563 
" style="fill: none; stroke: #1f77b4; stroke-width: 1.5; stroke-linecap: square"/>
    </g>
    <g id="text_39">
     <!-- Sample 1 -->
     <g transform="translate(505.98125 252.551563) scale(0.1 -0.1)">
      <use xlink:href="#DejaVuSans-53"/>
      <use xlink:href="#DejaVuSans-61" x="63.476562"/>
      <use xlink:href="#DejaVuSans-6d" x="124.755859"/>
      <use xlink:href="#DejaVuSans-70" x="222.167969"/>
      <use xlink:href="#DejaVuSans-6c" x="285.644531"/>
      <use xlink:href="#DejaVuSans-65" x="313.427734"/>
      <use xlink:href="#DejaVuSans-20" x="374.951172"/>
      <use xlink:href="#DejaVuSans-31" x="406.738281"/>
     </g>
    </g>
    <g id="line2d_53">
     <path d="M 477.98125 263.729688 
L 487.98125 263.729688 
L 497.98125 263.729688 
" style="fill: none; stroke: #ff7f0e; stroke-width: 1.5; stroke-linecap: square"/>
    </g>
    <g id="text_40">
     <!-- Sample 2 -->
     <g transform="translate(505.98125 267.229688) scale(0.1 -0.1)">
      <use xlink:href="#DejaVuSans-53"/>
      <use xlink:href="#DejaVuSans-61" x="63.476562"/>
      <use xlink:href="#DejaVuSans-6d" x="124.755859"/>
      <use xlink:href="#DejaVuSans-70" x="222.167969"/>
      <use xlink:href="#DejaVuSans-6c" x="285.644531"/>
      <use xlink:href="#DejaVuSans-65" x="313.427734"/>
      <use xlink:href="#DejaVuSans-20" x="374.951172"/>
      <use xlink:href="#DejaVuSans-32" x="406.738281"/>
     </g>
    </g>
    <g id="line2d_54">
     <path d="M 477.98125 278.407813 
L 487.98125 278.407813 
L 497.98125 278.407813 
" style="fill: none; stroke: #2ca02c; stroke-width: 1.5; stroke-linecap: square"/>
    </g>
    <g id="text_41">
     <!-- Sample 3 -->
     <g transform="translate(505.98125 281.907813) scale(0.1 -0.1)">
      <use xlink:href="#DejaVuSans-53"/>
      <use xlink:href="#DejaVuSans-61" x="63.476562"/>
      <use xlink:href="#DejaVuSans-6d" x="124.755859"/>
      <use xlink:href="#DejaVuSans-70" x="222.167969"/>
      <use xlink:href="#DejaVuSans-6c" x="285.644531"/>
      <use xlink:href="#DejaVuSans-65" x="313.427734"/>
      <use xlink:href="#DejaVuSans-20" x="374.951172"/>
      <use xlink:href="#DejaVuSans-33" x="406.738281"/>
     </g>
    </g>
    <g id="line2d_55">
     <path d="M 477.98125 293.085938 
L 487.98125 293.085938 
L 497.98125 293.085938 
" style="fill: none; stroke: #d62728; stroke-width: 1.5; stroke-linecap: square"/>
    </g>
    <g id="text_42">
     <!-- Sample 4 -->
     <g transform="translate(505.98125 296.585938) scale(0.1 -0.1)">
      <use xlink:href="#DejaVuSans-53"/>
      <use xlink:href="#DejaVuSans-61" x="63.476562"/>
      <use xlink:href="#DejaVuSans-6d" x="124.755859"/>
      <use xlink:href="#DejaVuSans-70" x="222.167969"/>
      <use xlink:href="#DejaVuSans-6c" x="285.644531"/>
      <use xlink:href="#DejaVuSans-65" x="313.427734"/>
      <use xlink:href="#DejaVuSans-20" x="374.951172"/>
      <use xlink:href="#DejaVuSans-34" x="406.738281"/>
     </g>
    </g>
    <g id="line2d_56">
     <path d="M 477.98125 307.764063 
L 487.98125 307.764063 
L 497.98125 307.764063 
" style="fill: none; stroke: #9467bd; stroke-width: 1.5; stroke-linecap: square"/>
    </g>
    <g id="text_43">
     <!-- Sample 5 -->
     <g transform="translate(505.98125 311.264063) scale(0.1 -0.1)">
      <use xlink:href="#DejaVuSans-53"/>
      <use xlink:href="#DejaVuSans-61" x="63.476562"/>
      <use xlink:href="#DejaVuSans-6d" x="124.755859"/>
      <use xlink:href="#DejaVuSans-70" x="222.167969"/>
      <use xlink:href="#DejaVuSans-6c" x="285.644531"/>
      <use xlink:href="#DejaVuSans-65" x="313.427734"/>
      <use xlink:href="#DejaVuSans-20" x="374.951172"/>
      <use xlink:href="#DejaVuSans-35" x="406.738281"/>
     </g>
    </g>
   </g>
   <g id="text_44">
    <path d="M 88.095391 209.03875 
L 88.095391 210.299687 
Q 87.523516 209.983281 86.949297 209.82625 
Q 86.375078 209.669219 85.789141 209.669219 
Q 84.476641 209.669219 83.750078 210.50125 
Q 83.025859 211.330937 83.025859 212.833281 
Q 83.025859 214.335625 83.750078 215.167656 
Q 84.476641 215.997344 85.789141 215.997344 
Q 86.375078 215.997344 86.949297 215.840312 
Q 87.523516 215.683281 88.095391 215.366875 
L 88.095391 216.61375 
Q 87.530547 216.87625 86.925859 217.0075 
Q 86.323516 217.141094 85.641484 217.141094 
Q 83.787578 217.141094 82.695391 215.97625 
Q 81.605547 214.811406 81.605547 212.833281 
Q 81.605547 210.827031 82.707109 209.678594 
Q 83.811016 208.527812 85.730547 208.527812 
Q 86.351641 208.527812 86.944609 208.656719 
Q 87.537578 208.783281 88.095391 209.03875 
z
" style="stroke: #ffffff; stroke-width: 0.75"/>
    <path d="M 88.095391 209.03875 
L 88.095391 210.299687 
Q 87.523516 209.983281 86.949297 209.82625 
Q 86.375078 209.669219 85.789141 209.669219 
Q 84.476641 209.669219 83.750078 210.50125 
Q 83.025859 211.330937 83.025859 212.833281 
Q 83.025859 214.335625 83.750078 215.167656 
Q 84.476641 215.997344 85.789141 215.997344 
Q 86.375078 215.997344 86.949297 215.840312 
Q 87.523516 215.683281 88.095391 215.366875 
L 88.095391 216.61375 
Q 87.530547 216.87625 86.925859 217.0075 
Q 86.323516 217.141094 85.641484 217.141094 
Q 83.787578 217.141094 82.695391 215.97625 
Q 81.605547 214.811406 81.605547 212.833281 
Q 81.605547 210.827031 82.707109 209.678594 
Q 83.811016 208.527812 85.730547 208.527812 
Q 86.351641 208.527812 86.944609 208.656719 
Q 87.537578 208.783281 88.095391 209.03875 
z
"/>
   </g>
  </g>
 </g>
 <defs>
  <clipPath id="p3f62136270">
   <rect x="59.790625" y="10.8" width="502.228125" height="136.94375"/>
  </clipPath>
  <clipPath id="p0796d4a7ca">
   <rect x="59.790625" y="185.4" width="502.228125" height="136.94375"/>
  </clipPath>
 </defs>
</svg>
