<?xml version="1.0" encoding="utf-8" standalone="no"?>
<!DOCTYPE svg PUBLIC "-//W3C//DTD SVG 1.1//EN"
  "http://www.w3.org/Graphics/SVG/1.1/DTD/svg11.dtd">
<svg xmlns:xlink="http://www.w3.org/1999/xlink" width="576pt" height="432pt" viewBox="0 0 576 432" xmlns="http://www.w3.org/2000/svg" version="1.1">
 <metadata>
  <rdf:RDF xmlns:dc="http://purl.org/dc/elements/1.1/" xmlns:cc="http://creativecommons.org/ns#" xmlns:rdf="http://www.w3.org/1999/02/22-rdf-syntax-ns#">
   <cc:Work>
    <dc:type rdf:resource="http://purl.org/dc/dcmitype/StillImage"/>
    <dc:date>2024-10-30T00:51:32.854500</dc:date>
    <dc:format>image/svg+xml</dc:format>
    <dc:creator>
     <cc:Agent>
      <dc:title>Matplotlib v3.8.3, https://matplotlib.org/</dc:title>
     </cc:Agent>
    </dc:creator>
   </cc:Work>
  </rdf:RDF>
 </metadata>
 <defs>
  <style type="text/css">*{stroke-linejoin: round; stroke-linecap: butt}</style>
 </defs>
 <g id="figure_1">
  <g id="patch_1">
   <path d="M 0 432 
L 576 432 
L 576 0 
L 0 0 
z
" style="fill: #ffffff"/>
  </g>
  <g id="axes_1">
   <g id="patch_2">
    <path d="M 72 196.466087 
L 518.4 196.466087 
L 518.4 51.84 
L 72 51.84 
z
" style="fill: #ffffff"/>
   </g>
   <g id="PolyCollection_1">
    <defs>
     <path id="m64f87cbb6c" d="M 184.165716 -265.661671 
L 183.034284 -265.661671 
L 182.80856 -266.011443 
L 182.524576 -266.361215 
L 182.180495 -266.710986 
L 181.779612 -267.060758 
L 181.331357 -267.410529 
L 180.85152 -267.760301 
L 180.361412 -268.110073 
L 179.885851 -268.459844 
L 179.450105 -268.809616 
L 179.076141 -269.159387 
L 178.778775 -269.509159 
L 178.56237 -269.858931 
L 178.418693 -270.208702 
L 178.326307 -270.558474 
L 178.251599 -270.908245 
L 178.151187 -271.258017 
L 177.975245 -271.607789 
L 177.671145 -271.95756 
L 177.186915 -272.307332 
L 176.474168 -272.657103 
L 175.49045 -273.006875 
L 174.201138 -273.356647 
L 172.581148 -273.706418 
L 170.616638 -274.05619 
L 168.306747 -274.405961 
L 165.665121 -274.755733 
L 162.7208 -275.105504 
L 159.517918 -275.455276 
L 156.113761 -275.805048 
L 152.574999 -276.154819 
L 148.972296 -276.504591 
L 145.373922 -276.854362 
L 141.839311 -277.204134 
L 138.41365 -277.553906 
L 135.12444 -277.903677 
L 131.98062 -278.253449 
L 128.974363 -278.60322 
L 126.085106 -278.952992 
L 123.284978 -279.302764 
L 120.544604 -279.652535 
L 117.838305 -280.002307 
L 115.147958 -280.352078 
L 112.46519 -280.70185 
L 109.791917 -281.051622 
L 107.139544 -281.401393 
L 104.527252 -281.751165 
L 101.979764 -282.100936 
L 99.524875 -282.450708 
L 97.190861 -282.80048 
L 95.003871 -283.150251 
L 92.985408 -283.500023 
L 91.150211 -283.849794 
L 89.505004 -284.199566 
L 88.048717 -284.549338 
L 86.774667 -284.899109 
L 85.674873 -285.248881 
L 84.746111 -285.598652 
L 83.996685 -285.948424 
L 83.452399 -286.298196 
L 83.16 -286.647967 
L 83.186689 -286.997739 
L 83.615023 -287.34751 
L 84.533561 -287.697282 
L 86.024675 -288.047054 
L 88.151677 -288.396825 
L 90.947659 -288.746597 
L 94.408075 -289.096368 
L 98.488227 -289.44614 
L 103.105772 -289.795912 
L 108.147368 -290.145683 
L 113.477973 -290.495455 
L 118.951153 -290.845226 
L 124.419082 -291.194998 
L 129.741449 -291.54477 
L 134.79305 -291.894541 
L 139.470227 -292.244313 
L 143.696299 -292.594084 
L 147.425941 -292.943856 
L 150.648024 -293.293628 
L 153.386193 -293.643399 
L 155.696353 -293.993171 
L 157.660621 -294.342942 
L 159.377891 -294.692714 
L 160.951974 -295.042486 
L 162.478923 -295.392257 
L 164.035571 -295.742029 
L 165.671181 -296.0918 
L 167.403576 -296.441572 
L 169.220229 -296.791343 
L 171.083822 -297.141115 
L 172.940945 -297.490887 
L 174.732116 -297.840658 
L 176.401289 -298.19043 
L 177.903311 -298.540201 
L 179.208468 -298.889973 
L 180.303904 -299.239745 
L 181.192355 -299.589516 
L 181.888987 -299.939288 
L 182.417304 -300.289059 
L 184.782696 -300.289059 
L 184.782696 -300.289059 
L 185.311013 -299.939288 
L 186.007645 -299.589516 
L 186.896096 -299.239745 
L 187.991532 -298.889973 
L 189.296689 -298.540201 
L 190.798711 -298.19043 
L 192.467884 -297.840658 
L 194.259055 -297.490887 
L 196.116178 -297.141115 
L 197.979771 -296.791343 
L 199.796424 -296.441572 
L 201.528819 -296.0918 
L 203.164429 -295.742029 
L 204.721077 -295.392257 
L 206.248026 -295.042486 
L 207.822109 -294.692714 
L 209.539379 -294.342942 
L 211.503647 -293.993171 
L 213.813807 -293.643399 
L 216.551976 -293.293628 
L 219.774059 -292.943856 
L 223.503701 -292.594084 
L 227.729773 -292.244313 
L 232.40695 -291.894541 
L 237.458551 -291.54477 
L 242.780918 -291.194998 
L 248.248847 -290.845226 
L 253.722027 -290.495455 
L 259.052632 -290.145683 
L 264.094228 -289.795912 
L 268.711773 -289.44614 
L 272.791925 -289.096368 
L 276.252341 -288.746597 
L 279.048323 -288.396825 
L 281.175325 -288.047054 
L 282.666439 -287.697282 
L 283.584977 -287.34751 
L 284.013311 -286.997739 
L 284.04 -286.647967 
L 283.747601 -286.298196 
L 283.203315 -285.948424 
L 282.453889 -285.598652 
L 281.525127 -285.248881 
L 280.425333 -284.899109 
L 279.151283 -284.549338 
L 277.694996 -284.199566 
L 276.049789 -283.849794 
L 274.214592 -283.500023 
L 272.196129 -283.150251 
L 270.009139 -282.80048 
L 267.675125 -282.450708 
L 265.220236 -282.100936 
L 262.672748 -281.751165 
L 260.060456 -281.401393 
L 257.408083 -281.051622 
L 254.73481 -280.70185 
L 252.052042 -280.352078 
L 249.361695 -280.002307 
L 246.655396 -279.652535 
L 243.915022 -279.302764 
L 241.114894 -278.952992 
L 238.225637 -278.60322 
L 235.21938 -278.253449 
L 232.07556 -277.903677 
L 228.78635 -277.553906 
L 225.360689 -277.204134 
L 221.826078 -276.854362 
L 218.227704 -276.504591 
L 214.625001 -276.154819 
L 211.086239 -275.805048 
L 207.682082 -275.455276 
L 204.4792 -275.105504 
L 201.534879 -274.755733 
L 198.893253 -274.405961 
L 196.583362 -274.05619 
L 194.618852 -273.706418 
L 192.998862 -273.356647 
L 191.70955 -273.006875 
L 190.725832 -272.657103 
L 190.013085 -272.307332 
L 189.528855 -271.95756 
L 189.224755 -271.607789 
L 189.048813 -271.258017 
L 188.948401 -270.908245 
L 188.873693 -270.558474 
L 188.781307 -270.208702 
L 188.63763 -269.858931 
L 188.421225 -269.509159 
L 188.123859 -269.159387 
L 187.749895 -268.809616 
L 187.314149 -268.459844 
L 186.838588 -268.110073 
L 186.34848 -267.760301 
L 185.868643 -267.410529 
L 185.420388 -267.060758 
L 185.019505 -266.710986 
L 184.675424 -266.361215 
L 184.39144 -266.011443 
L 184.165716 -265.661671 
z
" style="stroke: #4c4c4c; stroke-width: 1.25"/>
    </defs>
    <g clip-path="url(#p80fc0f3483)">
     <use xlink:href="#m64f87cbb6c" x="0" y="432" style="fill: #5875a4; stroke: #4c4c4c; stroke-width: 1.25"/>
    </g>
   </g>
   <g id="PolyCollection_2">
    <defs>
     <path id="mbca8cf3b26" d="M 407.994254 -242.107826 
L 405.605746 -242.107826 
L 404.779415 -243.435889 
L 403.525871 -244.763953 
L 401.712579 -246.092016 
L 399.208844 -247.420079 
L 395.904808 -248.748142 
L 391.731489 -250.076206 
L 386.677378 -251.404269 
L 380.797441 -252.732332 
L 374.212139 -254.060395 
L 367.096623 -255.388458 
L 359.662665 -256.716522 
L 352.137189 -258.044585 
L 344.741376 -259.372648 
L 337.673487 -260.700711 
L 331.097536 -262.028775 
L 325.138988 -263.356838 
L 319.887842 -264.684901 
L 315.408305 -266.012964 
L 311.752875 -267.341028 
L 308.977125 -268.669091 
L 307.150651 -269.997154 
L 306.36 -271.325217 
L 306.701102 -272.653281 
L 308.261513 -273.981344 
L 311.095814 -275.309407 
L 315.199984 -276.63747 
L 320.491648 -277.965534 
L 326.802288 -279.293597 
L 333.88474 -280.62166 
L 341.435374 -281.949723 
L 349.126422 -283.277787 
L 356.641513 -284.60585 
L 363.707309 -285.933913 
L 370.116102 -287.261976 
L 375.737151 -288.59004 
L 380.51704 -289.918103 
L 384.470849 -291.246166 
L 387.666415 -292.574229 
L 390.204369 -293.902292 
L 392.197172 -295.230356 
L 393.751026 -296.558419 
L 394.954288 -297.886482 
L 395.874501 -299.214545 
L 396.563375 -300.542609 
L 397.066246 -301.870672 
L 397.431016 -303.198735 
L 397.712139 -304.526798 
L 397.967689 -305.854862 
L 398.25077 -307.182925 
L 398.599007 -308.510988 
L 399.026621 -309.839051 
L 399.522348 -311.167115 
L 400.054029 -312.495178 
L 400.57814 -313.823241 
L 401.050965 -315.151304 
L 401.438087 -316.479368 
L 401.720111 -317.807431 
L 401.894249 -319.135494 
L 401.972735 -320.463557 
L 401.97941 -321.791621 
L 401.945481 -323.119684 
L 401.904819 -324.447747 
L 401.889015 -325.77581 
L 401.922695 -327.103874 
L 402.020097 -328.431937 
L 402.184005 -329.76 
L 402.407526 -331.088063 
L 402.678127 -332.416126 
L 402.982376 -333.74419 
L 403.309547 -335.072253 
L 403.652881 -336.400316 
L 404.008415 -337.728379 
L 404.372385 -339.056443 
L 404.738714 -340.384506 
L 405.097802 -341.712569 
L 405.437068 -343.040632 
L 405.74285 -344.368696 
L 406.002726 -345.696759 
L 406.207347 -347.024822 
L 406.351277 -348.352885 
L 406.432908 -349.680949 
L 406.453944 -351.009012 
L 406.419034 -352.337075 
L 406.335888 -353.665138 
L 406.215768 -354.993202 
L 406.073845 -356.321265 
L 405.928725 -357.649328 
L 405.800727 -358.977391 
L 405.708947 -360.305455 
L 405.667804 -361.633518 
L 405.684106 -362.961581 
L 405.755682 -364.289644 
L 405.872092 -365.617708 
L 406.017255 -366.945771 
L 406.173139 -368.273834 
L 406.323399 -369.601897 
L 406.455991 -370.92996 
L 406.564269 -372.258024 
L 406.646647 -373.586087 
L 406.953353 -373.586087 
L 406.953353 -373.586087 
L 407.035731 -372.258024 
L 407.144009 -370.92996 
L 407.276601 -369.601897 
L 407.426861 -368.273834 
L 407.582745 -366.945771 
L 407.727908 -365.617708 
L 407.844318 -364.289644 
L 407.915894 -362.961581 
L 407.932196 -361.633518 
L 407.891053 -360.305455 
L 407.799273 -358.977391 
L 407.671275 -357.649328 
L 407.526155 -356.321265 
L 407.384232 -354.993202 
L 407.264112 -353.665138 
L 407.180966 -352.337075 
L 407.146056 -351.009012 
L 407.167092 -349.680949 
L 407.248723 -348.352885 
L 407.392653 -347.024822 
L 407.597274 -345.696759 
L 407.85715 -344.368696 
L 408.162932 -343.040632 
L 408.502198 -341.712569 
L 408.861286 -340.384506 
L 409.227615 -339.056443 
L 409.591585 -337.728379 
L 409.947119 -336.400316 
L 410.290453 -335.072253 
L 410.617624 -333.74419 
L 410.921873 -332.416126 
L 411.192474 -331.088063 
L 411.415995 -329.76 
L 411.579903 -328.431937 
L 411.677305 -327.103874 
L 411.710985 -325.77581 
L 411.695181 -324.447747 
L 411.654519 -323.119684 
L 411.62059 -321.791621 
L 411.627265 -320.463557 
L 411.705751 -319.135494 
L 411.879889 -317.807431 
L 412.161913 -316.479368 
L 412.549035 -315.151304 
L 413.02186 -313.823241 
L 413.545971 -312.495178 
L 414.077652 -311.167115 
L 414.573379 -309.839051 
L 415.000993 -308.510988 
L 415.34923 -307.182925 
L 415.632311 -305.854862 
L 415.887861 -304.526798 
L 416.168984 -303.198735 
L 416.533754 -301.870672 
L 417.036625 -300.542609 
L 417.725499 -299.214545 
L 418.645712 -297.886482 
L 419.848974 -296.558419 
L 421.402828 -295.230356 
L 423.395631 -293.902292 
L 425.933585 -292.574229 
L 429.129151 -291.246166 
L 433.08296 -289.918103 
L 437.862849 -288.59004 
L 443.483898 -287.261976 
L 449.892691 -285.933913 
L 456.958487 -284.60585 
L 464.473578 -283.277787 
L 472.164626 -281.949723 
L 479.71526 -280.62166 
L 486.797712 -279.293597 
L 493.108352 -277.965534 
L 498.400016 -276.63747 
L 502.504186 -275.309407 
L 505.338487 -273.981344 
L 506.898898 -272.653281 
L 507.24 -271.325217 
L 506.449349 -269.997154 
L 504.622875 -268.669091 
L 501.847125 -267.341028 
L 498.191695 -266.012964 
L 493.712158 -264.684901 
L 488.461012 -263.356838 
L 482.502464 -262.028775 
L 475.926513 -260.700711 
L 468.858624 -259.372648 
L 461.462811 -258.044585 
L 453.937335 -256.716522 
L 446.503377 -255.388458 
L 439.387861 -254.060395 
L 432.802559 -252.732332 
L 426.922622 -251.404269 
L 421.868511 -250.076206 
L 417.695192 -248.748142 
L 414.391156 -247.420079 
L 411.887421 -246.092016 
L 410.074129 -244.763953 
L 408.820585 -243.435889 
L 407.994254 -242.107826 
z
" style="stroke: #4c4c4c; stroke-width: 1.25"/>
    </defs>
    <g clip-path="url(#p80fc0f3483)">
     <use xlink:href="#mbca8cf3b26" x="0" y="432" style="fill: #cc8963; stroke: #4c4c4c; stroke-width: 1.25"/>
    </g>
   </g>
   <g id="matplotlib.axis_1">
    <g id="xtick_1">
     <g id="line2d_1">
      <defs>
       <path id="m587af67a72" d="M 0 0 
L 0 3.5 
" style="stroke: #000000; stroke-width: 0.8"/>
      </defs>
      <g>
       <use xlink:href="#m587af67a72" x="183.6" y="196.466087" style="stroke: #000000; stroke-width: 0.8"/>
      </g>
     </g>
     <g id="text_1">
      <!-- Sample 5 -->
      <g transform="translate(160.08125 211.064524) scale(0.1 -0.1)">
       <defs>
        <path id="DejaVuSans-53" d="M 3425 4513 
L 3425 3897 
Q 3066 4069 2747 4153 
Q 2428 4238 2131 4238 
Q 1616 4238 1336 4038 
Q 1056 3838 1056 3469 
Q 1056 3159 1242 3001 
Q 1428 2844 1947 2747 
L 2328 2669 
Q 3034 2534 3370 2195 
Q 3706 1856 3706 1288 
Q 3706 609 3251 259 
Q 2797 -91 1919 -91 
Q 1588 -91 1214 -16 
Q 841 59 441 206 
L 441 856 
Q 825 641 1194 531 
Q 1563 422 1919 422 
Q 2459 422 2753 634 
Q 3047 847 3047 1241 
Q 3047 1584 2836 1778 
Q 2625 1972 2144 2069 
L 1759 2144 
Q 1053 2284 737 2584 
Q 422 2884 422 3419 
Q 422 4038 858 4394 
Q 1294 4750 2059 4750 
Q 2388 4750 2728 4690 
Q 3069 4631 3425 4513 
z
" transform="scale(0.015625)"/>
        <path id="DejaVuSans-61" d="M 2194 1759 
Q 1497 1759 1228 1600 
Q 959 1441 959 1056 
Q 959 750 1161 570 
Q 1363 391 1709 391 
Q 2188 391 2477 730 
Q 2766 1069 2766 1631 
L 2766 1759 
L 2194 1759 
z
M 3341 1997 
L 3341 0 
L 2766 0 
L 2766 531 
Q 2569 213 2275 61 
Q 1981 -91 1556 -91 
Q 1019 -91 701 211 
Q 384 513 384 1019 
Q 384 1609 779 1909 
Q 1175 2209 1959 2209 
L 2766 2209 
L 2766 2266 
Q 2766 2663 2505 2880 
Q 2244 3097 1772 3097 
Q 1472 3097 1187 3025 
Q 903 2953 641 2809 
L 641 3341 
Q 956 3463 1253 3523 
Q 1550 3584 1831 3584 
Q 2591 3584 2966 3190 
Q 3341 2797 3341 1997 
z
" transform="scale(0.015625)"/>
        <path id="DejaVuSans-6d" d="M 3328 2828 
Q 3544 3216 3844 3400 
Q 4144 3584 4550 3584 
Q 5097 3584 5394 3201 
Q 5691 2819 5691 2113 
L 5691 0 
L 5113 0 
L 5113 2094 
Q 5113 2597 4934 2840 
Q 4756 3084 4391 3084 
Q 3944 3084 3684 2787 
Q 3425 2491 3425 1978 
L 3425 0 
L 2847 0 
L 2847 2094 
Q 2847 2600 2669 2842 
Q 2491 3084 2119 3084 
Q 1678 3084 1418 2786 
Q 1159 2488 1159 1978 
L 1159 0 
L 581 0 
L 581 3500 
L 1159 3500 
L 1159 2956 
Q 1356 3278 1631 3431 
Q 1906 3584 2284 3584 
Q 2666 3584 2933 3390 
Q 3200 3197 3328 2828 
z
" transform="scale(0.015625)"/>
        <path id="DejaVuSans-70" d="M 1159 525 
L 1159 -1331 
L 581 -1331 
L 581 3500 
L 1159 3500 
L 1159 2969 
Q 1341 3281 1617 3432 
Q 1894 3584 2278 3584 
Q 2916 3584 3314 3078 
Q 3713 2572 3713 1747 
Q 3713 922 3314 415 
Q 2916 -91 2278 -91 
Q 1894 -91 1617 61 
Q 1341 213 1159 525 
z
M 3116 1747 
Q 3116 2381 2855 2742 
Q 2594 3103 2138 3103 
Q 1681 3103 1420 2742 
Q 1159 2381 1159 1747 
Q 1159 1113 1420 752 
Q 1681 391 2138 391 
Q 2594 391 2855 752 
Q 3116 1113 3116 1747 
z
" transform="scale(0.015625)"/>
        <path id="DejaVuSans-6c" d="M 603 4863 
L 1178 4863 
L 1178 0 
L 603 0 
L 603 4863 
z
" transform="scale(0.015625)"/>
        <path id="DejaVuSans-65" d="M 3597 1894 
L 3597 1613 
L 953 1613 
Q 991 1019 1311 708 
Q 1631 397 2203 397 
Q 2534 397 2845 478 
Q 3156 559 3463 722 
L 3463 178 
Q 3153 47 2828 -22 
Q 2503 -91 2169 -91 
Q 1331 -91 842 396 
Q 353 884 353 1716 
Q 353 2575 817 3079 
Q 1281 3584 2069 3584 
Q 2775 3584 3186 3129 
Q 3597 2675 3597 1894 
z
M 3022 2063 
Q 3016 2534 2758 2815 
Q 2500 3097 2075 3097 
Q 1594 3097 1305 2825 
Q 1016 2553 972 2059 
L 3022 2063 
z
" transform="scale(0.015625)"/>
        <path id="DejaVuSans-20" transform="scale(0.015625)"/>
        <path id="DejaVuSans-35" d="M 691 4666 
L 3169 4666 
L 3169 4134 
L 1269 4134 
L 1269 2991 
Q 1406 3038 1543 3061 
Q 1681 3084 1819 3084 
Q 2600 3084 3056 2656 
Q 3513 2228 3513 1497 
Q 3513 744 3044 326 
Q 2575 -91 1722 -91 
Q 1428 -91 1123 -41 
Q 819 9 494 109 
L 494 744 
Q 775 591 1075 516 
Q 1375 441 1709 441 
Q 2250 441 2565 725 
Q 2881 1009 2881 1497 
Q 2881 1984 2565 2268 
Q 2250 2553 1709 2553 
Q 1456 2553 1204 2497 
Q 953 2441 691 2322 
L 691 4666 
z
" transform="scale(0.015625)"/>
       </defs>
       <use xlink:href="#DejaVuSans-53"/>
       <use xlink:href="#DejaVuSans-61" x="63.476562"/>
       <use xlink:href="#DejaVuSans-6d" x="124.755859"/>
       <use xlink:href="#DejaVuSans-70" x="222.167969"/>
       <use xlink:href="#DejaVuSans-6c" x="285.644531"/>
       <use xlink:href="#DejaVuSans-65" x="313.427734"/>
       <use xlink:href="#DejaVuSans-20" x="374.951172"/>
       <use xlink:href="#DejaVuSans-35" x="406.738281"/>
      </g>
     </g>
    </g>
    <g id="xtick_2">
     <g id="line2d_2">
      <g>
       <use xlink:href="#m587af67a72" x="406.8" y="196.466087" style="stroke: #000000; stroke-width: 0.8"/>
      </g>
     </g>
     <g id="text_2">
      <!-- Sample X -->
      <g transform="translate(383.0375 211.064524) scale(0.1 -0.1)">
       <defs>
        <path id="DejaVuSans-58" d="M 403 4666 
L 1081 4666 
L 2241 2931 
L 3406 4666 
L 4084 4666 
L 2584 2425 
L 4184 0 
L 3506 0 
L 2194 1984 
L 872 0 
L 191 0 
L 1856 2491 
L 403 4666 
z
" transform="scale(0.015625)"/>
       </defs>
       <use xlink:href="#DejaVuSans-53"/>
       <use xlink:href="#DejaVuSans-61" x="63.476562"/>
       <use xlink:href="#DejaVuSans-6d" x="124.755859"/>
       <use xlink:href="#DejaVuSans-70" x="222.167969"/>
       <use xlink:href="#DejaVuSans-6c" x="285.644531"/>
       <use xlink:href="#DejaVuSans-65" x="313.427734"/>
       <use xlink:href="#DejaVuSans-20" x="374.951172"/>
       <use xlink:href="#DejaVuSans-58" x="406.738281"/>
      </g>
     </g>
    </g>
    <g id="text_3">
     <!-- Growth Name -->
     <g transform="translate(260.764844 224.742649) scale(0.1 -0.1)">
      <defs>
       <path id="DejaVuSans-47" d="M 3809 666 
L 3809 1919 
L 2778 1919 
L 2778 2438 
L 4434 2438 
L 4434 434 
Q 4069 175 3628 42 
Q 3188 -91 2688 -91 
Q 1594 -91 976 548 
Q 359 1188 359 2328 
Q 359 3472 976 4111 
Q 1594 4750 2688 4750 
Q 3144 4750 3555 4637 
Q 3966 4525 4313 4306 
L 4313 3634 
Q 3963 3931 3569 4081 
Q 3175 4231 2741 4231 
Q 1884 4231 1454 3753 
Q 1025 3275 1025 2328 
Q 1025 1384 1454 906 
Q 1884 428 2741 428 
Q 3075 428 3337 486 
Q 3600 544 3809 666 
z
" transform="scale(0.015625)"/>
       <path id="DejaVuSans-72" d="M 2631 2963 
Q 2534 3019 2420 3045 
Q 2306 3072 2169 3072 
Q 1681 3072 1420 2755 
Q 1159 2438 1159 1844 
L 1159 0 
L 581 0 
L 581 3500 
L 1159 3500 
L 1159 2956 
Q 1341 3275 1631 3429 
Q 1922 3584 2338 3584 
Q 2397 3584 2469 3576 
Q 2541 3569 2628 3553 
L 2631 2963 
z
" transform="scale(0.015625)"/>
       <path id="DejaVuSans-6f" d="M 1959 3097 
Q 1497 3097 1228 2736 
Q 959 2375 959 1747 
Q 959 1119 1226 758 
Q 1494 397 1959 397 
Q 2419 397 2687 759 
Q 2956 1122 2956 1747 
Q 2956 2369 2687 2733 
Q 2419 3097 1959 3097 
z
M 1959 3584 
Q 2709 3584 3137 3096 
Q 3566 2609 3566 1747 
Q 3566 888 3137 398 
Q 2709 -91 1959 -91 
Q 1206 -91 779 398 
Q 353 888 353 1747 
Q 353 2609 779 3096 
Q 1206 3584 1959 3584 
z
" transform="scale(0.015625)"/>
       <path id="DejaVuSans-77" d="M 269 3500 
L 844 3500 
L 1563 769 
L 2278 3500 
L 2956 3500 
L 3675 769 
L 4391 3500 
L 4966 3500 
L 4050 0 
L 3372 0 
L 2619 2869 
L 1863 0 
L 1184 0 
L 269 3500 
z
" transform="scale(0.015625)"/>
       <path id="DejaVuSans-74" d="M 1172 4494 
L 1172 3500 
L 2356 3500 
L 2356 3053 
L 1172 3053 
L 1172 1153 
Q 1172 725 1289 603 
Q 1406 481 1766 481 
L 2356 481 
L 2356 0 
L 1766 0 
Q 1100 0 847 248 
Q 594 497 594 1153 
L 594 3053 
L 172 3053 
L 172 3500 
L 594 3500 
L 594 4494 
L 1172 4494 
z
" transform="scale(0.015625)"/>
       <path id="DejaVuSans-68" d="M 3513 2113 
L 3513 0 
L 2938 0 
L 2938 2094 
Q 2938 2591 2744 2837 
Q 2550 3084 2163 3084 
Q 1697 3084 1428 2787 
Q 1159 2491 1159 1978 
L 1159 0 
L 581 0 
L 581 4863 
L 1159 4863 
L 1159 2956 
Q 1366 3272 1645 3428 
Q 1925 3584 2291 3584 
Q 2894 3584 3203 3211 
Q 3513 2838 3513 2113 
z
" transform="scale(0.015625)"/>
       <path id="DejaVuSans-4e" d="M 628 4666 
L 1478 4666 
L 3547 763 
L 3547 4666 
L 4159 4666 
L 4159 0 
L 3309 0 
L 1241 3903 
L 1241 0 
L 628 0 
L 628 4666 
z
" transform="scale(0.015625)"/>
      </defs>
      <use xlink:href="#DejaVuSans-47"/>
      <use xlink:href="#DejaVuSans-72" x="77.490234"/>
      <use xlink:href="#DejaVuSans-6f" x="116.353516"/>
      <use xlink:href="#DejaVuSans-77" x="177.535156"/>
      <use xlink:href="#DejaVuSans-74" x="259.322266"/>
      <use xlink:href="#DejaVuSans-68" x="298.53125"/>
      <use xlink:href="#DejaVuSans-20" x="361.910156"/>
      <use xlink:href="#DejaVuSans-4e" x="393.697266"/>
      <use xlink:href="#DejaVuSans-61" x="468.501953"/>
      <use xlink:href="#DejaVuSans-6d" x="529.78125"/>
      <use xlink:href="#DejaVuSans-65" x="627.193359"/>
     </g>
    </g>
   </g>
   <g id="matplotlib.axis_2">
    <g id="ytick_1">
     <g id="line2d_3">
      <defs>
       <path id="mb209a2812d" d="M 0 0 
L -3.5 0 
" style="stroke: #000000; stroke-width: 0.8"/>
      </defs>
      <g>
       <use xlink:href="#mb209a2812d" x="72" y="195.687601" style="stroke: #000000; stroke-width: 0.8"/>
      </g>
     </g>
     <g id="text_4">
      <!-- 14000 -->
      <g transform="translate(33.1875 199.48682) scale(0.1 -0.1)">
       <defs>
        <path id="DejaVuSans-31" d="M 794 531 
L 1825 531 
L 1825 4091 
L 703 3866 
L 703 4441 
L 1819 4666 
L 2450 4666 
L 2450 531 
L 3481 531 
L 3481 0 
L 794 0 
L 794 531 
z
" transform="scale(0.015625)"/>
        <path id="DejaVuSans-34" d="M 2419 4116 
L 825 1625 
L 2419 1625 
L 2419 4116 
z
M 2253 4666 
L 3047 4666 
L 3047 1625 
L 3713 1625 
L 3713 1100 
L 3047 1100 
L 3047 0 
L 2419 0 
L 2419 1100 
L 313 1100 
L 313 1709 
L 2253 4666 
z
" transform="scale(0.015625)"/>
        <path id="DejaVuSans-30" d="M 2034 4250 
Q 1547 4250 1301 3770 
Q 1056 3291 1056 2328 
Q 1056 1369 1301 889 
Q 1547 409 2034 409 
Q 2525 409 2770 889 
Q 3016 1369 3016 2328 
Q 3016 3291 2770 3770 
Q 2525 4250 2034 4250 
z
M 2034 4750 
Q 2819 4750 3233 4129 
Q 3647 3509 3647 2328 
Q 3647 1150 3233 529 
Q 2819 -91 2034 -91 
Q 1250 -91 836 529 
Q 422 1150 422 2328 
Q 422 3509 836 4129 
Q 1250 4750 2034 4750 
z
" transform="scale(0.015625)"/>
       </defs>
       <use xlink:href="#DejaVuSans-31"/>
       <use xlink:href="#DejaVuSans-34" x="63.623047"/>
       <use xlink:href="#DejaVuSans-30" x="127.246094"/>
       <use xlink:href="#DejaVuSans-30" x="190.869141"/>
       <use xlink:href="#DejaVuSans-30" x="254.492188"/>
      </g>
     </g>
    </g>
    <g id="ytick_2">
     <g id="line2d_4">
      <g>
       <use xlink:href="#mb209a2812d" x="72" y="172.700918" style="stroke: #000000; stroke-width: 0.8"/>
      </g>
     </g>
     <g id="text_5">
      <!-- 15000 -->
      <g transform="translate(33.1875 176.500137) scale(0.1 -0.1)">
       <use xlink:href="#DejaVuSans-31"/>
       <use xlink:href="#DejaVuSans-35" x="63.623047"/>
       <use xlink:href="#DejaVuSans-30" x="127.246094"/>
       <use xlink:href="#DejaVuSans-30" x="190.869141"/>
       <use xlink:href="#DejaVuSans-30" x="254.492188"/>
      </g>
     </g>
    </g>
    <g id="ytick_3">
     <g id="line2d_5">
      <g>
       <use xlink:href="#mb209a2812d" x="72" y="149.714235" style="stroke: #000000; stroke-width: 0.8"/>
      </g>
     </g>
     <g id="text_6">
      <!-- 16000 -->
      <g transform="translate(33.1875 153.513454) scale(0.1 -0.1)">
       <defs>
        <path id="DejaVuSans-36" d="M 2113 2584 
Q 1688 2584 1439 2293 
Q 1191 2003 1191 1497 
Q 1191 994 1439 701 
Q 1688 409 2113 409 
Q 2538 409 2786 701 
Q 3034 994 3034 1497 
Q 3034 2003 2786 2293 
Q 2538 2584 2113 2584 
z
M 3366 4563 
L 3366 3988 
Q 3128 4100 2886 4159 
Q 2644 4219 2406 4219 
Q 1781 4219 1451 3797 
Q 1122 3375 1075 2522 
Q 1259 2794 1537 2939 
Q 1816 3084 2150 3084 
Q 2853 3084 3261 2657 
Q 3669 2231 3669 1497 
Q 3669 778 3244 343 
Q 2819 -91 2113 -91 
Q 1303 -91 875 529 
Q 447 1150 447 2328 
Q 447 3434 972 4092 
Q 1497 4750 2381 4750 
Q 2619 4750 2861 4703 
Q 3103 4656 3366 4563 
z
" transform="scale(0.015625)"/>
       </defs>
       <use xlink:href="#DejaVuSans-31"/>
       <use xlink:href="#DejaVuSans-36" x="63.623047"/>
       <use xlink:href="#DejaVuSans-30" x="127.246094"/>
       <use xlink:href="#DejaVuSans-30" x="190.869141"/>
       <use xlink:href="#DejaVuSans-30" x="254.492188"/>
      </g>
     </g>
    </g>
    <g id="ytick_4">
     <g id="line2d_6">
      <g>
       <use xlink:href="#mb209a2812d" x="72" y="126.727552" style="stroke: #000000; stroke-width: 0.8"/>
      </g>
     </g>
     <g id="text_7">
      <!-- 17000 -->
      <g transform="translate(33.1875 130.526771) scale(0.1 -0.1)">
       <defs>
        <path id="DejaVuSans-37" d="M 525 4666 
L 3525 4666 
L 3525 4397 
L 1831 0 
L 1172 0 
L 2766 4134 
L 525 4134 
L 525 4666 
z
" transform="scale(0.015625)"/>
       </defs>
       <use xlink:href="#DejaVuSans-31"/>
       <use xlink:href="#DejaVuSans-37" x="63.623047"/>
       <use xlink:href="#DejaVuSans-30" x="127.246094"/>
       <use xlink:href="#DejaVuSans-30" x="190.869141"/>
       <use xlink:href="#DejaVuSans-30" x="254.492188"/>
      </g>
     </g>
    </g>
    <g id="ytick_5">
     <g id="line2d_7">
      <g>
       <use xlink:href="#mb209a2812d" x="72" y="103.740869" style="stroke: #000000; stroke-width: 0.8"/>
      </g>
     </g>
     <g id="text_8">
      <!-- 18000 -->
      <g transform="translate(33.1875 107.540088) scale(0.1 -0.1)">
       <defs>
        <path id="DejaVuSans-38" d="M 2034 2216 
Q 1584 2216 1326 1975 
Q 1069 1734 1069 1313 
Q 1069 891 1326 650 
Q 1584 409 2034 409 
Q 2484 409 2743 651 
Q 3003 894 3003 1313 
Q 3003 1734 2745 1975 
Q 2488 2216 2034 2216 
z
M 1403 2484 
Q 997 2584 770 2862 
Q 544 3141 544 3541 
Q 544 4100 942 4425 
Q 1341 4750 2034 4750 
Q 2731 4750 3128 4425 
Q 3525 4100 3525 3541 
Q 3525 3141 3298 2862 
Q 3072 2584 2669 2484 
Q 3125 2378 3379 2068 
Q 3634 1759 3634 1313 
Q 3634 634 3220 271 
Q 2806 -91 2034 -91 
Q 1263 -91 848 271 
Q 434 634 434 1313 
Q 434 1759 690 2068 
Q 947 2378 1403 2484 
z
M 1172 3481 
Q 1172 3119 1398 2916 
Q 1625 2713 2034 2713 
Q 2441 2713 2670 2916 
Q 2900 3119 2900 3481 
Q 2900 3844 2670 4047 
Q 2441 4250 2034 4250 
Q 1625 4250 1398 4047 
Q 1172 3844 1172 3481 
z
" transform="scale(0.015625)"/>
       </defs>
       <use xlink:href="#DejaVuSans-31"/>
       <use xlink:href="#DejaVuSans-38" x="63.623047"/>
       <use xlink:href="#DejaVuSans-30" x="127.246094"/>
       <use xlink:href="#DejaVuSans-30" x="190.869141"/>
       <use xlink:href="#DejaVuSans-30" x="254.492188"/>
      </g>
     </g>
    </g>
    <g id="ytick_6">
     <g id="line2d_8">
      <g>
       <use xlink:href="#mb209a2812d" x="72" y="80.754186" style="stroke: #000000; stroke-width: 0.8"/>
      </g>
     </g>
     <g id="text_9">
      <!-- 19000 -->
      <g transform="translate(33.1875 84.553405) scale(0.1 -0.1)">
       <defs>
        <path id="DejaVuSans-39" d="M 703 97 
L 703 672 
Q 941 559 1184 500 
Q 1428 441 1663 441 
Q 2288 441 2617 861 
Q 2947 1281 2994 2138 
Q 2813 1869 2534 1725 
Q 2256 1581 1919 1581 
Q 1219 1581 811 2004 
Q 403 2428 403 3163 
Q 403 3881 828 4315 
Q 1253 4750 1959 4750 
Q 2769 4750 3195 4129 
Q 3622 3509 3622 2328 
Q 3622 1225 3098 567 
Q 2575 -91 1691 -91 
Q 1453 -91 1209 -44 
Q 966 3 703 97 
z
M 1959 2075 
Q 2384 2075 2632 2365 
Q 2881 2656 2881 3163 
Q 2881 3666 2632 3958 
Q 2384 4250 1959 4250 
Q 1534 4250 1286 3958 
Q 1038 3666 1038 3163 
Q 1038 2656 1286 2365 
Q 1534 2075 1959 2075 
z
" transform="scale(0.015625)"/>
       </defs>
       <use xlink:href="#DejaVuSans-31"/>
       <use xlink:href="#DejaVuSans-39" x="63.623047"/>
       <use xlink:href="#DejaVuSans-30" x="127.246094"/>
       <use xlink:href="#DejaVuSans-30" x="190.869141"/>
       <use xlink:href="#DejaVuSans-30" x="254.492188"/>
      </g>
     </g>
    </g>
    <g id="ytick_7">
     <g id="line2d_9">
      <g>
       <use xlink:href="#mb209a2812d" x="72" y="57.767503" style="stroke: #000000; stroke-width: 0.8"/>
      </g>
     </g>
     <g id="text_10">
      <!-- 20000 -->
      <g transform="translate(33.1875 61.566721) scale(0.1 -0.1)">
       <defs>
        <path id="DejaVuSans-32" d="M 1228 531 
L 3431 531 
L 3431 0 
L 469 0 
L 469 531 
Q 828 903 1448 1529 
Q 2069 2156 2228 2338 
Q 2531 2678 2651 2914 
Q 2772 3150 2772 3378 
Q 2772 3750 2511 3984 
Q 2250 4219 1831 4219 
Q 1534 4219 1204 4116 
Q 875 4013 500 3803 
L 500 4441 
Q 881 4594 1212 4672 
Q 1544 4750 1819 4750 
Q 2544 4750 2975 4387 
Q 3406 4025 3406 3419 
Q 3406 3131 3298 2873 
Q 3191 2616 2906 2266 
Q 2828 2175 2409 1742 
Q 1991 1309 1228 531 
z
" transform="scale(0.015625)"/>
       </defs>
       <use xlink:href="#DejaVuSans-32"/>
       <use xlink:href="#DejaVuSans-30" x="63.623047"/>
       <use xlink:href="#DejaVuSans-30" x="127.246094"/>
       <use xlink:href="#DejaVuSans-30" x="190.869141"/>
       <use xlink:href="#DejaVuSans-30" x="254.492188"/>
      </g>
     </g>
    </g>
    <g id="text_11">
     <!-- Max Area (a.u.) -->
     <g transform="translate(27.107812 162.485075) rotate(-90) scale(0.1 -0.1)">
      <defs>
       <path id="DejaVuSans-4d" d="M 628 4666 
L 1569 4666 
L 2759 1491 
L 3956 4666 
L 4897 4666 
L 4897 0 
L 4281 0 
L 4281 4097 
L 3078 897 
L 2444 897 
L 1241 4097 
L 1241 0 
L 628 0 
L 628 4666 
z
" transform="scale(0.015625)"/>
       <path id="DejaVuSans-78" d="M 3513 3500 
L 2247 1797 
L 3578 0 
L 2900 0 
L 1881 1375 
L 863 0 
L 184 0 
L 1544 1831 
L 300 3500 
L 978 3500 
L 1906 2253 
L 2834 3500 
L 3513 3500 
z
" transform="scale(0.015625)"/>
       <path id="DejaVuSans-41" d="M 2188 4044 
L 1331 1722 
L 3047 1722 
L 2188 4044 
z
M 1831 4666 
L 2547 4666 
L 4325 0 
L 3669 0 
L 3244 1197 
L 1141 1197 
L 716 0 
L 50 0 
L 1831 4666 
z
" transform="scale(0.015625)"/>
       <path id="DejaVuSans-28" d="M 1984 4856 
Q 1566 4138 1362 3434 
Q 1159 2731 1159 2009 
Q 1159 1288 1364 580 
Q 1569 -128 1984 -844 
L 1484 -844 
Q 1016 -109 783 600 
Q 550 1309 550 2009 
Q 550 2706 781 3412 
Q 1013 4119 1484 4856 
L 1984 4856 
z
" transform="scale(0.015625)"/>
       <path id="DejaVuSans-2e" d="M 684 794 
L 1344 794 
L 1344 0 
L 684 0 
L 684 794 
z
" transform="scale(0.015625)"/>
       <path id="DejaVuSans-75" d="M 544 1381 
L 544 3500 
L 1119 3500 
L 1119 1403 
Q 1119 906 1312 657 
Q 1506 409 1894 409 
Q 2359 409 2629 706 
Q 2900 1003 2900 1516 
L 2900 3500 
L 3475 3500 
L 3475 0 
L 2900 0 
L 2900 538 
Q 2691 219 2414 64 
Q 2138 -91 1772 -91 
Q 1169 -91 856 284 
Q 544 659 544 1381 
z
M 1991 3584 
L 1991 3584 
z
" transform="scale(0.015625)"/>
       <path id="DejaVuSans-29" d="M 513 4856 
L 1013 4856 
Q 1481 4119 1714 3412 
Q 1947 2706 1947 2009 
Q 1947 1309 1714 600 
Q 1481 -109 1013 -844 
L 513 -844 
Q 928 -128 1133 580 
Q 1338 1288 1338 2009 
Q 1338 2731 1133 3434 
Q 928 4138 513 4856 
z
" transform="scale(0.015625)"/>
      </defs>
      <use xlink:href="#DejaVuSans-4d"/>
      <use xlink:href="#DejaVuSans-61" x="86.279297"/>
      <use xlink:href="#DejaVuSans-78" x="147.558594"/>
      <use xlink:href="#DejaVuSans-20" x="206.738281"/>
      <use xlink:href="#DejaVuSans-41" x="238.525391"/>
      <use xlink:href="#DejaVuSans-72" x="306.933594"/>
      <use xlink:href="#DejaVuSans-65" x="345.796875"/>
      <use xlink:href="#DejaVuSans-61" x="407.320312"/>
      <use xlink:href="#DejaVuSans-20" x="468.599609"/>
      <use xlink:href="#DejaVuSans-28" x="500.386719"/>
      <use xlink:href="#DejaVuSans-61" x="539.400391"/>
      <use xlink:href="#DejaVuSans-2e" x="600.679688"/>
      <use xlink:href="#DejaVuSans-75" x="632.466797"/>
      <use xlink:href="#DejaVuSans-2e" x="695.845703"/>
      <use xlink:href="#DejaVuSans-29" x="727.632812"/>
     </g>
    </g>
   </g>
   <g id="line2d_10">
    <path d="M 183.6 158.380215 
L 183.6 135.784305 
" clip-path="url(#p80fc0f3483)" style="fill: none; stroke: #4c4c4c; stroke-width: 1.875; stroke-linecap: square"/>
   </g>
   <g id="line2d_11">
    <path d="M 183.6 150.329129 
L 183.6 143.392897 
" clip-path="url(#p80fc0f3483)" style="fill: none; stroke: #4c4c4c; stroke-width: 5.625; stroke-linecap: square"/>
   </g>
   <g id="line2d_12">
    <path d="M 183.6 146.714473 
" clip-path="url(#p80fc0f3483)" style="fill: none; stroke: #4c4c4c; stroke-width: 1.5; stroke-linecap: square"/>
    <defs>
     <path id="md49be716a6" d="M 2.34375 0 
L -2.34375 -0 
" style="stroke: #ffffff; stroke-width: 1.125"/>
    </defs>
    <g clip-path="url(#p80fc0f3483)">
     <use xlink:href="#md49be716a6" x="183.6" y="146.714473" style="fill: #ffffff; stroke: #ffffff; stroke-width: 1.125"/>
    </g>
   </g>
   <g id="line2d_13">
    <path d="M 406.8 178.240709 
L 406.8 134.749904 
" clip-path="url(#p80fc0f3483)" style="fill: none; stroke: #4c4c4c; stroke-width: 1.875; stroke-linecap: square"/>
   </g>
   <g id="line2d_14">
    <path d="M 406.8 166.56922 
L 406.8 152.237024 
" clip-path="url(#p80fc0f3483)" style="fill: none; stroke: #4c4c4c; stroke-width: 5.625; stroke-linecap: square"/>
   </g>
   <g id="line2d_15">
    <path d="M 406.8 159.345655 
" clip-path="url(#p80fc0f3483)" style="fill: none; stroke: #4c4c4c; stroke-width: 1.5; stroke-linecap: square"/>
    <g clip-path="url(#p80fc0f3483)">
     <use xlink:href="#md49be716a6" x="406.8" y="159.345655" style="fill: #ffffff; stroke: #ffffff; stroke-width: 1.125"/>
    </g>
   </g>
   <g id="patch_3">
    <path d="M 72 196.466087 
L 72 51.84 
" style="fill: none; stroke: #000000; stroke-width: 0.8; stroke-linejoin: miter; stroke-linecap: square"/>
   </g>
   <g id="patch_4">
    <path d="M 518.4 196.466087 
L 518.4 51.84 
" style="fill: none; stroke: #000000; stroke-width: 0.8; stroke-linejoin: miter; stroke-linecap: square"/>
   </g>
   <g id="patch_5">
    <path d="M 72 196.466087 
L 518.4 196.466087 
" style="fill: none; stroke: #000000; stroke-width: 0.8; stroke-linejoin: miter; stroke-linecap: square"/>
   </g>
   <g id="patch_6">
    <path d="M 72 51.84 
L 518.4 51.84 
" style="fill: none; stroke: #000000; stroke-width: 0.8; stroke-linejoin: miter; stroke-linecap: square"/>
   </g>
   <g id="text_12">
    <!-- 1.61e+04 -->
    <g transform="translate(145.975 191.38788) scale(0.14 -0.14)">
     <defs>
      <path id="DejaVuSans-Bold-31" d="M 750 831 
L 1813 831 
L 1813 3847 
L 722 3622 
L 722 4441 
L 1806 4666 
L 2950 4666 
L 2950 831 
L 4013 831 
L 4013 0 
L 750 0 
L 750 831 
z
" transform="scale(0.015625)"/>
      <path id="DejaVuSans-Bold-2e" d="M 653 1209 
L 1778 1209 
L 1778 0 
L 653 0 
L 653 1209 
z
" transform="scale(0.015625)"/>
      <path id="DejaVuSans-Bold-36" d="M 2316 2303 
Q 2000 2303 1842 2098 
Q 1684 1894 1684 1484 
Q 1684 1075 1842 870 
Q 2000 666 2316 666 
Q 2634 666 2792 870 
Q 2950 1075 2950 1484 
Q 2950 1894 2792 2098 
Q 2634 2303 2316 2303 
z
M 3803 4544 
L 3803 3681 
Q 3506 3822 3243 3889 
Q 2981 3956 2731 3956 
Q 2194 3956 1894 3657 
Q 1594 3359 1544 2772 
Q 1750 2925 1990 3001 
Q 2231 3078 2516 3078 
Q 3231 3078 3670 2659 
Q 4109 2241 4109 1563 
Q 4109 813 3618 361 
Q 3128 -91 2303 -91 
Q 1394 -91 895 523 
Q 397 1138 397 2266 
Q 397 3422 980 4083 
Q 1563 4744 2578 4744 
Q 2900 4744 3203 4694 
Q 3506 4644 3803 4544 
z
" transform="scale(0.015625)"/>
      <path id="DejaVuSans-Bold-65" d="M 4031 1759 
L 4031 1441 
L 1416 1441 
Q 1456 1047 1700 850 
Q 1944 653 2381 653 
Q 2734 653 3104 758 
Q 3475 863 3866 1075 
L 3866 213 
Q 3469 63 3072 -14 
Q 2675 -91 2278 -91 
Q 1328 -91 801 392 
Q 275 875 275 1747 
Q 275 2603 792 3093 
Q 1309 3584 2216 3584 
Q 3041 3584 3536 3087 
Q 4031 2591 4031 1759 
z
M 2881 2131 
Q 2881 2450 2695 2645 
Q 2509 2841 2209 2841 
Q 1884 2841 1681 2658 
Q 1478 2475 1428 2131 
L 2881 2131 
z
" transform="scale(0.015625)"/>
      <path id="DejaVuSans-Bold-2b" d="M 3053 4013 
L 3053 2375 
L 4684 2375 
L 4684 1638 
L 3053 1638 
L 3053 0 
L 2309 0 
L 2309 1638 
L 678 1638 
L 678 2375 
L 2309 2375 
L 2309 4013 
L 3053 4013 
z
" transform="scale(0.015625)"/>
      <path id="DejaVuSans-Bold-30" d="M 2944 2338 
Q 2944 3213 2780 3570 
Q 2616 3928 2228 3928 
Q 1841 3928 1675 3570 
Q 1509 3213 1509 2338 
Q 1509 1453 1675 1090 
Q 1841 728 2228 728 
Q 2613 728 2778 1090 
Q 2944 1453 2944 2338 
z
M 4147 2328 
Q 4147 1169 3647 539 
Q 3147 -91 2228 -91 
Q 1306 -91 806 539 
Q 306 1169 306 2328 
Q 306 3491 806 4120 
Q 1306 4750 2228 4750 
Q 3147 4750 3647 4120 
Q 4147 3491 4147 2328 
z
" transform="scale(0.015625)"/>
      <path id="DejaVuSans-Bold-34" d="M 2356 3675 
L 1038 1722 
L 2356 1722 
L 2356 3675 
z
M 2156 4666 
L 3494 4666 
L 3494 1722 
L 4159 1722 
L 4159 850 
L 3494 850 
L 3494 0 
L 2356 0 
L 2356 850 
L 288 850 
L 288 1881 
L 2156 4666 
z
" transform="scale(0.015625)"/>
     </defs>
     <use xlink:href="#DejaVuSans-Bold-31"/>
     <use xlink:href="#DejaVuSans-Bold-2e" x="69.580078"/>
     <use xlink:href="#DejaVuSans-Bold-36" x="107.568359"/>
     <use xlink:href="#DejaVuSans-Bold-31" x="177.148438"/>
     <use xlink:href="#DejaVuSans-Bold-65" x="246.728516"/>
     <use xlink:href="#DejaVuSans-Bold-2b" x="314.550781"/>
     <use xlink:href="#DejaVuSans-Bold-30" x="398.339844"/>
     <use xlink:href="#DejaVuSans-Bold-34" x="467.919922"/>
    </g>
   </g>
   <g id="text_13">
    <!-- 1.57e+04 -->
    <g transform="translate(369.175 199.680267) scale(0.14 -0.14)">
     <defs>
      <path id="DejaVuSans-Bold-35" d="M 678 4666 
L 3669 4666 
L 3669 3781 
L 1638 3781 
L 1638 3059 
Q 1775 3097 1914 3117 
Q 2053 3138 2203 3138 
Q 3056 3138 3531 2711 
Q 4006 2284 4006 1522 
Q 4006 766 3489 337 
Q 2972 -91 2053 -91 
Q 1656 -91 1267 -14 
Q 878 63 494 219 
L 494 1166 
Q 875 947 1217 837 
Q 1559 728 1863 728 
Q 2300 728 2551 942 
Q 2803 1156 2803 1522 
Q 2803 1891 2551 2103 
Q 2300 2316 1863 2316 
Q 1603 2316 1309 2248 
Q 1016 2181 678 2041 
L 678 4666 
z
" transform="scale(0.015625)"/>
      <path id="DejaVuSans-Bold-37" d="M 428 4666 
L 3944 4666 
L 3944 3988 
L 2125 0 
L 953 0 
L 2675 3781 
L 428 3781 
L 428 4666 
z
" transform="scale(0.015625)"/>
     </defs>
     <use xlink:href="#DejaVuSans-Bold-31"/>
     <use xlink:href="#DejaVuSans-Bold-2e" x="69.580078"/>
     <use xlink:href="#DejaVuSans-Bold-35" x="107.568359"/>
     <use xlink:href="#DejaVuSans-Bold-37" x="177.148438"/>
     <use xlink:href="#DejaVuSans-Bold-65" x="246.728516"/>
     <use xlink:href="#DejaVuSans-Bold-2b" x="314.550781"/>
     <use xlink:href="#DejaVuSans-Bold-30" x="398.339844"/>
     <use xlink:href="#DejaVuSans-Bold-34" x="467.919922"/>
    </g>
   </g>
   <g id="text_14">
    <path d="M 496.626094 73.550319 
Q 494.9925 73.550319 494.362031 73.922976 
Q 493.731562 74.295632 493.731562 75.197976 
Q 493.731562 75.915163 494.205 76.337038 
Q 494.678437 76.756569 495.489375 76.756569 
Q 496.612031 76.756569 497.289375 75.962038 
Q 497.966719 75.167507 497.966719 73.850319 
L 497.966719 73.550319 
L 496.626094 73.550319 
z
M 499.314375 72.992507 
L 499.314375 77.672976 
L 497.966719 77.672976 
L 497.966719 76.428444 
Q 497.505 77.173757 496.815937 77.530007 
Q 496.126875 77.886257 495.130781 77.886257 
Q 493.872187 77.886257 493.126875 77.178444 
Q 492.383906 76.470632 492.383906 75.284694 
Q 492.383906 73.901882 493.309687 73.198757 
Q 494.237812 72.495632 496.075312 72.495632 
L 497.966719 72.495632 
L 497.966719 72.362038 
Q 497.966719 71.431569 497.355 70.922976 
Q 496.743281 70.414382 495.637031 70.414382 
Q 494.933906 70.414382 494.265937 70.583132 
Q 493.600312 70.751882 492.98625 71.089382 
L 492.98625 69.842507 
Q 493.724531 69.556569 494.420625 69.415944 
Q 495.116719 69.272976 495.775312 69.272976 
Q 497.556562 69.272976 498.435469 70.196413 
Q 499.314375 71.117507 499.314375 72.992507 
z
" style="stroke: #ffffff; stroke-width: 0.75"/>
    <path d="M 496.626094 73.550319 
Q 494.9925 73.550319 494.362031 73.922976 
Q 493.731562 74.295632 493.731562 75.197976 
Q 493.731562 75.915163 494.205 76.337038 
Q 494.678437 76.756569 495.489375 76.756569 
Q 496.612031 76.756569 497.289375 75.962038 
Q 497.966719 75.167507 497.966719 73.850319 
L 497.966719 73.550319 
L 496.626094 73.550319 
z
M 499.314375 72.992507 
L 499.314375 77.672976 
L 497.966719 77.672976 
L 497.966719 76.428444 
Q 497.505 77.173757 496.815937 77.530007 
Q 496.126875 77.886257 495.130781 77.886257 
Q 493.872187 77.886257 493.126875 77.178444 
Q 492.383906 76.470632 492.383906 75.284694 
Q 492.383906 73.901882 493.309687 73.198757 
Q 494.237812 72.495632 496.075312 72.495632 
L 497.966719 72.495632 
L 497.966719 72.362038 
Q 497.966719 71.431569 497.355 70.922976 
Q 496.743281 70.414382 495.637031 70.414382 
Q 494.933906 70.414382 494.265937 70.583132 
Q 493.600312 70.751882 492.98625 71.089382 
L 492.98625 69.842507 
Q 493.724531 69.556569 494.420625 69.415944 
Q 495.116719 69.272976 495.775312 69.272976 
Q 497.556562 69.272976 498.435469 70.196413 
Q 499.314375 71.117507 499.314375 72.992507 
z
"/>
   </g>
  </g>
  <g id="axes_2">
   <g id="patch_7">
    <path d="M 72 384.48 
L 518.4 384.48 
L 518.4 239.853913 
L 72 239.853913 
z
" style="fill: #ffffff"/>
   </g>
   <g id="PolyCollection_3">
    <defs>
     <path id="md8ecec1354" d="M 185.085387 -111.787503 
L 182.114613 -111.787503 
L 181.582929 -112.532803 
L 180.928099 -113.278102 
L 180.146845 -114.023402 
L 179.244666 -114.768702 
L 178.237103 -115.514002 
L 177.149651 -116.259301 
L 176.015893 -117.004601 
L 174.873684 -117.749901 
L 173.759578 -118.4952 
L 172.702106 -119.2405 
L 171.71492 -119.9858 
L 170.791107 -120.731099 
L 169.90003 -121.476399 
L 168.987857 -122.221699 
L 167.982467 -122.966999 
L 166.802647 -123.712298 
L 165.370684 -124.457598 
L 163.626574 -125.202898 
L 161.541454 -125.948197 
L 159.127576 -126.693497 
L 156.442342 -127.438797 
L 153.584669 -128.184097 
L 150.683162 -128.929396 
L 147.877051 -129.674696 
L 145.292452 -130.419996 
L 143.017734 -131.165295 
L 141.082554 -131.910595 
L 139.444992 -132.655895 
L 137.990298 -133.401194 
L 136.542981 -134.146494 
L 134.891666 -134.891794 
L 132.823673 -135.637094 
L 130.164103 -136.382393 
L 126.812782 -137.127693 
L 122.772124 -137.872993 
L 118.159896 -138.618292 
L 113.203099 -139.363592 
L 108.212246 -140.108892 
L 103.538912 -140.854192 
L 99.522722 -141.599491 
L 96.436396 -142.344791 
L 94.438465 -143.090091 
L 93.542535 -143.83539 
L 93.609514 -144.58069 
L 94.36538 -145.32599 
L 95.442612 -146.071289 
L 96.439045 -146.816589 
L 96.984555 -147.561889 
L 96.804285 -148.307189 
L 95.767409 -149.052488 
L 93.912717 -149.797788 
L 91.446205 -150.543088 
L 88.710685 -151.288387 
L 86.132308 -152.033687 
L 84.152959 -152.778987 
L 83.16 -153.524287 
L 83.425221 -154.269586 
L 85.06322 -155.014886 
L 88.015867 -155.760186 
L 92.064856 -156.505485 
L 96.869412 -157.250785 
L 102.021973 -157.996085 
L 107.111842 -158.741384 
L 111.785926 -159.486684 
L 115.796718 -160.231984 
L 119.030474 -160.977284 
L 121.512288 -161.722583 
L 123.388935 -162.467883 
L 124.893973 -163.213183 
L 126.302235 -163.958482 
L 127.881997 -164.703782 
L 129.852765 -165.449082 
L 132.354941 -166.194382 
L 135.435018 -166.939681 
L 139.047001 -167.684981 
L 143.06793 -168.430281 
L 147.323298 -169.17558 
L 151.61704 -169.92088 
L 155.760692 -170.66618 
L 159.597268 -171.411479 
L 163.016912 -172.156779 
L 165.963234 -172.902079 
L 168.430941 -173.647379 
L 170.456698 -174.392678 
L 172.105884 -175.137978 
L 173.45807 -175.883278 
L 174.593678 -176.628577 
L 175.583594 -177.373877 
L 176.482639 -178.119177 
L 177.327002 -178.864477 
L 178.135068 -179.609776 
L 178.91069 -180.355076 
L 179.647755 -181.100376 
L 180.334999 -181.845675 
L 180.960249 -182.590975 
L 181.513563 -183.336275 
L 181.989091 -184.081575 
L 182.385712 -184.826874 
L 182.706713 -185.572174 
L 184.493287 -185.572174 
L 184.493287 -185.572174 
L 184.814288 -184.826874 
L 185.210909 -184.081575 
L 185.686437 -183.336275 
L 186.239751 -182.590975 
L 186.865001 -181.845675 
L 187.552245 -181.100376 
L 188.28931 -180.355076 
L 189.064932 -179.609776 
L 189.872998 -178.864477 
L 190.717361 -178.119177 
L 191.616406 -177.373877 
L 192.606322 -176.628577 
L 193.74193 -175.883278 
L 195.094116 -175.137978 
L 196.743302 -174.392678 
L 198.769059 -173.647379 
L 201.236766 -172.902079 
L 204.183088 -172.156779 
L 207.602732 -171.411479 
L 211.439308 -170.66618 
L 215.58296 -169.92088 
L 219.876702 -169.17558 
L 224.13207 -168.430281 
L 228.152999 -167.684981 
L 231.764982 -166.939681 
L 234.845059 -166.194382 
L 237.347235 -165.449082 
L 239.318003 -164.703782 
L 240.897765 -163.958482 
L 242.306027 -163.213183 
L 243.811065 -162.467883 
L 245.687712 -161.722583 
L 248.169526 -160.977284 
L 251.403282 -160.231984 
L 255.414074 -159.486684 
L 260.088158 -158.741384 
L 265.178027 -157.996085 
L 270.330588 -157.250785 
L 275.135144 -156.505485 
L 279.184133 -155.760186 
L 282.13678 -155.014886 
L 283.774779 -154.269586 
L 284.04 -153.524287 
L 283.047041 -152.778987 
L 281.067692 -152.033687 
L 278.489315 -151.288387 
L 275.753795 -150.543088 
L 273.287283 -149.797788 
L 271.432591 -149.052488 
L 270.395715 -148.307189 
L 270.215445 -147.561889 
L 270.760955 -146.816589 
L 271.757388 -146.071289 
L 272.83462 -145.32599 
L 273.590486 -144.58069 
L 273.657465 -143.83539 
L 272.761535 -143.090091 
L 270.763604 -142.344791 
L 267.677278 -141.599491 
L 263.661088 -140.854192 
L 258.987754 -140.108892 
L 253.996901 -139.363592 
L 249.040104 -138.618292 
L 244.427876 -137.872993 
L 240.387218 -137.127693 
L 237.035897 -136.382393 
L 234.376327 -135.637094 
L 232.308334 -134.891794 
L 230.657019 -134.146494 
L 229.209702 -133.401194 
L 227.755008 -132.655895 
L 226.117446 -131.910595 
L 224.182266 -131.165295 
L 221.907548 -130.419996 
L 219.322949 -129.674696 
L 216.516838 -128.929396 
L 213.615331 -128.184097 
L 210.757658 -127.438797 
L 208.072424 -126.693497 
L 205.658546 -125.948197 
L 203.573426 -125.202898 
L 201.829316 -124.457598 
L 200.397353 -123.712298 
L 199.217533 -122.966999 
L 198.212143 -122.221699 
L 197.29997 -121.476399 
L 196.408893 -120.731099 
L 195.48508 -119.9858 
L 194.497894 -119.2405 
L 193.440422 -118.4952 
L 192.326316 -117.749901 
L 191.184107 -117.004601 
L 190.050349 -116.259301 
L 188.962897 -115.514002 
L 187.955334 -114.768702 
L 187.053155 -114.023402 
L 186.271901 -113.278102 
L 185.617071 -112.532803 
L 185.085387 -111.787503 
z
" style="stroke: #4c4c4c; stroke-width: 1.25"/>
    </defs>
    <g clip-path="url(#p3b968d5573)">
     <use xlink:href="#md8ecec1354" x="0" y="432" style="fill: #5875a4; stroke: #4c4c4c; stroke-width: 1.25"/>
    </g>
   </g>
   <g id="PolyCollection_4">
    <defs>
     <path id="m84c6877719" d="M 407.005923 -54.093913 
L 406.594077 -54.093913 
L 406.493439 -55.337873 
L 406.361333 -56.581832 
L 406.195897 -57.825792 
L 405.997927 -59.069751 
L 405.770818 -60.313711 
L 405.519635 -61.55767 
L 405.249391 -62.80163 
L 404.962977 -64.045589 
L 404.659497 -65.289549 
L 404.333789 -66.533508 
L 403.977604 -67.777468 
L 403.582247 -69.021427 
L 403.141759 -70.265387 
L 402.655204 -71.509346 
L 402.126727 -72.753305 
L 401.562813 -73.997265 
L 400.967389 -75.241224 
L 400.336544 -76.485184 
L 399.65507 -77.729143 
L 398.896402 -78.973103 
L 398.025893 -80.217062 
L 397.005561 -81.461022 
L 395.797304 -82.704981 
L 394.362128 -83.948941 
L 392.655172 -85.1929 
L 390.619479 -86.43686 
L 388.183892 -87.680819 
L 385.270433 -88.924779 
L 381.813203 -90.168738 
L 377.784973 -91.412698 
L 373.221726 -92.656657 
L 368.232599 -93.900617 
L 362.985633 -95.144576 
L 357.66848 -96.388536 
L 352.43501 -97.632495 
L 347.358191 -98.876455 
L 342.41158 -100.120414 
L 337.493303 -101.364374 
L 332.489654 -102.608333 
L 327.356838 -103.852293 
L 322.187497 -105.096252 
L 317.230302 -106.340212 
L 312.847128 -107.584171 
L 309.41753 -108.828131 
L 307.223704 -110.07209 
L 306.36 -111.31605 
L 306.703479 -112.560009 
L 307.95824 -113.803969 
L 309.756351 -115.047928 
L 311.775158 -116.291888 
L 313.82506 -117.535847 
L 315.875763 -118.779807 
L 318.016358 -120.023766 
L 320.372668 -121.267726 
L 323.021763 -122.511685 
L 325.94155 -123.755645 
L 329.014653 -124.999604 
L 332.079938 -126.243564 
L 335.003903 -127.487523 
L 337.737202 -128.731483 
L 340.330815 -129.975442 
L 342.906572 -131.219402 
L 345.597867 -132.463361 
L 348.488756 -133.707321 
L 351.57838 -134.95128 
L 354.784341 -136.19524 
L 357.980395 -137.439199 
L 361.049212 -138.683159 
L 363.92615 -139.927118 
L 366.616306 -141.171078 
L 369.180491 -142.415037 
L 371.699641 -143.658997 
L 374.235345 -144.902956 
L 376.803681 -146.146916 
L 379.371746 -147.390875 
L 381.87536 -148.634835 
L 384.247707 -149.878794 
L 386.445456 -151.122754 
L 388.461902 -152.366713 
L 390.323581 -153.610673 
L 392.074166 -154.854632 
L 393.754026 -156.098592 
L 395.384171 -157.342551 
L 396.960106 -158.586511 
L 398.456235 -159.83047 
L 399.837286 -161.07443 
L 401.071309 -162.318389 
L 402.13935 -163.562349 
L 403.03922 -164.806308 
L 403.783497 -166.050268 
L 404.393869 -167.294227 
L 404.894616 -168.538187 
L 405.307501 -169.782146 
L 405.649186 -171.026106 
L 405.931064 -172.270065 
L 406.160663 -173.514025 
L 406.343536 -174.757984 
L 406.484823 -176.001944 
L 406.590079 -177.245903 
L 407.009921 -177.245903 
L 407.009921 -177.245903 
L 407.115177 -176.001944 
L 407.256464 -174.757984 
L 407.439337 -173.514025 
L 407.668936 -172.270065 
L 407.950814 -171.026106 
L 408.292499 -169.782146 
L 408.705384 -168.538187 
L 409.206131 -167.294227 
L 409.816503 -166.050268 
L 410.56078 -164.806308 
L 411.46065 -163.562349 
L 412.528691 -162.318389 
L 413.762714 -161.07443 
L 415.143765 -159.83047 
L 416.639894 -158.586511 
L 418.215829 -157.342551 
L 419.845974 -156.098592 
L 421.525834 -154.854632 
L 423.276419 -153.610673 
L 425.138098 -152.366713 
L 427.154544 -151.122754 
L 429.352293 -149.878794 
L 431.72464 -148.634835 
L 434.228254 -147.390875 
L 436.796319 -146.146916 
L 439.364655 -144.902956 
L 441.900359 -143.658997 
L 444.419509 -142.415037 
L 446.983694 -141.171078 
L 449.67385 -139.927118 
L 452.550788 -138.683159 
L 455.619605 -137.439199 
L 458.815659 -136.19524 
L 462.02162 -134.95128 
L 465.111244 -133.707321 
L 468.002133 -132.463361 
L 470.693428 -131.219402 
L 473.269185 -129.975442 
L 475.862798 -128.731483 
L 478.596097 -127.487523 
L 481.520062 -126.243564 
L 484.585347 -124.999604 
L 487.65845 -123.755645 
L 490.578237 -122.511685 
L 493.227332 -121.267726 
L 495.583642 -120.023766 
L 497.724237 -118.779807 
L 499.77494 -117.535847 
L 501.824842 -116.291888 
L 503.843649 -115.047928 
L 505.64176 -113.803969 
L 506.896521 -112.560009 
L 507.24 -111.31605 
L 506.376296 -110.07209 
L 504.18247 -108.828131 
L 500.752872 -107.584171 
L 496.369698 -106.340212 
L 491.412503 -105.096252 
L 486.243162 -103.852293 
L 481.110346 -102.608333 
L 476.106697 -101.364374 
L 471.18842 -100.120414 
L 466.241809 -98.876455 
L 461.16499 -97.632495 
L 455.93152 -96.388536 
L 450.614367 -95.144576 
L 445.367401 -93.900617 
L 440.378274 -92.656657 
L 435.815027 -91.412698 
L 431.786797 -90.168738 
L 428.329567 -88.924779 
L 425.416108 -87.680819 
L 422.980521 -86.43686 
L 420.944828 -85.1929 
L 419.237872 -83.948941 
L 417.802696 -82.704981 
L 416.594439 -81.461022 
L 415.574107 -80.217062 
L 414.703598 -78.973103 
L 413.94493 -77.729143 
L 413.263456 -76.485184 
L 412.632611 -75.241224 
L 412.037187 -73.997265 
L 411.473273 -72.753305 
L 410.944796 -71.509346 
L 410.458241 -70.265387 
L 410.017753 -69.021427 
L 409.622396 -67.777468 
L 409.266211 -66.533508 
L 408.940503 -65.289549 
L 408.637023 -64.045589 
L 408.350609 -62.80163 
L 408.080365 -61.55767 
L 407.829182 -60.313711 
L 407.602073 -59.069751 
L 407.404103 -57.825792 
L 407.238667 -56.581832 
L 407.106561 -55.337873 
L 407.005923 -54.093913 
z
" style="stroke: #4c4c4c; stroke-width: 1.25"/>
    </defs>
    <g clip-path="url(#p3b968d5573)">
     <use xlink:href="#m84c6877719" x="0" y="432" style="fill: #cc8963; stroke: #4c4c4c; stroke-width: 1.25"/>
    </g>
   </g>
   <g id="matplotlib.axis_3">
    <g id="xtick_3">
     <g id="line2d_16">
      <g>
       <use xlink:href="#m587af67a72" x="183.6" y="384.48" style="stroke: #000000; stroke-width: 0.8"/>
      </g>
     </g>
     <g id="text_15">
      <!-- Sample 5 -->
      <g transform="translate(160.08125 399.078438) scale(0.1 -0.1)">
       <use xlink:href="#DejaVuSans-53"/>
       <use xlink:href="#DejaVuSans-61" x="63.476562"/>
       <use xlink:href="#DejaVuSans-6d" x="124.755859"/>
       <use xlink:href="#DejaVuSans-70" x="222.167969"/>
       <use xlink:href="#DejaVuSans-6c" x="285.644531"/>
       <use xlink:href="#DejaVuSans-65" x="313.427734"/>
       <use xlink:href="#DejaVuSans-20" x="374.951172"/>
       <use xlink:href="#DejaVuSans-35" x="406.738281"/>
      </g>
     </g>
    </g>
    <g id="xtick_4">
     <g id="line2d_17">
      <g>
       <use xlink:href="#m587af67a72" x="406.8" y="384.48" style="stroke: #000000; stroke-width: 0.8"/>
      </g>
     </g>
     <g id="text_16">
      <!-- Sample X -->
      <g transform="translate(383.0375 399.078438) scale(0.1 -0.1)">
       <use xlink:href="#DejaVuSans-53"/>
       <use xlink:href="#DejaVuSans-61" x="63.476562"/>
       <use xlink:href="#DejaVuSans-6d" x="124.755859"/>
       <use xlink:href="#DejaVuSans-70" x="222.167969"/>
       <use xlink:href="#DejaVuSans-6c" x="285.644531"/>
       <use xlink:href="#DejaVuSans-65" x="313.427734"/>
       <use xlink:href="#DejaVuSans-20" x="374.951172"/>
       <use xlink:href="#DejaVuSans-58" x="406.738281"/>
      </g>
     </g>
    </g>
    <g id="text_17">
     <!-- Growth Name -->
     <g transform="translate(260.764844 412.756563) scale(0.1 -0.1)">
      <use xlink:href="#DejaVuSans-47"/>
      <use xlink:href="#DejaVuSans-72" x="77.490234"/>
      <use xlink:href="#DejaVuSans-6f" x="116.353516"/>
      <use xlink:href="#DejaVuSans-77" x="177.535156"/>
      <use xlink:href="#DejaVuSans-74" x="259.322266"/>
      <use xlink:href="#DejaVuSans-68" x="298.53125"/>
      <use xlink:href="#DejaVuSans-20" x="361.910156"/>
      <use xlink:href="#DejaVuSans-4e" x="393.697266"/>
      <use xlink:href="#DejaVuSans-61" x="468.501953"/>
      <use xlink:href="#DejaVuSans-6d" x="529.78125"/>
      <use xlink:href="#DejaVuSans-65" x="627.193359"/>
     </g>
    </g>
   </g>
   <g id="matplotlib.axis_4">
    <g id="ytick_8">
     <g id="line2d_18">
      <g>
       <use xlink:href="#mb209a2812d" x="72" y="356.471797" style="stroke: #000000; stroke-width: 0.8"/>
      </g>
     </g>
     <g id="text_18">
      <!-- 4000 -->
      <g transform="translate(39.55 360.271016) scale(0.1 -0.1)">
       <use xlink:href="#DejaVuSans-34"/>
       <use xlink:href="#DejaVuSans-30" x="63.623047"/>
       <use xlink:href="#DejaVuSans-30" x="127.246094"/>
       <use xlink:href="#DejaVuSans-30" x="190.869141"/>
      </g>
     </g>
    </g>
    <g id="ytick_9">
     <g id="line2d_19">
      <g>
       <use xlink:href="#mb209a2812d" x="72" y="321.118569" style="stroke: #000000; stroke-width: 0.8"/>
      </g>
     </g>
     <g id="text_19">
      <!-- 5000 -->
      <g transform="translate(39.55 324.917788) scale(0.1 -0.1)">
       <use xlink:href="#DejaVuSans-35"/>
       <use xlink:href="#DejaVuSans-30" x="63.623047"/>
       <use xlink:href="#DejaVuSans-30" x="127.246094"/>
       <use xlink:href="#DejaVuSans-30" x="190.869141"/>
      </g>
     </g>
    </g>
    <g id="ytick_10">
     <g id="line2d_20">
      <g>
       <use xlink:href="#mb209a2812d" x="72" y="285.765342" style="stroke: #000000; stroke-width: 0.8"/>
      </g>
     </g>
     <g id="text_20">
      <!-- 6000 -->
      <g transform="translate(39.55 289.56456) scale(0.1 -0.1)">
       <use xlink:href="#DejaVuSans-36"/>
       <use xlink:href="#DejaVuSans-30" x="63.623047"/>
       <use xlink:href="#DejaVuSans-30" x="127.246094"/>
       <use xlink:href="#DejaVuSans-30" x="190.869141"/>
      </g>
     </g>
    </g>
    <g id="ytick_11">
     <g id="line2d_21">
      <g>
       <use xlink:href="#mb209a2812d" x="72" y="250.412114" style="stroke: #000000; stroke-width: 0.8"/>
      </g>
     </g>
     <g id="text_21">
      <!-- 7000 -->
      <g transform="translate(39.55 254.211332) scale(0.1 -0.1)">
       <use xlink:href="#DejaVuSans-37"/>
       <use xlink:href="#DejaVuSans-30" x="63.623047"/>
       <use xlink:href="#DejaVuSans-30" x="127.246094"/>
       <use xlink:href="#DejaVuSans-30" x="190.869141"/>
      </g>
     </g>
    </g>
    <g id="text_22">
     <!-- Incident Velocity (m/s) -->
     <g transform="translate(33.470312 368.183363) rotate(-90) scale(0.1 -0.1)">
      <defs>
       <path id="DejaVuSans-49" d="M 628 4666 
L 1259 4666 
L 1259 0 
L 628 0 
L 628 4666 
z
" transform="scale(0.015625)"/>
       <path id="DejaVuSans-6e" d="M 3513 2113 
L 3513 0 
L 2938 0 
L 2938 2094 
Q 2938 2591 2744 2837 
Q 2550 3084 2163 3084 
Q 1697 3084 1428 2787 
Q 1159 2491 1159 1978 
L 1159 0 
L 581 0 
L 581 3500 
L 1159 3500 
L 1159 2956 
Q 1366 3272 1645 3428 
Q 1925 3584 2291 3584 
Q 2894 3584 3203 3211 
Q 3513 2838 3513 2113 
z
" transform="scale(0.015625)"/>
       <path id="DejaVuSans-63" d="M 3122 3366 
L 3122 2828 
Q 2878 2963 2633 3030 
Q 2388 3097 2138 3097 
Q 1578 3097 1268 2742 
Q 959 2388 959 1747 
Q 959 1106 1268 751 
Q 1578 397 2138 397 
Q 2388 397 2633 464 
Q 2878 531 3122 666 
L 3122 134 
Q 2881 22 2623 -34 
Q 2366 -91 2075 -91 
Q 1284 -91 818 406 
Q 353 903 353 1747 
Q 353 2603 823 3093 
Q 1294 3584 2113 3584 
Q 2378 3584 2631 3529 
Q 2884 3475 3122 3366 
z
" transform="scale(0.015625)"/>
       <path id="DejaVuSans-69" d="M 603 3500 
L 1178 3500 
L 1178 0 
L 603 0 
L 603 3500 
z
M 603 4863 
L 1178 4863 
L 1178 4134 
L 603 4134 
L 603 4863 
z
" transform="scale(0.015625)"/>
       <path id="DejaVuSans-64" d="M 2906 2969 
L 2906 4863 
L 3481 4863 
L 3481 0 
L 2906 0 
L 2906 525 
Q 2725 213 2448 61 
Q 2172 -91 1784 -91 
Q 1150 -91 751 415 
Q 353 922 353 1747 
Q 353 2572 751 3078 
Q 1150 3584 1784 3584 
Q 2172 3584 2448 3432 
Q 2725 3281 2906 2969 
z
M 947 1747 
Q 947 1113 1208 752 
Q 1469 391 1925 391 
Q 2381 391 2643 752 
Q 2906 1113 2906 1747 
Q 2906 2381 2643 2742 
Q 2381 3103 1925 3103 
Q 1469 3103 1208 2742 
Q 947 2381 947 1747 
z
" transform="scale(0.015625)"/>
       <path id="DejaVuSans-56" d="M 1831 0 
L 50 4666 
L 709 4666 
L 2188 738 
L 3669 4666 
L 4325 4666 
L 2547 0 
L 1831 0 
z
" transform="scale(0.015625)"/>
       <path id="DejaVuSans-79" d="M 2059 -325 
Q 1816 -950 1584 -1140 
Q 1353 -1331 966 -1331 
L 506 -1331 
L 506 -850 
L 844 -850 
Q 1081 -850 1212 -737 
Q 1344 -625 1503 -206 
L 1606 56 
L 191 3500 
L 800 3500 
L 1894 763 
L 2988 3500 
L 3597 3500 
L 2059 -325 
z
" transform="scale(0.015625)"/>
       <path id="DejaVuSans-2f" d="M 1625 4666 
L 2156 4666 
L 531 -594 
L 0 -594 
L 1625 4666 
z
" transform="scale(0.015625)"/>
       <path id="DejaVuSans-73" d="M 2834 3397 
L 2834 2853 
Q 2591 2978 2328 3040 
Q 2066 3103 1784 3103 
Q 1356 3103 1142 2972 
Q 928 2841 928 2578 
Q 928 2378 1081 2264 
Q 1234 2150 1697 2047 
L 1894 2003 
Q 2506 1872 2764 1633 
Q 3022 1394 3022 966 
Q 3022 478 2636 193 
Q 2250 -91 1575 -91 
Q 1294 -91 989 -36 
Q 684 19 347 128 
L 347 722 
Q 666 556 975 473 
Q 1284 391 1588 391 
Q 1994 391 2212 530 
Q 2431 669 2431 922 
Q 2431 1156 2273 1281 
Q 2116 1406 1581 1522 
L 1381 1569 
Q 847 1681 609 1914 
Q 372 2147 372 2553 
Q 372 3047 722 3315 
Q 1072 3584 1716 3584 
Q 2034 3584 2315 3537 
Q 2597 3491 2834 3397 
z
" transform="scale(0.015625)"/>
      </defs>
      <use xlink:href="#DejaVuSans-49"/>
      <use xlink:href="#DejaVuSans-6e" x="29.492188"/>
      <use xlink:href="#DejaVuSans-63" x="92.871094"/>
      <use xlink:href="#DejaVuSans-69" x="147.851562"/>
      <use xlink:href="#DejaVuSans-64" x="175.634766"/>
      <use xlink:href="#DejaVuSans-65" x="239.111328"/>
      <use xlink:href="#DejaVuSans-6e" x="300.634766"/>
      <use xlink:href="#DejaVuSans-74" x="364.013672"/>
      <use xlink:href="#DejaVuSans-20" x="403.222656"/>
      <use xlink:href="#DejaVuSans-56" x="435.009766"/>
      <use xlink:href="#DejaVuSans-65" x="495.667969"/>
      <use xlink:href="#DejaVuSans-6c" x="557.191406"/>
      <use xlink:href="#DejaVuSans-6f" x="584.974609"/>
      <use xlink:href="#DejaVuSans-63" x="646.15625"/>
      <use xlink:href="#DejaVuSans-69" x="701.136719"/>
      <use xlink:href="#DejaVuSans-74" x="728.919922"/>
      <use xlink:href="#DejaVuSans-79" x="768.128906"/>
      <use xlink:href="#DejaVuSans-20" x="827.308594"/>
      <use xlink:href="#DejaVuSans-28" x="859.095703"/>
      <use xlink:href="#DejaVuSans-6d" x="898.109375"/>
      <use xlink:href="#DejaVuSans-2f" x="995.521484"/>
      <use xlink:href="#DejaVuSans-73" x="1029.212891"/>
      <use xlink:href="#DejaVuSans-29" x="1081.3125"/>
     </g>
    </g>
   </g>
   <g id="line2d_22">
    <path d="M 183.6 299.825127 
L 183.6 266.815196 
" clip-path="url(#p3b968d5573)" style="fill: none; stroke: #4c4c4c; stroke-width: 1.875; stroke-linecap: square"/>
   </g>
   <g id="line2d_23">
    <path d="M 183.6 288.821817 
L 183.6 277.818507 
" clip-path="url(#p3b968d5573)" style="fill: none; stroke: #4c4c4c; stroke-width: 5.625; stroke-linecap: square"/>
   </g>
   <g id="line2d_24">
    <path d="M 183.6 277.818507 
" clip-path="url(#p3b968d5573)" style="fill: none; stroke: #4c4c4c; stroke-width: 1.5; stroke-linecap: square"/>
    <g clip-path="url(#p3b968d5573)">
     <use xlink:href="#md49be716a6" x="183.6" y="277.818507" style="fill: #ffffff; stroke: #ffffff; stroke-width: 1.125"/>
    </g>
   </g>
   <g id="line2d_25">
    <path d="M 406.8 354.841677 
L 406.8 266.815196 
" clip-path="url(#p3b968d5573)" style="fill: none; stroke: #4c4c4c; stroke-width: 1.875; stroke-linecap: square"/>
   </g>
   <g id="line2d_26">
    <path d="M 406.8 321.831747 
L 406.8 299.825127 
" clip-path="url(#p3b968d5573)" style="fill: none; stroke: #4c4c4c; stroke-width: 5.625; stroke-linecap: square"/>
   </g>
   <g id="line2d_27">
    <path d="M 406.8 310.828437 
" clip-path="url(#p3b968d5573)" style="fill: none; stroke: #4c4c4c; stroke-width: 1.5; stroke-linecap: square"/>
    <g clip-path="url(#p3b968d5573)">
     <use xlink:href="#md49be716a6" x="406.8" y="310.828437" style="fill: #ffffff; stroke: #ffffff; stroke-width: 1.125"/>
    </g>
   </g>
   <g id="patch_8">
    <path d="M 72 384.48 
L 72 239.853913 
" style="fill: none; stroke: #000000; stroke-width: 0.8; stroke-linejoin: miter; stroke-linecap: square"/>
   </g>
   <g id="patch_9">
    <path d="M 518.4 384.48 
L 518.4 239.853913 
" style="fill: none; stroke: #000000; stroke-width: 0.8; stroke-linejoin: miter; stroke-linecap: square"/>
   </g>
   <g id="patch_10">
    <path d="M 72 384.48 
L 518.4 384.48 
" style="fill: none; stroke: #000000; stroke-width: 0.8; stroke-linejoin: miter; stroke-linecap: square"/>
   </g>
   <g id="patch_11">
    <path d="M 72 239.853913 
L 518.4 239.853913 
" style="fill: none; stroke: #000000; stroke-width: 0.8; stroke-linejoin: miter; stroke-linecap: square"/>
   </g>
   <g id="text_23">
    <!-- 6.08e+03 -->
    <g transform="translate(145.975 308.683665) scale(0.14 -0.14)">
     <defs>
      <path id="DejaVuSans-Bold-38" d="M 2228 2088 
Q 1891 2088 1709 1903 
Q 1528 1719 1528 1375 
Q 1528 1031 1709 848 
Q 1891 666 2228 666 
Q 2563 666 2741 848 
Q 2919 1031 2919 1375 
Q 2919 1722 2741 1905 
Q 2563 2088 2228 2088 
z
M 1350 2484 
Q 925 2613 709 2878 
Q 494 3144 494 3541 
Q 494 4131 934 4440 
Q 1375 4750 2228 4750 
Q 3075 4750 3515 4442 
Q 3956 4134 3956 3541 
Q 3956 3144 3739 2878 
Q 3522 2613 3097 2484 
Q 3572 2353 3814 2058 
Q 4056 1763 4056 1313 
Q 4056 619 3595 264 
Q 3134 -91 2228 -91 
Q 1319 -91 855 264 
Q 391 619 391 1313 
Q 391 1763 633 2058 
Q 875 2353 1350 2484 
z
M 1631 3419 
Q 1631 3141 1786 2991 
Q 1941 2841 2228 2841 
Q 2509 2841 2662 2991 
Q 2816 3141 2816 3419 
Q 2816 3697 2662 3845 
Q 2509 3994 2228 3994 
Q 1941 3994 1786 3844 
Q 1631 3694 1631 3419 
z
" transform="scale(0.015625)"/>
      <path id="DejaVuSans-Bold-33" d="M 2981 2516 
Q 3453 2394 3698 2092 
Q 3944 1791 3944 1325 
Q 3944 631 3412 270 
Q 2881 -91 1863 -91 
Q 1503 -91 1142 -33 
Q 781 25 428 141 
L 428 1069 
Q 766 900 1098 814 
Q 1431 728 1753 728 
Q 2231 728 2486 893 
Q 2741 1059 2741 1369 
Q 2741 1688 2480 1852 
Q 2219 2016 1709 2016 
L 1228 2016 
L 1228 2791 
L 1734 2791 
Q 2188 2791 2409 2933 
Q 2631 3075 2631 3366 
Q 2631 3634 2415 3781 
Q 2200 3928 1806 3928 
Q 1516 3928 1219 3862 
Q 922 3797 628 3669 
L 628 4550 
Q 984 4650 1334 4700 
Q 1684 4750 2022 4750 
Q 2931 4750 3382 4451 
Q 3834 4153 3834 3553 
Q 3834 3144 3618 2883 
Q 3403 2622 2981 2516 
z
" transform="scale(0.015625)"/>
     </defs>
     <use xlink:href="#DejaVuSans-Bold-36"/>
     <use xlink:href="#DejaVuSans-Bold-2e" x="69.580078"/>
     <use xlink:href="#DejaVuSans-Bold-30" x="107.568359"/>
     <use xlink:href="#DejaVuSans-Bold-38" x="177.148438"/>
     <use xlink:href="#DejaVuSans-Bold-65" x="246.728516"/>
     <use xlink:href="#DejaVuSans-Bold-2b" x="314.550781"/>
     <use xlink:href="#DejaVuSans-Bold-30" x="398.339844"/>
     <use xlink:href="#DejaVuSans-Bold-33" x="467.919922"/>
    </g>
   </g>
   <g id="text_24">
    <!-- 5.19e+03 -->
    <g transform="translate(369.175 336.332951) scale(0.14 -0.14)">
     <defs>
      <path id="DejaVuSans-Bold-39" d="M 641 103 
L 641 966 
Q 928 831 1190 764 
Q 1453 697 1709 697 
Q 2247 697 2547 995 
Q 2847 1294 2900 1881 
Q 2688 1725 2447 1647 
Q 2206 1569 1925 1569 
Q 1209 1569 770 1986 
Q 331 2403 331 3084 
Q 331 3838 820 4291 
Q 1309 4744 2131 4744 
Q 3044 4744 3544 4128 
Q 4044 3513 4044 2388 
Q 4044 1231 3459 570 
Q 2875 -91 1856 -91 
Q 1528 -91 1228 -42 
Q 928 6 641 103 
z
M 2125 2350 
Q 2441 2350 2600 2554 
Q 2759 2759 2759 3169 
Q 2759 3575 2600 3781 
Q 2441 3988 2125 3988 
Q 1809 3988 1650 3781 
Q 1491 3575 1491 3169 
Q 1491 2759 1650 2554 
Q 1809 2350 2125 2350 
z
" transform="scale(0.015625)"/>
     </defs>
     <use xlink:href="#DejaVuSans-Bold-35"/>
     <use xlink:href="#DejaVuSans-Bold-2e" x="69.580078"/>
     <use xlink:href="#DejaVuSans-Bold-31" x="107.568359"/>
     <use xlink:href="#DejaVuSans-Bold-39" x="177.148438"/>
     <use xlink:href="#DejaVuSans-Bold-65" x="246.728516"/>
     <use xlink:href="#DejaVuSans-Bold-2b" x="314.550781"/>
     <use xlink:href="#DejaVuSans-Bold-30" x="398.339844"/>
     <use xlink:href="#DejaVuSans-Bold-33" x="467.919922"/>
    </g>
   </g>
   <g id="text_25">
    <path d="M 498.621797 362.830618 
Q 498.621797 361.344681 498.010078 360.498587 
Q 497.398359 359.652493 496.329609 359.652493 
Q 495.258516 359.652493 494.646797 360.498587 
Q 494.035078 361.344681 494.035078 362.830618 
Q 494.035078 364.316556 494.646797 365.162649 
Q 495.258516 366.008743 496.329609 366.008743 
Q 497.398359 366.008743 498.010078 365.162649 
Q 498.621797 364.316556 498.621797 362.830618 
z
M 494.035078 359.966556 
Q 494.461641 359.235306 495.108516 358.881399 
Q 495.757734 358.525149 496.657734 358.525149 
Q 498.153047 358.525149 499.085859 359.711087 
Q 500.021016 360.897024 500.021016 362.830618 
Q 500.021016 364.764212 499.085859 365.952493 
Q 498.153047 367.138431 496.657734 367.138431 
Q 495.757734 367.138431 495.108516 366.782181 
Q 494.461641 366.425931 494.035078 365.694681 
L 494.035078 366.925149 
L 492.680391 366.925149 
L 492.680391 355.527493 
L 494.035078 355.527493 
L 494.035078 359.966556 
z
" style="stroke: #ffffff; stroke-width: 0.75"/>
    <path d="M 498.621797 362.830618 
Q 498.621797 361.344681 498.010078 360.498587 
Q 497.398359 359.652493 496.329609 359.652493 
Q 495.258516 359.652493 494.646797 360.498587 
Q 494.035078 361.344681 494.035078 362.830618 
Q 494.035078 364.316556 494.646797 365.162649 
Q 495.258516 366.008743 496.329609 366.008743 
Q 497.398359 366.008743 498.010078 365.162649 
Q 498.621797 364.316556 498.621797 362.830618 
z
M 494.035078 359.966556 
Q 494.461641 359.235306 495.108516 358.881399 
Q 495.757734 358.525149 496.657734 358.525149 
Q 498.153047 358.525149 499.085859 359.711087 
Q 500.021016 360.897024 500.021016 362.830618 
Q 500.021016 364.764212 499.085859 365.952493 
Q 498.153047 367.138431 496.657734 367.138431 
Q 495.757734 367.138431 495.108516 366.782181 
Q 494.461641 366.425931 494.035078 365.694681 
L 494.035078 366.925149 
L 492.680391 366.925149 
L 492.680391 355.527493 
L 494.035078 355.527493 
L 494.035078 359.966556 
z
"/>
   </g>
  </g>
 </g>
 <defs>
  <clipPath id="p80fc0f3483">
   <rect x="72" y="51.84" width="446.4" height="144.626087"/>
  </clipPath>
  <clipPath id="p3b968d5573">
   <rect x="72" y="239.853913" width="446.4" height="144.626087"/>
  </clipPath>
 </defs>
</svg>
