<?xml version="1.0" encoding="utf-8" standalone="no"?>
<!DOCTYPE svg PUBLIC "-//W3C//DTD SVG 1.1//EN"
  "http://www.w3.org/Graphics/SVG/1.1/DTD/svg11.dtd">
<svg xmlns:xlink="http://www.w3.org/1999/xlink" width="576pt" height="252pt" viewBox="0 0 576 252" xmlns="http://www.w3.org/2000/svg" version="1.1">
 <metadata>
  <rdf:RDF xmlns:dc="http://purl.org/dc/elements/1.1/" xmlns:cc="http://creativecommons.org/ns#" xmlns:rdf="http://www.w3.org/1999/02/22-rdf-syntax-ns#">
   <cc:Work>
    <dc:type rdf:resource="http://purl.org/dc/dcmitype/StillImage"/>
    <dc:date>2024-10-25T10:39:24.859383</dc:date>
    <dc:format>image/svg+xml</dc:format>
    <dc:creator>
     <cc:Agent>
      <dc:title>Matplotlib v3.8.3, https://matplotlib.org/</dc:title>
     </cc:Agent>
    </dc:creator>
   </cc:Work>
  </rdf:RDF>
 </metadata>
 <defs>
  <style type="text/css">*{stroke-linejoin: round; stroke-linecap: butt}</style>
 </defs>
 <g id="figure_1">
  <g id="patch_1">
   <path d="M 0 252 
L 576 252 
L 576 0 
L 0 0 
z
" style="fill: #ffffff"/>
  </g>
  <g id="axes_1">
   <g id="patch_2">
    <path d="M 51.086844 213.54 
L 565.2 213.54 
L 565.2 26.88 
L 51.086844 26.88 
z
" style="fill: #ffffff"/>
   </g>
   <g id="matplotlib.axis_1">
    <g id="xtick_1">
     <g id="line2d_1">
      <defs>
       <path id="m465a107627" d="M 0 0 
L 0 -3.5 
" style="stroke: #000000; stroke-width: 0.8"/>
      </defs>
      <g>
       <use xlink:href="#m465a107627" x="65.775792" y="213.54" style="stroke: #000000; stroke-width: 0.8"/>
      </g>
     </g>
     <g id="line2d_2">
      <defs>
       <path id="m9567ebd94a" d="M 0 0 
L 0 3.5 
" style="stroke: #000000; stroke-width: 0.8"/>
      </defs>
      <g>
       <use xlink:href="#m9567ebd94a" x="65.775792" y="26.88" style="stroke: #000000; stroke-width: 0.8"/>
      </g>
     </g>
     <g id="text_1">
      <!-- 43 -->
      <g transform="translate(59.413292 224.638438) scale(0.1 -0.1)">
       <defs>
        <path id="DejaVuSans-34" d="M 2419 4116 
L 825 1625 
L 2419 1625 
L 2419 4116 
z
M 2253 4666 
L 3047 4666 
L 3047 1625 
L 3713 1625 
L 3713 1100 
L 3047 1100 
L 3047 0 
L 2419 0 
L 2419 1100 
L 313 1100 
L 313 1709 
L 2253 4666 
z
" transform="scale(0.015625)"/>
        <path id="DejaVuSans-33" d="M 2597 2516 
Q 3050 2419 3304 2112 
Q 3559 1806 3559 1356 
Q 3559 666 3084 287 
Q 2609 -91 1734 -91 
Q 1441 -91 1130 -33 
Q 819 25 488 141 
L 488 750 
Q 750 597 1062 519 
Q 1375 441 1716 441 
Q 2309 441 2620 675 
Q 2931 909 2931 1356 
Q 2931 1769 2642 2001 
Q 2353 2234 1838 2234 
L 1294 2234 
L 1294 2753 
L 1863 2753 
Q 2328 2753 2575 2939 
Q 2822 3125 2822 3475 
Q 2822 3834 2567 4026 
Q 2313 4219 1838 4219 
Q 1578 4219 1281 4162 
Q 984 4106 628 3988 
L 628 4550 
Q 988 4650 1302 4700 
Q 1616 4750 1894 4750 
Q 2613 4750 3031 4423 
Q 3450 4097 3450 3541 
Q 3450 3153 3228 2886 
Q 3006 2619 2597 2516 
z
" transform="scale(0.015625)"/>
       </defs>
       <use xlink:href="#DejaVuSans-34"/>
       <use xlink:href="#DejaVuSans-33" x="63.623047"/>
      </g>
     </g>
    </g>
    <g id="xtick_2">
     <g id="line2d_3">
      <g>
       <use xlink:href="#m465a107627" x="139.220528" y="213.54" style="stroke: #000000; stroke-width: 0.8"/>
      </g>
     </g>
     <g id="line2d_4">
      <g>
       <use xlink:href="#m9567ebd94a" x="139.220528" y="26.88" style="stroke: #000000; stroke-width: 0.8"/>
      </g>
     </g>
     <g id="text_2">
      <!-- 44 -->
      <g transform="translate(132.858028 224.638438) scale(0.1 -0.1)">
       <use xlink:href="#DejaVuSans-34"/>
       <use xlink:href="#DejaVuSans-34" x="63.623047"/>
      </g>
     </g>
    </g>
    <g id="xtick_3">
     <g id="line2d_5">
      <g>
       <use xlink:href="#m465a107627" x="212.665265" y="213.54" style="stroke: #000000; stroke-width: 0.8"/>
      </g>
     </g>
     <g id="line2d_6">
      <g>
       <use xlink:href="#m9567ebd94a" x="212.665265" y="26.88" style="stroke: #000000; stroke-width: 0.8"/>
      </g>
     </g>
     <g id="text_3">
      <!-- 45 -->
      <g transform="translate(206.302765 224.638438) scale(0.1 -0.1)">
       <defs>
        <path id="DejaVuSans-35" d="M 691 4666 
L 3169 4666 
L 3169 4134 
L 1269 4134 
L 1269 2991 
Q 1406 3038 1543 3061 
Q 1681 3084 1819 3084 
Q 2600 3084 3056 2656 
Q 3513 2228 3513 1497 
Q 3513 744 3044 326 
Q 2575 -91 1722 -91 
Q 1428 -91 1123 -41 
Q 819 9 494 109 
L 494 744 
Q 775 591 1075 516 
Q 1375 441 1709 441 
Q 2250 441 2565 725 
Q 2881 1009 2881 1497 
Q 2881 1984 2565 2268 
Q 2250 2553 1709 2553 
Q 1456 2553 1204 2497 
Q 953 2441 691 2322 
L 691 4666 
z
" transform="scale(0.015625)"/>
       </defs>
       <use xlink:href="#DejaVuSans-34"/>
       <use xlink:href="#DejaVuSans-35" x="63.623047"/>
      </g>
     </g>
    </g>
    <g id="xtick_4">
     <g id="line2d_7">
      <g>
       <use xlink:href="#m465a107627" x="286.110001" y="213.54" style="stroke: #000000; stroke-width: 0.8"/>
      </g>
     </g>
     <g id="line2d_8">
      <g>
       <use xlink:href="#m9567ebd94a" x="286.110001" y="26.88" style="stroke: #000000; stroke-width: 0.8"/>
      </g>
     </g>
     <g id="text_4">
      <!-- 46 -->
      <g transform="translate(279.747501 224.638438) scale(0.1 -0.1)">
       <defs>
        <path id="DejaVuSans-36" d="M 2113 2584 
Q 1688 2584 1439 2293 
Q 1191 2003 1191 1497 
Q 1191 994 1439 701 
Q 1688 409 2113 409 
Q 2538 409 2786 701 
Q 3034 994 3034 1497 
Q 3034 2003 2786 2293 
Q 2538 2584 2113 2584 
z
M 3366 4563 
L 3366 3988 
Q 3128 4100 2886 4159 
Q 2644 4219 2406 4219 
Q 1781 4219 1451 3797 
Q 1122 3375 1075 2522 
Q 1259 2794 1537 2939 
Q 1816 3084 2150 3084 
Q 2853 3084 3261 2657 
Q 3669 2231 3669 1497 
Q 3669 778 3244 343 
Q 2819 -91 2113 -91 
Q 1303 -91 875 529 
Q 447 1150 447 2328 
Q 447 3434 972 4092 
Q 1497 4750 2381 4750 
Q 2619 4750 2861 4703 
Q 3103 4656 3366 4563 
z
" transform="scale(0.015625)"/>
       </defs>
       <use xlink:href="#DejaVuSans-34"/>
       <use xlink:href="#DejaVuSans-36" x="63.623047"/>
      </g>
     </g>
    </g>
    <g id="xtick_5">
     <g id="line2d_9">
      <g>
       <use xlink:href="#m465a107627" x="359.554738" y="213.54" style="stroke: #000000; stroke-width: 0.8"/>
      </g>
     </g>
     <g id="line2d_10">
      <g>
       <use xlink:href="#m9567ebd94a" x="359.554738" y="26.88" style="stroke: #000000; stroke-width: 0.8"/>
      </g>
     </g>
     <g id="text_5">
      <!-- 47 -->
      <g transform="translate(353.192238 224.638438) scale(0.1 -0.1)">
       <defs>
        <path id="DejaVuSans-37" d="M 525 4666 
L 3525 4666 
L 3525 4397 
L 1831 0 
L 1172 0 
L 2766 4134 
L 525 4134 
L 525 4666 
z
" transform="scale(0.015625)"/>
       </defs>
       <use xlink:href="#DejaVuSans-34"/>
       <use xlink:href="#DejaVuSans-37" x="63.623047"/>
      </g>
     </g>
    </g>
    <g id="xtick_6">
     <g id="line2d_11">
      <g>
       <use xlink:href="#m465a107627" x="432.999474" y="213.54" style="stroke: #000000; stroke-width: 0.8"/>
      </g>
     </g>
     <g id="line2d_12">
      <g>
       <use xlink:href="#m9567ebd94a" x="432.999474" y="26.88" style="stroke: #000000; stroke-width: 0.8"/>
      </g>
     </g>
     <g id="text_6">
      <!-- 48 -->
      <g transform="translate(426.636974 224.638438) scale(0.1 -0.1)">
       <defs>
        <path id="DejaVuSans-38" d="M 2034 2216 
Q 1584 2216 1326 1975 
Q 1069 1734 1069 1313 
Q 1069 891 1326 650 
Q 1584 409 2034 409 
Q 2484 409 2743 651 
Q 3003 894 3003 1313 
Q 3003 1734 2745 1975 
Q 2488 2216 2034 2216 
z
M 1403 2484 
Q 997 2584 770 2862 
Q 544 3141 544 3541 
Q 544 4100 942 4425 
Q 1341 4750 2034 4750 
Q 2731 4750 3128 4425 
Q 3525 4100 3525 3541 
Q 3525 3141 3298 2862 
Q 3072 2584 2669 2484 
Q 3125 2378 3379 2068 
Q 3634 1759 3634 1313 
Q 3634 634 3220 271 
Q 2806 -91 2034 -91 
Q 1263 -91 848 271 
Q 434 634 434 1313 
Q 434 1759 690 2068 
Q 947 2378 1403 2484 
z
M 1172 3481 
Q 1172 3119 1398 2916 
Q 1625 2713 2034 2713 
Q 2441 2713 2670 2916 
Q 2900 3119 2900 3481 
Q 2900 3844 2670 4047 
Q 2441 4250 2034 4250 
Q 1625 4250 1398 4047 
Q 1172 3844 1172 3481 
z
" transform="scale(0.015625)"/>
       </defs>
       <use xlink:href="#DejaVuSans-34"/>
       <use xlink:href="#DejaVuSans-38" x="63.623047"/>
      </g>
     </g>
    </g>
    <g id="xtick_7">
     <g id="line2d_13">
      <g>
       <use xlink:href="#m465a107627" x="506.444211" y="213.54" style="stroke: #000000; stroke-width: 0.8"/>
      </g>
     </g>
     <g id="line2d_14">
      <g>
       <use xlink:href="#m9567ebd94a" x="506.444211" y="26.88" style="stroke: #000000; stroke-width: 0.8"/>
      </g>
     </g>
     <g id="text_7">
      <!-- 49 -->
      <g transform="translate(500.081711 224.638438) scale(0.1 -0.1)">
       <defs>
        <path id="DejaVuSans-39" d="M 703 97 
L 703 672 
Q 941 559 1184 500 
Q 1428 441 1663 441 
Q 2288 441 2617 861 
Q 2947 1281 2994 2138 
Q 2813 1869 2534 1725 
Q 2256 1581 1919 1581 
Q 1219 1581 811 2004 
Q 403 2428 403 3163 
Q 403 3881 828 4315 
Q 1253 4750 1959 4750 
Q 2769 4750 3195 4129 
Q 3622 3509 3622 2328 
Q 3622 1225 3098 567 
Q 2575 -91 1691 -91 
Q 1453 -91 1209 -44 
Q 966 3 703 97 
z
M 1959 2075 
Q 2384 2075 2632 2365 
Q 2881 2656 2881 3163 
Q 2881 3666 2632 3958 
Q 2384 4250 1959 4250 
Q 1534 4250 1286 3958 
Q 1038 3666 1038 3163 
Q 1038 2656 1286 2365 
Q 1534 2075 1959 2075 
z
" transform="scale(0.015625)"/>
       </defs>
       <use xlink:href="#DejaVuSans-34"/>
       <use xlink:href="#DejaVuSans-39" x="63.623047"/>
      </g>
     </g>
    </g>
    <g id="text_8">
     <!-- 2$\Theta$ -->
     <g transform="translate(300.993422 238.316563) scale(0.1 -0.1)">
      <defs>
       <path id="DejaVuSans-32" d="M 1228 531 
L 3431 531 
L 3431 0 
L 469 0 
L 469 531 
Q 828 903 1448 1529 
Q 2069 2156 2228 2338 
Q 2531 2678 2651 2914 
Q 2772 3150 2772 3378 
Q 2772 3750 2511 3984 
Q 2250 4219 1831 4219 
Q 1534 4219 1204 4116 
Q 875 4013 500 3803 
L 500 4441 
Q 881 4594 1212 4672 
Q 1544 4750 1819 4750 
Q 2544 4750 2975 4387 
Q 3406 4025 3406 3419 
Q 3406 3131 3298 2873 
Q 3191 2616 2906 2266 
Q 2828 2175 2409 1742 
Q 1991 1309 1228 531 
z
" transform="scale(0.015625)"/>
       <path id="DejaVuSans-398" d="M 1416 2750 
L 3622 2750 
L 3622 2219 
L 1416 2219 
L 1416 2750 
z
M 2522 4238 
Q 1834 4238 1431 3725 
Q 1025 3213 1025 2328 
Q 1025 1447 1429 934 
Q 1834 422 2522 422 
Q 3209 422 3613 934 
Q 4013 1447 4013 2328 
Q 4013 3213 3613 3725 
Q 3209 4238 2522 4238 
z
M 2522 4750 
Q 3503 4750 4090 4092 
Q 4678 3434 4678 2328 
Q 4678 1225 4091 569 
Q 3503 -91 2522 -91 
Q 1538 -91 950 566 
Q 359 1222 359 2328 
Q 359 3434 950 4094 
Q 1538 4750 2522 4750 
z
" transform="scale(0.015625)"/>
      </defs>
      <use xlink:href="#DejaVuSans-32" transform="translate(0 0.78125)"/>
      <use xlink:href="#DejaVuSans-398" transform="translate(63.623047 0.78125)"/>
     </g>
    </g>
   </g>
   <g id="matplotlib.axis_2">
    <g id="ytick_1">
     <g id="line2d_15">
      <defs>
       <path id="m484953be35" d="M 0 0 
L 3.5 0 
" style="stroke: #000000; stroke-width: 0.8"/>
      </defs>
      <g>
       <use xlink:href="#m484953be35" x="51.086844" y="213.54" style="stroke: #000000; stroke-width: 0.8"/>
      </g>
     </g>
     <g id="line2d_16">
      <defs>
       <path id="mfd632dc7a0" d="M 0 0 
L -3.5 0 
" style="stroke: #000000; stroke-width: 0.8"/>
      </defs>
      <g>
       <use xlink:href="#mfd632dc7a0" x="565.2" y="213.54" style="stroke: #000000; stroke-width: 0.8"/>
      </g>
     </g>
     <g id="text_9">
      <!-- $\mathdefault{10^{0}}$ -->
      <g transform="translate(29.986844 217.339219) scale(0.1 -0.1)">
       <defs>
        <path id="DejaVuSans-31" d="M 794 531 
L 1825 531 
L 1825 4091 
L 703 3866 
L 703 4441 
L 1819 4666 
L 2450 4666 
L 2450 531 
L 3481 531 
L 3481 0 
L 794 0 
L 794 531 
z
" transform="scale(0.015625)"/>
        <path id="DejaVuSans-30" d="M 2034 4250 
Q 1547 4250 1301 3770 
Q 1056 3291 1056 2328 
Q 1056 1369 1301 889 
Q 1547 409 2034 409 
Q 2525 409 2770 889 
Q 3016 1369 3016 2328 
Q 3016 3291 2770 3770 
Q 2525 4250 2034 4250 
z
M 2034 4750 
Q 2819 4750 3233 4129 
Q 3647 3509 3647 2328 
Q 3647 1150 3233 529 
Q 2819 -91 2034 -91 
Q 1250 -91 836 529 
Q 422 1150 422 2328 
Q 422 3509 836 4129 
Q 1250 4750 2034 4750 
z
" transform="scale(0.015625)"/>
       </defs>
       <use xlink:href="#DejaVuSans-31" transform="translate(0 0.765625)"/>
       <use xlink:href="#DejaVuSans-30" transform="translate(63.623047 0.765625)"/>
       <use xlink:href="#DejaVuSans-30" transform="translate(128.203125 39.046875) scale(0.7)"/>
      </g>
     </g>
    </g>
    <g id="ytick_2">
     <g id="line2d_17">
      <g>
       <use xlink:href="#m484953be35" x="51.086844" y="192.8" style="stroke: #000000; stroke-width: 0.8"/>
      </g>
     </g>
     <g id="line2d_18">
      <g>
       <use xlink:href="#mfd632dc7a0" x="565.2" y="192.8" style="stroke: #000000; stroke-width: 0.8"/>
      </g>
     </g>
     <g id="text_10">
      <!-- $\mathdefault{10^{2}}$ -->
      <g transform="translate(29.986844 196.599219) scale(0.1 -0.1)">
       <use xlink:href="#DejaVuSans-31" transform="translate(0 0.765625)"/>
       <use xlink:href="#DejaVuSans-30" transform="translate(63.623047 0.765625)"/>
       <use xlink:href="#DejaVuSans-32" transform="translate(128.203125 39.046875) scale(0.7)"/>
      </g>
     </g>
    </g>
    <g id="ytick_3">
     <g id="line2d_19">
      <g>
       <use xlink:href="#m484953be35" x="51.086844" y="172.06" style="stroke: #000000; stroke-width: 0.8"/>
      </g>
     </g>
     <g id="line2d_20">
      <g>
       <use xlink:href="#mfd632dc7a0" x="565.2" y="172.06" style="stroke: #000000; stroke-width: 0.8"/>
      </g>
     </g>
     <g id="text_11">
      <!-- $\mathdefault{10^{4}}$ -->
      <g transform="translate(29.986844 175.859219) scale(0.1 -0.1)">
       <use xlink:href="#DejaVuSans-31" transform="translate(0 0.684375)"/>
       <use xlink:href="#DejaVuSans-30" transform="translate(63.623047 0.684375)"/>
       <use xlink:href="#DejaVuSans-34" transform="translate(128.203125 38.965625) scale(0.7)"/>
      </g>
     </g>
    </g>
    <g id="ytick_4">
     <g id="line2d_21">
      <g>
       <use xlink:href="#m484953be35" x="51.086844" y="151.32" style="stroke: #000000; stroke-width: 0.8"/>
      </g>
     </g>
     <g id="line2d_22">
      <g>
       <use xlink:href="#mfd632dc7a0" x="565.2" y="151.32" style="stroke: #000000; stroke-width: 0.8"/>
      </g>
     </g>
     <g id="text_12">
      <!-- $\mathdefault{10^{6}}$ -->
      <g transform="translate(29.986844 155.119219) scale(0.1 -0.1)">
       <use xlink:href="#DejaVuSans-31" transform="translate(0 0.765625)"/>
       <use xlink:href="#DejaVuSans-30" transform="translate(63.623047 0.765625)"/>
       <use xlink:href="#DejaVuSans-36" transform="translate(128.203125 39.046875) scale(0.7)"/>
      </g>
     </g>
    </g>
    <g id="ytick_5">
     <g id="line2d_23">
      <g>
       <use xlink:href="#m484953be35" x="51.086844" y="130.58" style="stroke: #000000; stroke-width: 0.8"/>
      </g>
     </g>
     <g id="line2d_24">
      <g>
       <use xlink:href="#mfd632dc7a0" x="565.2" y="130.58" style="stroke: #000000; stroke-width: 0.8"/>
      </g>
     </g>
     <g id="text_13">
      <!-- $\mathdefault{10^{8}}$ -->
      <g transform="translate(29.986844 134.379219) scale(0.1 -0.1)">
       <use xlink:href="#DejaVuSans-31" transform="translate(0 0.765625)"/>
       <use xlink:href="#DejaVuSans-30" transform="translate(63.623047 0.765625)"/>
       <use xlink:href="#DejaVuSans-38" transform="translate(128.203125 39.046875) scale(0.7)"/>
      </g>
     </g>
    </g>
    <g id="ytick_6">
     <g id="line2d_25">
      <g>
       <use xlink:href="#m484953be35" x="51.086844" y="109.84" style="stroke: #000000; stroke-width: 0.8"/>
      </g>
     </g>
     <g id="line2d_26">
      <g>
       <use xlink:href="#mfd632dc7a0" x="565.2" y="109.84" style="stroke: #000000; stroke-width: 0.8"/>
      </g>
     </g>
     <g id="text_14">
      <!-- $\mathdefault{10^{10}}$ -->
      <g transform="translate(25.486844 113.639219) scale(0.1 -0.1)">
       <use xlink:href="#DejaVuSans-31" transform="translate(0 0.765625)"/>
       <use xlink:href="#DejaVuSans-30" transform="translate(63.623047 0.765625)"/>
       <use xlink:href="#DejaVuSans-31" transform="translate(128.203125 39.046875) scale(0.7)"/>
       <use xlink:href="#DejaVuSans-30" transform="translate(172.739258 39.046875) scale(0.7)"/>
      </g>
     </g>
    </g>
    <g id="ytick_7">
     <g id="line2d_27">
      <g>
       <use xlink:href="#m484953be35" x="51.086844" y="89.1" style="stroke: #000000; stroke-width: 0.8"/>
      </g>
     </g>
     <g id="line2d_28">
      <g>
       <use xlink:href="#mfd632dc7a0" x="565.2" y="89.1" style="stroke: #000000; stroke-width: 0.8"/>
      </g>
     </g>
     <g id="text_15">
      <!-- $\mathdefault{10^{12}}$ -->
      <g transform="translate(25.486844 92.899219) scale(0.1 -0.1)">
       <use xlink:href="#DejaVuSans-31" transform="translate(0 0.765625)"/>
       <use xlink:href="#DejaVuSans-30" transform="translate(63.623047 0.765625)"/>
       <use xlink:href="#DejaVuSans-31" transform="translate(128.203125 39.046875) scale(0.7)"/>
       <use xlink:href="#DejaVuSans-32" transform="translate(172.739258 39.046875) scale(0.7)"/>
      </g>
     </g>
    </g>
    <g id="ytick_8">
     <g id="line2d_29">
      <g>
       <use xlink:href="#m484953be35" x="51.086844" y="68.36" style="stroke: #000000; stroke-width: 0.8"/>
      </g>
     </g>
     <g id="line2d_30">
      <g>
       <use xlink:href="#mfd632dc7a0" x="565.2" y="68.36" style="stroke: #000000; stroke-width: 0.8"/>
      </g>
     </g>
     <g id="text_16">
      <!-- $\mathdefault{10^{14}}$ -->
      <g transform="translate(25.486844 72.159219) scale(0.1 -0.1)">
       <use xlink:href="#DejaVuSans-31" transform="translate(0 0.684375)"/>
       <use xlink:href="#DejaVuSans-30" transform="translate(63.623047 0.684375)"/>
       <use xlink:href="#DejaVuSans-31" transform="translate(128.203125 38.965625) scale(0.7)"/>
       <use xlink:href="#DejaVuSans-34" transform="translate(172.739258 38.965625) scale(0.7)"/>
      </g>
     </g>
    </g>
    <g id="ytick_9">
     <g id="line2d_31">
      <g>
       <use xlink:href="#m484953be35" x="51.086844" y="47.62" style="stroke: #000000; stroke-width: 0.8"/>
      </g>
     </g>
     <g id="line2d_32">
      <g>
       <use xlink:href="#mfd632dc7a0" x="565.2" y="47.62" style="stroke: #000000; stroke-width: 0.8"/>
      </g>
     </g>
     <g id="text_17">
      <!-- $\mathdefault{10^{16}}$ -->
      <g transform="translate(25.486844 51.419219) scale(0.1 -0.1)">
       <use xlink:href="#DejaVuSans-31" transform="translate(0 0.765625)"/>
       <use xlink:href="#DejaVuSans-30" transform="translate(63.623047 0.765625)"/>
       <use xlink:href="#DejaVuSans-31" transform="translate(128.203125 39.046875) scale(0.7)"/>
       <use xlink:href="#DejaVuSans-36" transform="translate(172.739258 39.046875) scale(0.7)"/>
      </g>
     </g>
    </g>
    <g id="ytick_10">
     <g id="line2d_33">
      <g>
       <use xlink:href="#m484953be35" x="51.086844" y="26.88" style="stroke: #000000; stroke-width: 0.8"/>
      </g>
     </g>
     <g id="line2d_34">
      <g>
       <use xlink:href="#mfd632dc7a0" x="565.2" y="26.88" style="stroke: #000000; stroke-width: 0.8"/>
      </g>
     </g>
     <g id="text_18">
      <!-- $\mathdefault{10^{18}}$ -->
      <g transform="translate(25.486844 30.679219) scale(0.1 -0.1)">
       <use xlink:href="#DejaVuSans-31" transform="translate(0 0.765625)"/>
       <use xlink:href="#DejaVuSans-30" transform="translate(63.623047 0.765625)"/>
       <use xlink:href="#DejaVuSans-31" transform="translate(128.203125 39.046875) scale(0.7)"/>
       <use xlink:href="#DejaVuSans-38" transform="translate(172.739258 39.046875) scale(0.7)"/>
      </g>
     </g>
    </g>
    <g id="text_19">
     <!-- Intensity [a.u.] -->
     <g transform="translate(19.407157 156.874062) rotate(-90) scale(0.1 -0.1)">
      <defs>
       <path id="DejaVuSans-49" d="M 628 4666 
L 1259 4666 
L 1259 0 
L 628 0 
L 628 4666 
z
" transform="scale(0.015625)"/>
       <path id="DejaVuSans-6e" d="M 3513 2113 
L 3513 0 
L 2938 0 
L 2938 2094 
Q 2938 2591 2744 2837 
Q 2550 3084 2163 3084 
Q 1697 3084 1428 2787 
Q 1159 2491 1159 1978 
L 1159 0 
L 581 0 
L 581 3500 
L 1159 3500 
L 1159 2956 
Q 1366 3272 1645 3428 
Q 1925 3584 2291 3584 
Q 2894 3584 3203 3211 
Q 3513 2838 3513 2113 
z
" transform="scale(0.015625)"/>
       <path id="DejaVuSans-74" d="M 1172 4494 
L 1172 3500 
L 2356 3500 
L 2356 3053 
L 1172 3053 
L 1172 1153 
Q 1172 725 1289 603 
Q 1406 481 1766 481 
L 2356 481 
L 2356 0 
L 1766 0 
Q 1100 0 847 248 
Q 594 497 594 1153 
L 594 3053 
L 172 3053 
L 172 3500 
L 594 3500 
L 594 4494 
L 1172 4494 
z
" transform="scale(0.015625)"/>
       <path id="DejaVuSans-65" d="M 3597 1894 
L 3597 1613 
L 953 1613 
Q 991 1019 1311 708 
Q 1631 397 2203 397 
Q 2534 397 2845 478 
Q 3156 559 3463 722 
L 3463 178 
Q 3153 47 2828 -22 
Q 2503 -91 2169 -91 
Q 1331 -91 842 396 
Q 353 884 353 1716 
Q 353 2575 817 3079 
Q 1281 3584 2069 3584 
Q 2775 3584 3186 3129 
Q 3597 2675 3597 1894 
z
M 3022 2063 
Q 3016 2534 2758 2815 
Q 2500 3097 2075 3097 
Q 1594 3097 1305 2825 
Q 1016 2553 972 2059 
L 3022 2063 
z
" transform="scale(0.015625)"/>
       <path id="DejaVuSans-73" d="M 2834 3397 
L 2834 2853 
Q 2591 2978 2328 3040 
Q 2066 3103 1784 3103 
Q 1356 3103 1142 2972 
Q 928 2841 928 2578 
Q 928 2378 1081 2264 
Q 1234 2150 1697 2047 
L 1894 2003 
Q 2506 1872 2764 1633 
Q 3022 1394 3022 966 
Q 3022 478 2636 193 
Q 2250 -91 1575 -91 
Q 1294 -91 989 -36 
Q 684 19 347 128 
L 347 722 
Q 666 556 975 473 
Q 1284 391 1588 391 
Q 1994 391 2212 530 
Q 2431 669 2431 922 
Q 2431 1156 2273 1281 
Q 2116 1406 1581 1522 
L 1381 1569 
Q 847 1681 609 1914 
Q 372 2147 372 2553 
Q 372 3047 722 3315 
Q 1072 3584 1716 3584 
Q 2034 3584 2315 3537 
Q 2597 3491 2834 3397 
z
" transform="scale(0.015625)"/>
       <path id="DejaVuSans-69" d="M 603 3500 
L 1178 3500 
L 1178 0 
L 603 0 
L 603 3500 
z
M 603 4863 
L 1178 4863 
L 1178 4134 
L 603 4134 
L 603 4863 
z
" transform="scale(0.015625)"/>
       <path id="DejaVuSans-79" d="M 2059 -325 
Q 1816 -950 1584 -1140 
Q 1353 -1331 966 -1331 
L 506 -1331 
L 506 -850 
L 844 -850 
Q 1081 -850 1212 -737 
Q 1344 -625 1503 -206 
L 1606 56 
L 191 3500 
L 800 3500 
L 1894 763 
L 2988 3500 
L 3597 3500 
L 2059 -325 
z
" transform="scale(0.015625)"/>
       <path id="DejaVuSans-20" transform="scale(0.015625)"/>
       <path id="DejaVuSans-5b" d="M 550 4863 
L 1875 4863 
L 1875 4416 
L 1125 4416 
L 1125 -397 
L 1875 -397 
L 1875 -844 
L 550 -844 
L 550 4863 
z
" transform="scale(0.015625)"/>
       <path id="DejaVuSans-61" d="M 2194 1759 
Q 1497 1759 1228 1600 
Q 959 1441 959 1056 
Q 959 750 1161 570 
Q 1363 391 1709 391 
Q 2188 391 2477 730 
Q 2766 1069 2766 1631 
L 2766 1759 
L 2194 1759 
z
M 3341 1997 
L 3341 0 
L 2766 0 
L 2766 531 
Q 2569 213 2275 61 
Q 1981 -91 1556 -91 
Q 1019 -91 701 211 
Q 384 513 384 1019 
Q 384 1609 779 1909 
Q 1175 2209 1959 2209 
L 2766 2209 
L 2766 2266 
Q 2766 2663 2505 2880 
Q 2244 3097 1772 3097 
Q 1472 3097 1187 3025 
Q 903 2953 641 2809 
L 641 3341 
Q 956 3463 1253 3523 
Q 1550 3584 1831 3584 
Q 2591 3584 2966 3190 
Q 3341 2797 3341 1997 
z
" transform="scale(0.015625)"/>
       <path id="DejaVuSans-2e" d="M 684 794 
L 1344 794 
L 1344 0 
L 684 0 
L 684 794 
z
" transform="scale(0.015625)"/>
       <path id="DejaVuSans-75" d="M 544 1381 
L 544 3500 
L 1119 3500 
L 1119 1403 
Q 1119 906 1312 657 
Q 1506 409 1894 409 
Q 2359 409 2629 706 
Q 2900 1003 2900 1516 
L 2900 3500 
L 3475 3500 
L 3475 0 
L 2900 0 
L 2900 538 
Q 2691 219 2414 64 
Q 2138 -91 1772 -91 
Q 1169 -91 856 284 
Q 544 659 544 1381 
z
M 1991 3584 
L 1991 3584 
z
" transform="scale(0.015625)"/>
       <path id="DejaVuSans-5d" d="M 1947 4863 
L 1947 -844 
L 622 -844 
L 622 -397 
L 1369 -397 
L 1369 4416 
L 622 4416 
L 622 4863 
L 1947 4863 
z
" transform="scale(0.015625)"/>
      </defs>
      <use xlink:href="#DejaVuSans-49"/>
      <use xlink:href="#DejaVuSans-6e" x="29.492188"/>
      <use xlink:href="#DejaVuSans-74" x="92.871094"/>
      <use xlink:href="#DejaVuSans-65" x="132.080078"/>
      <use xlink:href="#DejaVuSans-6e" x="193.603516"/>
      <use xlink:href="#DejaVuSans-73" x="256.982422"/>
      <use xlink:href="#DejaVuSans-69" x="309.082031"/>
      <use xlink:href="#DejaVuSans-74" x="336.865234"/>
      <use xlink:href="#DejaVuSans-79" x="376.074219"/>
      <use xlink:href="#DejaVuSans-20" x="435.253906"/>
      <use xlink:href="#DejaVuSans-5b" x="467.041016"/>
      <use xlink:href="#DejaVuSans-61" x="506.054688"/>
      <use xlink:href="#DejaVuSans-2e" x="567.333984"/>
      <use xlink:href="#DejaVuSans-75" x="599.121094"/>
      <use xlink:href="#DejaVuSans-2e" x="662.5"/>
      <use xlink:href="#DejaVuSans-5d" x="694.287109"/>
     </g>
    </g>
   </g>
   <g id="line2d_35">
    <path d="M 69.602263 116.74361 
L 71.071157 116.292871 
L 72.540052 117.960899 
L 74.008947 116.863714 
L 75.477841 117.378977 
L 76.946736 116.512604 
L 78.415631 117.24453 
L 79.884526 116.987109 
L 81.35342 116.512604 
L 82.822315 115.883168 
L 84.29121 116.512604 
L 85.760105 117.517561 
L 87.228999 117.960899 
L 88.697894 117.517561 
L 90.166789 117.960899 
L 91.635683 116.186898 
L 93.104578 116.626626 
L 94.573473 116.292871 
L 96.042368 116.292871 
L 97.511262 115.982153 
L 98.980157 115.245226 
L 100.449052 115.982153 
L 101.917947 115.161043 
L 103.386841 115.786312 
L 104.855736 117.113981 
L 106.324631 115.883168 
L 107.793525 115.598633 
L 109.26242 116.987109 
L 110.731315 116.987109 
L 112.20021 116.186898 
L 113.669104 117.24453 
L 115.137999 116.292871 
L 116.606894 115.883168 
L 118.075789 115.161043 
L 119.544683 115.161043 
L 121.013578 115.418464 
L 122.482473 115.331012 
L 123.951368 115.982153 
L 125.420262 115.598633 
L 126.889157 115.078405 
L 128.358052 115.161043 
L 129.826946 115.598633 
L 131.295841 115.883168 
L 132.764736 114.997257 
L 134.233631 116.186898 
L 135.702525 114.839218 
L 137.17142 115.078405 
L 138.640315 114.686538 
L 140.10921 114.538865 
L 141.578104 115.418464 
L 143.046999 114.762231 
L 145.984788 114.762231 
L 147.453683 115.418464 
L 148.922578 114.686538 
L 150.391473 115.691495 
L 151.860367 114.257296 
L 153.329262 114.257296 
L 154.798157 113.9923 
L 156.267052 113.334977 
L 157.735946 114.466805 
L 159.204841 114.762231 
L 160.673736 114.326055 
L 162.142631 112.961681 
L 163.611525 113.928417 
L 165.08042 113.928417 
L 166.549315 114.839218 
L 168.018209 113.681581 
L 169.487104 114.189571 
L 170.955999 113.681581 
L 172.424894 112.476952 
L 173.893788 112.860472 
L 175.362683 112.664631 
L 176.831578 113.865428 
L 178.300473 113.390923 
L 179.769367 112.341154 
L 181.238262 112.209331 
L 182.707157 112.761487 
L 184.176051 113.065217 
L 185.644946 113.225127 
L 187.113841 111.956724 
L 188.582736 112.123545 
L 190.05163 111.602544 
L 191.520525 112.341154 
L 192.98942 113.742033 
L 194.458315 112.860472 
L 195.927209 110.93542 
L 197.396104 110.297478 
L 198.864999 110.806736 
L 200.333893 110.93542 
L 201.802788 111.717537 
L 203.271683 111.527482 
L 204.740578 109.84 
L 206.209472 109.615396 
L 207.678367 109.519057 
L 209.147262 110.838564 
L 210.616157 110.902903 
L 212.085051 109.943536 
L 213.553946 109.175102 
L 215.022841 109.109354 
L 219.429525 109.943536 
L 220.89842 109.47165 
L 222.367314 107.846493 
L 223.836209 107.529205 
L 225.305104 108.277379 
L 226.773999 108.835043 
L 228.242893 108.713862 
L 229.711788 107.175797 
L 231.180683 107.008977 
L 232.649578 106.210671 
L 234.118472 106.76979 
L 235.587367 106.66743 
L 237.056262 106.433262 
L 239.994051 104.415189 
L 241.462946 104.354225 
L 242.931841 104.627257 
L 244.400735 105.083926 
L 245.86963 104.849805 
L 247.338525 103.163908 
L 248.80742 102.143867 
L 250.276314 101.749298 
L 251.745209 102.328294 
L 253.214104 103.134945 
L 254.682999 101.779109 
L 256.151893 99.984487 
L 257.620788 98.827232 
L 259.089683 98.493794 
L 260.558577 99.134783 
L 262.027472 98.87855 
L 263.496367 96.908938 
L 264.965262 94.552206 
L 266.434156 92.994736 
L 269.371946 91.005578 
L 270.840841 89.153283 
L 273.77863 83.741036 
L 275.247525 81.478995 
L 276.716419 79.871672 
L 278.185314 78.968204 
L 279.654209 78.651969 
L 281.123104 78.948364 
L 282.591998 79.847372 
L 284.060893 81.367228 
L 286.998683 85.316181 
L 288.467577 86.715968 
L 289.936472 87.396362 
L 291.405367 87.866935 
L 292.874261 88.708367 
L 294.343156 89.991255 
L 295.812051 91.613209 
L 297.280946 92.433335 
L 298.74984 92.604439 
L 300.218735 92.536971 
L 301.68763 93.091156 
L 303.156525 94.137428 
L 304.625419 94.792033 
L 306.094314 94.0521 
L 309.032104 90.747094 
L 310.500998 89.324008 
L 313.438788 85.734766 
L 316.376577 81.574125 
L 317.845472 78.981767 
L 320.783261 64.111825 
L 322.252156 64.146809 
L 326.65884 76.728397 
L 328.127735 79.617358 
L 329.59663 81.708385 
L 331.065524 84.819914 
L 334.003314 95.672396 
L 335.472209 98.631863 
L 336.941103 99.938822 
L 339.878893 101.770572 
L 341.347788 103.615871 
L 342.816682 104.807754 
L 344.285577 105.359182 
L 345.754472 105.155698 
L 347.223367 105.340299 
L 348.692261 105.73388 
L 350.161156 107.716883 
L 351.630051 108.774045 
L 353.098945 107.912724 
L 356.036735 107.86296 
L 357.50563 108.557198 
L 358.974524 110.590025 
L 360.443419 110.650886 
L 361.912314 110.441376 
L 363.381209 110.022781 
L 364.850103 109.219473 
L 366.318998 110.71258 
L 367.787893 111.835543 
L 369.256787 112.296783 
L 370.725682 111.564857 
L 372.194577 111.239151 
L 373.663472 111.169863 
L 375.132366 113.225127 
L 376.601261 112.712798 
L 378.070156 113.390923 
L 379.539051 112.910792 
L 381.007945 111.564857 
L 383.945735 113.928417 
L 385.414629 114.326055 
L 386.883524 113.803308 
L 388.352419 113.681581 
L 389.821314 113.928417 
L 391.290208 112.341154 
L 392.759103 113.865428 
L 394.227998 115.161043 
L 395.696893 114.997257 
L 397.165787 113.065217 
L 398.634682 113.803308 
L 400.103577 113.928417 
L 401.572472 115.982153 
L 403.041366 115.331012 
L 404.510261 115.598633 
L 405.979156 115.598633 
L 407.44805 114.122849 
L 408.916945 115.331012 
L 410.38584 116.186898 
L 411.854735 115.598633 
L 413.323629 115.598633 
L 414.792524 115.331012 
L 416.261419 114.326055 
L 417.730314 116.083362 
L 419.199208 115.786312 
L 420.668103 116.512604 
L 422.136998 115.786312 
L 423.605892 114.762231 
L 425.074787 114.612096 
L 428.012577 117.113981 
L 429.481471 117.660546 
L 430.950366 118.452693 
L 432.419261 116.863714 
L 433.888156 117.113981 
L 435.35705 116.186898 
L 436.825945 117.808219 
L 438.29484 116.401398 
L 439.763735 116.987109 
L 441.232629 116.512604 
L 442.701524 117.378977 
L 444.170419 116.292871 
L 447.108208 117.960899 
L 450.045998 117.113981 
L 451.514892 117.113981 
L 452.983787 118.118938 
L 455.921577 119.205043 
L 457.390471 115.331012 
L 458.859366 117.660546 
L 460.328261 117.660546 
L 461.797155 118.282724 
L 463.26605 119.205043 
L 464.734945 118.629328 
L 466.20384 116.863714 
L 467.672734 117.517561 
L 469.141629 119.004849 
L 470.610524 117.808219 
L 472.079419 118.813176 
L 472.079419 118.813176 
" clip-path="url(#pe92f1f6c6b)" style="fill: none; stroke: #1f77b4; stroke-width: 1.5; stroke-linecap: square"/>
   </g>
   <g id="line2d_36">
    <path d="M 66.664473 137.366626 
L 68.133368 137.603714 
L 69.602263 137.98453 
L 72.540052 134.7323 
L 74.008947 135.579218 
L 75.477841 135.985226 
L 76.946736 136.823362 
L 78.415631 135.206805 
L 79.884526 136.338633 
L 81.35342 136.338633 
L 82.822315 134.605428 
L 84.29121 134.997296 
L 85.760105 135.657544 
L 87.228999 135.13588 
L 88.697894 135.206805 
L 90.166789 135.737257 
L 93.104578 135.13588 
L 94.573473 134.421581 
L 96.042368 135.13588 
L 97.511262 135.278865 
L 100.449052 134.130923 
L 103.386841 134.421581 
L 104.855736 134.361929 
L 106.324631 135.737257 
L 112.20021 134.482033 
L 113.669104 134.019717 
L 115.137999 134.019717 
L 116.606894 134.862849 
L 118.075789 135.502231 
L 119.544683 134.797101 
L 121.013578 134.421581 
L 122.482473 133.171229 
L 123.951368 133.965127 
L 125.420262 133.701681 
L 126.889157 133.753152 
L 128.358052 134.019717 
L 129.826946 133.857892 
L 131.295841 133.550707 
L 132.764736 133.805217 
L 134.233631 133.356973 
L 135.702525 133.263143 
L 138.640315 133.857892 
L 140.10921 133.701681 
L 141.578104 132.418879 
L 143.046999 133.263143 
L 144.515894 132.049522 
L 145.984788 132.418879 
L 147.453683 133.309814 
L 148.922578 133.216952 
L 150.391473 132.992844 
L 151.860367 131.330025 
L 153.329262 131.2999 
L 154.798157 131.094487 
L 156.267052 131.774405 
L 159.204841 131.875615 
L 160.673736 130.953296 
L 162.142631 130.925581 
L 163.611525 130.355396 
L 165.08042 130.45384 
L 166.549315 131.80789 
L 168.018209 132.19365 
L 169.487104 132.992844 
L 170.955999 131.774405 
L 172.424894 130.898036 
L 173.893788 129.258869 
L 175.362683 130.870658 
L 176.831578 131.123264 
L 178.300473 132.949331 
L 179.769367 132.049522 
L 181.238262 131.875615 
L 182.707157 130.259057 
L 184.176051 129.657681 
L 185.644946 130.095271 
L 187.113841 130.355396 
L 188.582736 131.515132 
L 190.05163 131.152227 
L 191.520525 129.616173 
L 194.458315 128.488938 
L 195.927209 129.053699 
L 197.396104 130.736211 
L 198.864999 131.269975 
L 200.333893 130.164737 
L 201.802788 128.269205 
L 203.271683 127.394797 
L 204.740578 127.721764 
L 206.209472 128.488938 
L 207.678367 129.575043 
L 209.147262 130.004285 
L 210.616157 128.521222 
L 212.085051 127.382199 
L 213.553946 126.099182 
L 215.022841 126.684368 
L 216.491736 127.125478 
L 217.96063 128.409225 
L 219.429525 128.736907 
L 220.89842 127.40743 
L 222.367314 125.649344 
L 223.836209 125.0043 
L 225.305104 125.019163 
L 226.773999 126.014825 
L 228.242893 127.149307 
L 229.711788 126.494491 
L 232.649578 123.688327 
L 234.118472 123.044223 
L 235.587367 123.10221 
L 237.056262 124.446725 
L 238.525156 125.41577 
L 239.994051 124.73782 
L 241.462946 122.930441 
L 242.931841 121.515862 
L 244.400735 120.738853 
L 245.86963 121.132552 
L 247.338525 122.33082 
L 248.80742 122.688914 
L 250.276314 121.722278 
L 253.214104 118.112508 
L 254.682999 117.531657 
L 256.151893 117.979574 
L 257.620788 118.663687 
L 259.089683 118.856544 
L 260.558577 117.031109 
L 262.027472 114.794405 
L 263.496367 112.921938 
L 264.965262 111.888461 
L 266.434156 111.482669 
L 267.903051 110.724087 
L 269.371946 108.998041 
L 272.309735 103.707184 
L 273.77863 101.467895 
L 275.247525 99.802311 
L 276.716419 98.589344 
L 278.185314 97.924268 
L 279.654209 97.754982 
L 281.123104 98.097769 
L 282.591998 98.963975 
L 284.060893 100.328532 
L 285.529788 102.200987 
L 288.467577 106.881954 
L 289.936472 108.114852 
L 291.405367 108.343151 
L 292.874261 108.285163 
L 294.343156 108.767385 
L 295.812051 109.87958 
L 297.280946 111.490784 
L 298.74984 112.801314 
L 300.218735 113.125847 
L 303.156525 111.135274 
L 306.094314 110.109418 
L 307.563209 109.22148 
L 310.500998 105.506711 
L 311.969893 103.605923 
L 313.438788 101.212493 
L 316.376577 94.905447 
L 317.845472 91.505684 
L 320.783261 81.43972 
L 322.252156 83.932303 
L 323.721051 93.687056 
L 325.189946 99.923345 
L 326.65884 103.430595 
L 328.127735 106.314037 
L 329.59663 108.949275 
L 332.534419 113.776245 
L 335.472209 117.779786 
L 336.941103 118.946485 
L 338.409998 119.483707 
L 339.878893 120.733101 
L 342.816682 123.991929 
L 344.285577 125.079113 
L 345.754472 124.81541 
L 347.223367 124.279428 
L 348.692261 124.368738 
L 350.161156 125.38337 
L 351.630051 126.652161 
L 354.56784 128.505051 
L 356.036735 127.987172 
L 357.50563 126.927867 
L 358.974524 126.837792 
L 360.443419 127.561855 
L 363.381209 130.188133 
L 364.850103 130.898036 
L 366.318998 129.534286 
L 367.787893 128.788182 
L 369.256787 129.239826 
L 370.725682 129.239826 
L 373.663472 131.841625 
L 375.132366 131.80789 
L 378.070156 130.45384 
L 379.539051 131.2999 
L 381.007945 131.065892 
L 383.945735 133.550707 
L 385.414629 132.49653 
L 386.883524 131.741168 
L 388.352419 131.909863 
L 389.821314 131.909863 
L 391.290208 133.036783 
L 392.759103 133.600472 
L 394.227998 133.91119 
L 395.696893 132.49653 
L 397.165787 133.501487 
L 398.634682 132.737854 
L 400.103577 132.779362 
L 401.572472 133.309814 
L 403.041366 134.130923 
L 404.510261 134.303058 
L 405.979156 134.074977 
L 407.44805 133.650792 
L 408.916945 133.501487 
L 410.38584 133.753152 
L 411.854735 133.857892 
L 413.323629 134.543308 
L 414.792524 135.426538 
L 417.730314 134.187573 
L 419.199208 134.668417 
L 420.668103 134.929571 
L 422.136998 133.857892 
L 425.074787 137.141398 
L 428.012577 134.929571 
L 429.481471 135.206805 
L 430.950366 136.071012 
L 432.419261 137.48361 
L 433.888156 137.252604 
L 435.35705 137.141398 
L 436.825945 136.623168 
L 438.29484 135.901043 
L 439.763735 137.727109 
L 441.232629 136.526312 
L 442.701524 137.141398 
L 444.170419 136.722153 
L 445.639313 137.252604 
L 447.108208 136.926898 
L 448.577103 136.071012 
L 450.045998 136.823362 
L 451.514892 137.032871 
L 452.983787 137.48361 
L 454.452682 136.623168 
L 455.921577 137.141398 
L 457.390471 138.548219 
L 458.859366 138.400546 
L 460.328261 137.032871 
L 461.797155 136.431495 
L 463.26605 137.141398 
L 464.734945 136.926898 
L 467.672734 137.853981 
L 469.141629 137.603714 
L 469.141629 137.603714 
" clip-path="url(#pe92f1f6c6b)" style="fill: none; stroke: #ff7f0e; stroke-width: 1.5; stroke-linecap: square"/>
   </g>
   <g id="line2d_37">
    <path d="M 66.664473 155.283308 
L 68.133368 156.558405 
L 69.602263 155.345428 
L 71.071157 155.537101 
L 72.540052 155.161581 
L 74.008947 156.242231 
L 75.477841 156.477257 
L 76.946736 157.078633 
L 78.415631 155.806055 
L 79.884526 155.87588 
L 81.35342 154.814977 
L 82.822315 155.602849 
L 84.29121 154.984945 
L 85.760105 155.946805 
L 87.228999 155.4723 
L 88.697894 156.092096 
L 90.166789 154.870923 
L 91.635683 155.161581 
L 93.104578 154.814977 
L 94.573473 155.345428 
L 96.042368 155.602849 
L 97.511262 154.984945 
L 98.980157 155.161581 
L 100.449052 155.669571 
L 101.917947 154.545217 
L 103.386841 155.408417 
L 104.855736 154.984945 
L 106.324631 155.602849 
L 109.26242 154.927573 
L 110.731315 154.192798 
L 112.20021 154.597892 
L 113.669104 153.865966 
L 115.137999 154.241487 
L 116.606894 155.4723 
L 118.075789 154.597892 
L 119.544683 154.441681 
L 121.013578 153.158879 
L 122.482473 153.477854 
L 123.951368 153.275863 
L 126.889157 155.537101 
L 128.358052 154.192798 
L 129.826946 152.54789 
L 132.764736 152.825124 
L 135.702525 154.144631 
L 137.17142 153.956952 
L 138.640315 154.705127 
L 140.10921 153.12055 
L 141.578104 152.789522 
L 143.046999 152.070025 
L 144.515894 152.100352 
L 145.984788 153.315543 
L 147.453683 152.86101 
L 148.922578 153.395967 
L 150.391473 153.477854 
L 151.860367 152.161627 
L 153.329262 152.130886 
L 154.798157 151.749242 
L 156.267052 153.158879 
L 157.735946 152.970415 
L 159.204841 152.897183 
L 160.673736 151.556397 
L 162.142631 151.638036 
L 163.611525 150.789548 
L 165.08042 152.19258 
L 166.549315 152.382903 
L 168.018209 152.93365 
L 169.487104 152.223747 
L 172.424894 150.46067 
L 173.893788 150.76686 
L 175.362683 150.439576 
L 176.831578 151.610658 
L 178.300473 152.130886 
L 179.769367 151.749242 
L 181.238262 150.294618 
L 182.707157 149.667841 
L 184.176051 150.173978 
L 185.644946 150.193862 
L 187.113841 152.318564 
L 188.582736 151.397428 
L 190.05163 150.677232 
L 191.520525 148.585536 
L 192.98942 148.185543 
L 194.458315 148.185543 
L 195.927209 149.426209 
L 197.396104 151.610658 
L 198.864999 150.09531 
L 200.333893 149.180941 
L 201.802788 148.010379 
L 203.271683 147.748189 
L 204.740578 147.276 
L 207.678367 149.72135 
L 209.147262 149.039946 
L 212.085051 146.644751 
L 213.553946 146.115306 
L 215.022841 146.083194 
L 217.96063 148.275747 
L 219.429525 147.600142 
L 220.89842 146.389344 
L 222.367314 144.882567 
L 223.836209 144.467272 
L 225.305104 144.931855 
L 226.773999 145.94146 
L 228.242893 146.563926 
L 229.711788 146.213038 
L 232.649578 142.965515 
L 234.118472 142.552679 
L 235.587367 142.674857 
L 237.056262 144.000596 
L 238.525156 144.950477 
L 239.994051 144.286555 
L 241.462946 142.259283 
L 242.931841 140.876397 
L 244.400735 139.982043 
L 245.86963 140.437782 
L 247.338525 141.654913 
L 248.80742 142.058493 
L 250.276314 140.527742 
L 251.745209 138.604109 
L 253.214104 137.198882 
L 254.682999 136.501467 
L 257.620788 137.147993 
L 259.089683 136.40157 
L 262.027472 131.194262 
L 263.496367 129.112981 
L 264.965262 127.724478 
L 266.434156 126.824212 
L 269.371946 125.262096 
L 270.840841 124.026252 
L 273.77863 120.774911 
L 275.247525 119.401746 
L 276.716419 118.378342 
L 278.185314 117.788686 
L 279.654209 117.682055 
L 281.123104 118.051758 
L 282.591998 118.926794 
L 284.060893 120.385193 
L 285.529788 122.432062 
L 288.467577 127.760729 
L 289.936472 129.264597 
L 291.405367 129.189185 
L 292.874261 128.733849 
L 294.343156 128.894806 
L 295.812051 129.857193 
L 298.74984 133.097235 
L 300.218735 133.16214 
L 301.68763 131.769737 
L 303.156525 129.45745 
L 306.094314 116.18358 
L 307.563209 114.194406 
L 310.500998 113.564637 
L 311.969893 112.688583 
L 314.907682 112.247203 
L 316.376577 111.45915 
L 317.845472 109.196696 
L 319.314367 103.579039 
L 320.783261 103.340525 
L 322.252156 108.994379 
L 323.721051 120.169953 
L 325.189946 124.340542 
L 326.65884 127.088083 
L 328.127735 129.269377 
L 331.065524 133.321557 
L 332.534419 135.652806 
L 334.003314 137.771109 
L 335.472209 139.440139 
L 336.941103 140.35855 
L 338.409998 140.467569 
L 339.878893 141.079797 
L 341.347788 142.574648 
L 342.816682 144.302687 
L 344.285577 145.685331 
L 345.754472 145.678014 
L 348.692261 144.568989 
L 350.161156 144.79759 
L 353.098945 147.771404 
L 354.56784 149.212882 
L 356.036735 148.599501 
L 357.50563 147.600142 
L 358.974524 147.566658 
L 360.443419 147.381476 
L 361.912314 148.557736 
L 363.381209 149.998869 
L 364.850103 150.975292 
L 366.318998 149.775502 
L 369.256787 149.024549 
L 370.725682 149.545404 
L 373.663472 150.95165 
L 375.132366 152.41542 
L 378.070156 151.24388 
L 379.539051 149.923176 
L 381.007945 150.503157 
L 382.47684 151.950716 
L 383.945735 152.684374 
L 385.414629 153.197537 
L 386.883524 152.318564 
L 388.352419 152.130886 
L 389.821314 152.161627 
L 391.290208 152.318564 
L 392.759103 152.86101 
L 394.227998 154.705127 
L 397.165787 153.911229 
L 398.634682 152.41542 
L 400.103577 152.255132 
L 401.572472 152.719151 
L 403.041366 154.493152 
L 404.510261 153.956952 
L 405.979156 154.984945 
L 408.916945 154.441681 
L 410.38584 153.821154 
L 411.854735 153.646233 
L 413.323629 154.759717 
L 414.792524 156.092096 
L 416.261419 155.408417 
L 417.730314 155.043058 
L 419.199208 154.984945 
L 420.668103 154.049814 
L 422.136998 154.814977 
L 423.605892 155.161581 
L 426.543682 156.811012 
L 428.012577 154.545217 
L 429.481471 155.806055 
L 430.950366 154.984945 
L 432.419261 155.946805 
L 433.888156 155.87588 
L 435.35705 156.319218 
L 438.29484 155.737296 
L 439.763735 156.018865 
L 441.232629 155.87588 
L 442.701524 155.043058 
L 445.639313 156.987647 
L 447.108208 156.166538 
L 448.577103 156.641043 
L 450.045998 156.319218 
L 451.514892 155.806055 
L 452.983787 156.641043 
L 454.452682 157.881398 
L 455.921577 157.266312 
L 457.390471 156.477257 
L 458.859366 157.563362 
L 460.328261 157.171495 
L 461.797155 156.898464 
L 463.26605 155.87588 
L 464.734945 157.462153 
L 466.20384 156.987647 
L 467.672734 157.363168 
L 469.141629 156.811012 
L 469.141629 156.811012 
" clip-path="url(#pe92f1f6c6b)" style="fill: none; stroke: #2ca02c; stroke-width: 1.5; stroke-linecap: square"/>
   </g>
   <g id="line2d_38">
    <path d="M 65.195578 177.638464 
L 66.664473 177.727647 
L 68.133368 176.758865 
L 69.602263 178.512871 
L 71.071157 177.217257 
L 72.540052 177.465226 
L 75.477841 176.085428 
L 76.946736 175.901581 
L 79.884526 177.381043 
L 81.35342 176.409571 
L 82.822315 176.277101 
L 84.29121 176.758865 
L 85.760105 176.342849 
L 87.228999 177.137544 
L 90.166789 176.906538 
L 91.635683 177.381043 
L 93.104578 177.059218 
L 94.573473 176.342849 
L 96.042368 175.181681 
L 97.511262 175.181681 
L 98.980157 175.667573 
L 100.449052 176.982231 
L 101.917947 176.409571 
L 103.386841 176.477296 
L 104.855736 176.758865 
L 106.324631 175.233152 
L 107.793525 175.030707 
L 109.26242 175.783058 
L 110.731315 175.499717 
L 112.20021 174.884631 
L 113.669104 175.445127 
L 115.137999 175.285217 
L 116.606894 174.259362 
L 118.075789 174.301257 
L 119.544683 175.554977 
L 121.013578 175.39119 
L 122.482473 175.724945 
L 123.951368 175.554977 
L 125.420262 174.516783 
L 126.889157 173.86055 
L 128.358052 174.932798 
L 129.826946 175.285217 
L 131.295841 176.906538 
L 132.764736 175.39119 
L 134.233631 175.030707 
L 135.702525 173.747482 
L 137.17142 173.494199 
L 138.640315 174.516783 
L 140.10921 174.472844 
L 141.578104 175.610923 
L 144.515894 172.93258 
L 145.984788 173.188174 
L 147.453683 172.603264 
L 148.922578 173.97653 
L 151.860367 174.472844 
L 153.329262 173.321625 
L 154.798157 172.323445 
L 156.267052 173.86055 
L 157.735946 173.459151 
L 162.142631 173.565124 
L 163.611525 174.135967 
L 165.08042 171.884349 
L 166.549315 171.69165 
L 168.018209 172.661376 
L 169.487104 172.517478 
L 170.955999 174.429331 
L 173.893788 171.329354 
L 175.362683 171.484285 
L 176.831578 171.137681 
L 178.300473 172.06 
L 179.769367 172.350658 
L 181.238262 173.254405 
L 182.707157 172.350658 
L 184.176051 171.137681 
L 185.644946 170.132724 
L 187.113841 170.64445 
L 188.582736 171.529548 
L 190.05163 172.034484 
L 191.520525 171.621462 
L 194.458315 169.873451 
L 195.927209 170.099487 
L 197.396104 169.718671 
L 198.864999 171.096173 
L 200.333893 171.552352 
L 201.802788 171.096173 
L 203.271683 169.749205 
L 204.740578 168.812158 
L 206.209472 168.641268 
L 207.678367 169.1211 
L 209.147262 169.826456 
L 210.616157 170.796485 
L 212.085051 169.905055 
L 213.553946 168.100182 
L 215.022841 167.560299 
L 216.491736 167.259642 
L 219.429525 169.438486 
L 220.89842 169.467172 
L 223.836209 166.476886 
L 225.305104 165.543607 
L 226.773999 166.01945 
L 228.242893 167.069805 
L 229.711788 167.655517 
L 231.180683 167.513435 
L 234.118472 164.611487 
L 235.587367 163.590892 
L 238.525156 165.585952 
L 239.994051 166.039571 
L 241.462946 164.967892 
L 242.931841 163.07869 
L 244.400735 161.912933 
L 245.86963 161.636582 
L 247.338525 162.531627 
L 248.80742 163.71754 
L 250.276314 163.701513 
L 253.214104 159.652331 
L 254.682999 158.363232 
L 256.151893 158.511109 
L 259.089683 159.870763 
L 260.558577 158.711303 
L 262.027472 156.122468 
L 263.496367 154.078994 
L 264.965262 152.805508 
L 266.434156 152.419338 
L 267.903051 152.508404 
L 269.371946 151.821597 
L 270.840841 149.243598 
L 272.309735 146.080236 
L 273.77863 143.352537 
L 275.247525 141.161225 
L 276.716419 139.64464 
L 278.185314 138.683802 
L 279.654209 138.290587 
L 281.123104 138.402071 
L 282.591998 139.05641 
L 284.060893 140.282585 
L 285.529788 142.098239 
L 286.998683 144.607964 
L 288.467577 147.553333 
L 289.936472 150.118375 
L 291.405367 150.92157 
L 292.874261 150.603081 
L 294.343156 150.590224 
L 295.812051 151.324096 
L 298.74984 154.493152 
L 300.218735 154.618603 
L 301.68763 152.610159 
L 303.156525 149.443382 
L 304.625419 147.773615 
L 306.094314 147.108596 
L 307.563209 146.285244 
L 309.032104 145.045464 
L 310.500998 144.141306 
L 313.438788 141.694769 
L 314.907682 140.995728 
L 316.376577 141.125618 
L 317.845472 134.628475 
L 319.314367 126.345201 
L 320.783261 125.590927 
L 322.252156 127.16374 
L 323.721051 128.554447 
L 325.189946 131.765846 
L 326.65884 139.86836 
L 328.127735 146.942349 
L 329.59663 150.376256 
L 332.534419 155.924698 
L 334.003314 158.462108 
L 335.472209 160.198476 
L 336.941103 160.534069 
L 338.409998 161.114285 
L 339.878893 162.09678 
L 342.816682 165.507626 
L 344.285577 166.281203 
L 347.223367 165.616443 
L 348.692261 165.753116 
L 350.161156 166.815202 
L 351.630051 168.27342 
L 353.098945 169.525097 
L 354.56784 169.311615 
L 357.50563 167.694175 
L 358.974524 168.132161 
L 360.443419 169.353509 
L 361.912314 171.137681 
L 363.381209 171.98388 
L 364.850103 171.373079 
L 366.318998 169.873451 
L 367.787893 169.842066 
L 369.256787 170.894182 
L 370.725682 171.243157 
L 372.194577 172.963747 
L 373.663472 172.7799 
L 376.601261 171.096173 
L 379.539051 172.242781 
L 381.007945 173.221168 
L 382.47684 174.605966 
L 383.945735 173.710415 
L 385.414629 173.15542 
L 386.883524 172.433296 
L 388.352419 171.93384 
L 389.821314 173.459151 
L 391.290208 175.337892 
L 392.759103 175.233152 
L 394.227998 174.429331 
L 395.696893 174.301257 
L 398.634682 173.090619 
L 400.103577 174.472844 
L 401.572472 176.546055 
L 403.041366 175.962033 
L 404.510261 175.030707 
L 405.979156 174.259362 
L 407.44805 174.301257 
L 408.916945 175.181681 
L 410.38584 175.130792 
L 411.854735 177.818633 
L 413.323629 176.023308 
L 414.792524 175.499717 
L 416.261419 175.337892 
L 417.730314 174.343545 
L 419.199208 175.724945 
L 420.668103 176.409571 
L 422.136998 176.758865 
L 423.605892 177.727647 
L 425.074787 176.2123 
L 426.543682 175.39119 
L 429.481471 175.962033 
L 430.950366 177.059218 
L 432.419261 177.638464 
L 433.888156 176.342849 
L 435.35705 176.906538 
L 436.825945 175.285217 
L 438.29484 177.137544 
L 439.763735 176.758865 
L 442.701524 177.381043 
L 444.170419 177.911495 
L 445.639313 177.059218 
L 447.108208 175.962033 
L 448.577103 176.477296 
L 450.045998 177.727647 
L 451.514892 178.732604 
L 452.983787 177.911495 
L 454.452682 178.103168 
L 455.921577 176.477296 
L 458.859366 178.103168 
L 460.328261 178.512871 
L 461.797155 178.512871 
L 463.26605 180.502724 
L 464.734945 178.732604 
L 466.20384 177.818633 
L 467.672734 178.406898 
L 467.672734 178.406898 
" clip-path="url(#pe92f1f6c6b)" style="fill: none; stroke: #d62728; stroke-width: 1.5; stroke-linecap: square"/>
   </g>
   <g id="line2d_39">
    <path d="M 66.664473 198.558633 
L 68.133368 198.378464 
L 69.602263 197.646538 
L 71.071157 197.572096 
L 72.540052 197.877544 
L 74.008947 197.646538 
L 75.477841 198.467647 
L 76.946736 197.35588 
L 78.415631 197.646538 
L 79.884526 197.646538 
L 81.35342 196.888417 
L 84.29121 196.464945 
L 85.760105 197.877544 
L 87.228999 196.763308 
L 88.697894 196.9523 
L 90.166789 197.017101 
L 91.635683 198.205226 
L 93.104578 198.038405 
L 94.573473 196.523058 
L 96.042368 197.957257 
L 97.511262 196.239717 
L 98.980157 196.763308 
L 100.449052 196.464945 
L 101.917947 196.641581 
L 103.386841 198.038405 
L 104.855736 195.973152 
L 106.324631 195.820472 
L 107.793525 196.763308 
L 109.26242 195.624631 
L 110.731315 196.239717 
L 112.20021 196.464945 
L 113.669104 195.721487 
L 115.137999 196.407573 
L 118.075789 195.212844 
L 119.544683 195.083545 
L 121.013578 195.624631 
L 122.482473 195.820472 
L 123.951368 196.581929 
L 126.889157 194.02789 
L 128.358052 194.999362 
L 129.826946 195.576973 
L 131.295841 194.957854 
L 132.764736 195.672798 
L 134.233631 195.041257 
L 135.702525 193.798564 
L 138.640315 193.229242 
L 140.10921 193.257478 
L 141.578104 193.580352 
L 143.046999 193.703747 
L 144.515894 192.338307 
L 145.984788 192.026049 
L 147.453683 191.877681 
L 148.922578 192.292352 
L 150.391473 192.551117 
L 151.860367 192.526969 
L 153.329262 192.624349 
L 154.798157 191.478869 
L 156.267052 192.069354 
L 157.735946 191.555856 
L 159.204841 192.135102 
L 160.673736 192.575396 
L 162.142631 193.229242 
L 163.611525 192.575396 
L 165.08042 192.575396 
L 166.549315 191.774618 
L 168.018209 192.24686 
L 169.487104 192.315271 
L 170.955999 193.550025 
L 172.424894 193.257478 
L 173.893788 192.026049 
L 176.831578 191.774618 
L 178.300473 191.497993 
L 179.769367 192.43165 
L 181.238262 192.903536 
L 182.707157 192.69879 
L 184.176051 191.112518 
L 185.644946 191.219328 
L 187.113841 190.692882 
L 188.582736 191.634182 
L 190.05163 192.43165 
L 191.520525 192.179473 
L 194.458315 190.107561 
L 195.927209 189.614797 
L 197.396104 189.92822 
L 198.864999 190.991025 
L 201.802788 192.135102 
L 203.271683 190.279695 
L 204.740578 188.915155 
L 206.209472 188.64276 
L 207.678367 189.345478 
L 209.147262 190.613451 
L 210.616157 191.693834 
L 212.085051 189.83453 
L 213.553946 187.792938 
L 215.022841 187.231725 
L 216.491736 187.63577 
L 217.96063 188.179451 
L 219.429525 190.178486 
L 220.89842 189.453714 
L 222.367314 187.947069 
L 223.836209 186.229742 
L 225.305104 185.577343 
L 226.773999 185.952863 
L 228.242893 187.611448 
L 229.711788 188.673362 
L 231.180683 187.826736 
L 232.649578 185.510924 
L 234.118472 184.113762 
L 235.587367 183.81869 
L 237.056262 184.563131 
L 238.525156 186.380986 
L 239.994051 187.085491 
L 242.931841 182.661006 
L 244.400735 181.606759 
L 245.86963 181.662519 
L 247.338525 182.870515 
L 248.80742 184.604411 
L 250.276314 183.746132 
L 251.745209 181.368086 
L 253.214104 179.281531 
L 254.682999 178.291096 
L 256.151893 178.66888 
L 257.620788 180.194898 
L 259.089683 180.973524 
L 260.558577 178.715747 
L 262.027472 175.840152 
L 263.496367 173.782981 
L 264.965262 172.987265 
L 266.434156 173.004905 
L 267.903051 172.76252 
L 269.371946 170.749568 
L 272.309735 164.187543 
L 273.77863 161.760197 
L 275.247525 160.03871 
L 276.716419 158.904267 
L 278.185314 158.390465 
L 279.654209 158.471227 
L 281.123104 159.125998 
L 282.591998 160.454853 
L 284.060893 162.580413 
L 285.529788 165.615342 
L 286.998683 169.676571 
L 288.467577 173.036261 
L 289.936472 172.450565 
L 291.405367 170.761444 
L 292.874261 170.350231 
L 294.343156 171.287127 
L 295.812051 173.534844 
L 297.280946 176.408899 
L 298.74984 177.312347 
L 300.218735 175.146506 
L 301.68763 173.466489 
L 303.156525 172.959996 
L 306.094314 173.540884 
L 307.563209 172.783204 
L 309.032104 171.159417 
L 310.500998 169.129369 
L 311.969893 167.415666 
L 313.438788 164.75144 
L 314.907682 158.160868 
L 316.376577 156.408247 
L 317.845472 154.95669 
L 319.314367 150.290343 
L 320.783261 143.12554 
L 322.252156 146.571043 
L 323.721051 161.198337 
L 325.189946 165.655036 
L 326.65884 168.569734 
L 328.127735 171.001928 
L 329.59663 173.049948 
L 332.534419 176.471159 
L 334.003314 178.876751 
L 335.472209 179.736154 
L 336.941103 180.318076 
L 338.409998 181.998432 
L 339.878893 184.662846 
L 341.347788 186.854125 
L 342.816682 187.165331 
L 344.285577 185.629109 
L 345.754472 184.886783 
L 347.223367 185.17391 
L 351.630051 191.07747 
L 353.098945 189.95535 
L 354.56784 188.290887 
L 356.036735 187.619541 
L 357.50563 188.512501 
L 358.974524 190.956907 
L 360.443419 192.649026 
L 361.912314 192.929797 
L 363.381209 191.025404 
L 364.850103 189.405288 
L 366.318998 189.716867 
L 370.725682 194.957854 
L 372.194577 193.994405 
L 373.663472 192.24686 
L 375.132366 191.365801 
L 376.601261 191.836173 
L 378.070156 193.610886 
L 379.539051 194.638879 
L 381.007945 195.973152 
L 382.47684 193.961168 
L 383.945735 192.43165 
L 385.414629 192.929797 
L 388.352419 194.41365 
L 389.821314 195.820472 
L 391.290208 196.763308 
L 392.759103 195.576973 
L 394.227998 193.401376 
L 395.696893 193.5199 
L 397.165787 194.41365 
L 398.634682 197.286055 
L 401.572472 196.9523 
L 403.041366 195.672798 
L 404.510261 193.830619 
L 407.44805 195.770707 
L 408.916945 197.35588 
L 410.38584 197.149571 
L 411.854735 196.581929 
L 413.323629 195.770707 
L 414.792524 195.169331 
L 416.261419 196.581929 
L 417.730314 196.407573 
L 419.199208 198.746312 
L 420.668103 199.472604 
L 422.136998 197.35588 
L 423.605892 196.025217 
L 425.074787 196.13119 
L 426.543682 196.641581 
L 428.012577 197.722231 
L 429.481471 199.146898 
L 432.419261 197.217296 
L 433.888156 197.426805 
L 435.35705 197.426805 
L 436.825945 196.702033 
L 438.29484 200.20453 
L 439.763735 199.472604 
L 441.232629 198.291012 
L 442.701524 198.746312 
L 444.170419 197.722231 
L 445.639313 198.291012 
L 447.108208 199.043362 
L 448.577103 199.146898 
L 450.045998 200.768219 
L 451.514892 197.646538 
L 454.452682 198.205226 
L 455.921577 197.799218 
L 457.390471 199.146898 
L 458.859366 200.20453 
L 460.328261 199.361398 
L 461.797155 199.043362 
L 463.26605 198.558633 
L 464.734945 198.378464 
L 466.20384 199.043362 
L 467.672734 202.825292 
L 469.141629 198.291012 
L 469.141629 198.291012 
" clip-path="url(#pe92f1f6c6b)" style="fill: none; stroke: #9467bd; stroke-width: 1.5; stroke-linecap: square"/>
   </g>
   <g id="line2d_40">
    <path d="M 320.783261 203.17 
L 320.783261 57.99 
" clip-path="url(#pe92f1f6c6b)" style="fill: none; stroke-dasharray: 3.7,1.6; stroke-dashoffset: 0; stroke: #808080"/>
   </g>
   <g id="line2d_41">
    <path d="M 320.783261 203.17 
L 320.783261 57.99 
" clip-path="url(#pe92f1f6c6b)" style="fill: none; stroke-dasharray: 3.7,1.6; stroke-dashoffset: 0; stroke: #808080"/>
   </g>
   <g id="line2d_42">
    <path d="M 279.654209 185.551681 
L 279.654209 68.36 
" clip-path="url(#pe92f1f6c6b)" style="fill: none; stroke-dasharray: 1,1.65; stroke-dashoffset: 0; stroke: #808080"/>
   </g>
   <g id="line2d_43">
    <path d="M 279.654209 185.551681 
L 279.654209 68.36 
" clip-path="url(#pe92f1f6c6b)" style="fill: none; stroke-dasharray: 1,1.65; stroke-dashoffset: 0; stroke: #808080"/>
   </g>
   <g id="line2d_44">
    <path d="M 303.92035 183.434957 
L 303.92035 68.36 
" clip-path="url(#pe92f1f6c6b)" style="fill: none; stroke-dasharray: 6.4,1.6,1,1.6; stroke-dashoffset: 0; stroke: #808080"/>
   </g>
   <g id="line2d_45">
    <path d="M 303.92035 183.434957 
L 303.92035 68.36 
" clip-path="url(#pe92f1f6c6b)" style="fill: none; stroke-dasharray: 6.4,1.6,1,1.6; stroke-dashoffset: 0; stroke: #808080"/>
   </g>
   <g id="line2d_46">
    <defs>
     <path id="mcd6ab7c980" d="M -3 0 
L 3 0 
M 0 3 
L 0 -3 
" style="stroke: #1f77b4"/>
    </defs>
    <g clip-path="url(#pe92f1f6c6b)">
     <use xlink:href="#mcd6ab7c980" x="275.981972" y="73.704221" style="fill: #1f77b4; stroke: #1f77b4"/>
    </g>
   </g>
   <g id="line2d_47">
    <defs>
     <path id="m94f708489e" d="M -3 0 
L 3 0 
M 0 3 
L 0 -3 
" style="stroke: #ff7f0e"/>
    </defs>
    <g clip-path="url(#pe92f1f6c6b)">
     <use xlink:href="#m94f708489e" x="275.981972" y="92.807235" style="fill: #ff7f0e; stroke: #ff7f0e"/>
    </g>
   </g>
   <g id="line2d_48">
    <defs>
     <path id="mfa51bedb4b" d="M -3 0 
L 3 0 
M 0 3 
L 0 -3 
" style="stroke: #2ca02c"/>
    </defs>
    <g clip-path="url(#pe92f1f6c6b)">
     <use xlink:href="#mfa51bedb4b" x="275.981972" y="112.734307" style="fill: #2ca02c; stroke: #2ca02c"/>
    </g>
   </g>
   <g id="line2d_49">
    <defs>
     <path id="m273cbc7001" d="M -3 0 
L 3 0 
M 0 3 
L 0 -3 
" style="stroke: #d62728"/>
    </defs>
    <g clip-path="url(#pe92f1f6c6b)">
     <use xlink:href="#m273cbc7001" x="275.981972" y="133.342839" style="fill: #d62728; stroke: #d62728"/>
    </g>
   </g>
   <g id="line2d_50">
    <defs>
     <path id="mb5e9d7dace" d="M -3 0 
L 3 0 
M 0 3 
L 0 -3 
" style="stroke: #9467bd"/>
    </defs>
    <g clip-path="url(#pe92f1f6c6b)">
     <use xlink:href="#mb5e9d7dace" x="274.513077" y="153.442718" style="fill: #9467bd; stroke: #9467bd"/>
    </g>
   </g>
   <g id="patch_3">
    <path d="M 51.086844 213.54 
L 51.086844 26.88 
" style="fill: none; stroke: #000000; stroke-width: 0.8; stroke-linejoin: miter; stroke-linecap: square"/>
   </g>
   <g id="patch_4">
    <path d="M 565.2 213.54 
L 565.2 26.88 
" style="fill: none; stroke: #000000; stroke-width: 0.8; stroke-linejoin: miter; stroke-linecap: square"/>
   </g>
   <g id="patch_5">
    <path d="M 51.086844 213.54 
L 565.2 213.54 
" style="fill: none; stroke: #000000; stroke-width: 0.8; stroke-linejoin: miter; stroke-linecap: square"/>
   </g>
   <g id="patch_6">
    <path d="M 51.086844 26.88 
L 565.2 26.88 
" style="fill: none; stroke: #000000; stroke-width: 0.8; stroke-linejoin: miter; stroke-linecap: square"/>
   </g>
   <g id="text_20">
    <!-- Sample 1 -->
    <g style="fill: #1f77b4" transform="translate(475.643846 122.409362) scale(0.1 -0.1)">
     <defs>
      <path id="DejaVuSans-53" d="M 3425 4513 
L 3425 3897 
Q 3066 4069 2747 4153 
Q 2428 4238 2131 4238 
Q 1616 4238 1336 4038 
Q 1056 3838 1056 3469 
Q 1056 3159 1242 3001 
Q 1428 2844 1947 2747 
L 2328 2669 
Q 3034 2534 3370 2195 
Q 3706 1856 3706 1288 
Q 3706 609 3251 259 
Q 2797 -91 1919 -91 
Q 1588 -91 1214 -16 
Q 841 59 441 206 
L 441 856 
Q 825 641 1194 531 
Q 1563 422 1919 422 
Q 2459 422 2753 634 
Q 3047 847 3047 1241 
Q 3047 1584 2836 1778 
Q 2625 1972 2144 2069 
L 1759 2144 
Q 1053 2284 737 2584 
Q 422 2884 422 3419 
Q 422 4038 858 4394 
Q 1294 4750 2059 4750 
Q 2388 4750 2728 4690 
Q 3069 4631 3425 4513 
z
" transform="scale(0.015625)"/>
      <path id="DejaVuSans-6d" d="M 3328 2828 
Q 3544 3216 3844 3400 
Q 4144 3584 4550 3584 
Q 5097 3584 5394 3201 
Q 5691 2819 5691 2113 
L 5691 0 
L 5113 0 
L 5113 2094 
Q 5113 2597 4934 2840 
Q 4756 3084 4391 3084 
Q 3944 3084 3684 2787 
Q 3425 2491 3425 1978 
L 3425 0 
L 2847 0 
L 2847 2094 
Q 2847 2600 2669 2842 
Q 2491 3084 2119 3084 
Q 1678 3084 1418 2786 
Q 1159 2488 1159 1978 
L 1159 0 
L 581 0 
L 581 3500 
L 1159 3500 
L 1159 2956 
Q 1356 3278 1631 3431 
Q 1906 3584 2284 3584 
Q 2666 3584 2933 3390 
Q 3200 3197 3328 2828 
z
" transform="scale(0.015625)"/>
      <path id="DejaVuSans-70" d="M 1159 525 
L 1159 -1331 
L 581 -1331 
L 581 3500 
L 1159 3500 
L 1159 2969 
Q 1341 3281 1617 3432 
Q 1894 3584 2278 3584 
Q 2916 3584 3314 3078 
Q 3713 2572 3713 1747 
Q 3713 922 3314 415 
Q 2916 -91 2278 -91 
Q 1894 -91 1617 61 
Q 1341 213 1159 525 
z
M 3116 1747 
Q 3116 2381 2855 2742 
Q 2594 3103 2138 3103 
Q 1681 3103 1420 2742 
Q 1159 2381 1159 1747 
Q 1159 1113 1420 752 
Q 1681 391 2138 391 
Q 2594 391 2855 752 
Q 3116 1113 3116 1747 
z
" transform="scale(0.015625)"/>
      <path id="DejaVuSans-6c" d="M 603 4863 
L 1178 4863 
L 1178 0 
L 603 0 
L 603 4863 
z
" transform="scale(0.015625)"/>
     </defs>
     <use xlink:href="#DejaVuSans-53"/>
     <use xlink:href="#DejaVuSans-61" x="63.476562"/>
     <use xlink:href="#DejaVuSans-6d" x="124.755859"/>
     <use xlink:href="#DejaVuSans-70" x="222.167969"/>
     <use xlink:href="#DejaVuSans-6c" x="285.644531"/>
     <use xlink:href="#DejaVuSans-65" x="313.427734"/>
     <use xlink:href="#DejaVuSans-20" x="374.951172"/>
     <use xlink:href="#DejaVuSans-31" x="406.738281"/>
    </g>
   </g>
   <g id="text_21">
    <!-- Sample 2 -->
    <g style="fill: #ff7f0e" transform="translate(472.703119 141.199901) scale(0.1 -0.1)">
     <use xlink:href="#DejaVuSans-53"/>
     <use xlink:href="#DejaVuSans-61" x="63.476562"/>
     <use xlink:href="#DejaVuSans-6d" x="124.755859"/>
     <use xlink:href="#DejaVuSans-70" x="222.167969"/>
     <use xlink:href="#DejaVuSans-6c" x="285.644531"/>
     <use xlink:href="#DejaVuSans-65" x="313.427734"/>
     <use xlink:href="#DejaVuSans-20" x="374.951172"/>
     <use xlink:href="#DejaVuSans-32" x="406.738281"/>
    </g>
   </g>
   <g id="text_22">
    <!-- Sample 3 -->
    <g style="fill: #2ca02c" transform="translate(472.703119 160.407198) scale(0.1 -0.1)">
     <use xlink:href="#DejaVuSans-53"/>
     <use xlink:href="#DejaVuSans-61" x="63.476562"/>
     <use xlink:href="#DejaVuSans-6d" x="124.755859"/>
     <use xlink:href="#DejaVuSans-70" x="222.167969"/>
     <use xlink:href="#DejaVuSans-6c" x="285.644531"/>
     <use xlink:href="#DejaVuSans-65" x="313.427734"/>
     <use xlink:href="#DejaVuSans-20" x="374.951172"/>
     <use xlink:href="#DejaVuSans-33" x="406.738281"/>
    </g>
   </g>
   <g id="text_23">
    <!-- Sample 4 -->
    <g style="fill: #d62728" transform="translate(471.232755 182.003085) scale(0.1 -0.1)">
     <use xlink:href="#DejaVuSans-53"/>
     <use xlink:href="#DejaVuSans-61" x="63.476562"/>
     <use xlink:href="#DejaVuSans-6d" x="124.755859"/>
     <use xlink:href="#DejaVuSans-70" x="222.167969"/>
     <use xlink:href="#DejaVuSans-6c" x="285.644531"/>
     <use xlink:href="#DejaVuSans-65" x="313.427734"/>
     <use xlink:href="#DejaVuSans-20" x="374.951172"/>
     <use xlink:href="#DejaVuSans-34" x="406.738281"/>
    </g>
   </g>
   <g id="text_24">
    <!-- Sample 5 -->
    <g style="fill: #9467bd" transform="translate(472.703119 201.887198) scale(0.1 -0.1)">
     <use xlink:href="#DejaVuSans-53"/>
     <use xlink:href="#DejaVuSans-61" x="63.476562"/>
     <use xlink:href="#DejaVuSans-6d" x="124.755859"/>
     <use xlink:href="#DejaVuSans-70" x="222.167969"/>
     <use xlink:href="#DejaVuSans-6c" x="285.644531"/>
     <use xlink:href="#DejaVuSans-65" x="313.427734"/>
     <use xlink:href="#DejaVuSans-20" x="374.951172"/>
     <use xlink:href="#DejaVuSans-35" x="406.738281"/>
    </g>
   </g>
   <g id="text_25">
    <!-- STO -->
    <g transform="translate(310.619199 43.670506) scale(0.1 -0.1)">
     <defs>
      <path id="DejaVuSans-54" d="M -19 4666 
L 3928 4666 
L 3928 4134 
L 2272 4134 
L 2272 0 
L 1638 0 
L 1638 4134 
L -19 4134 
L -19 4666 
z
" transform="scale(0.015625)"/>
      <path id="DejaVuSans-4f" d="M 2522 4238 
Q 1834 4238 1429 3725 
Q 1025 3213 1025 2328 
Q 1025 1447 1429 934 
Q 1834 422 2522 422 
Q 3209 422 3611 934 
Q 4013 1447 4013 2328 
Q 4013 3213 3611 3725 
Q 3209 4238 2522 4238 
z
M 2522 4750 
Q 3503 4750 4090 4092 
Q 4678 3434 4678 2328 
Q 4678 1225 4090 567 
Q 3503 -91 2522 -91 
Q 1538 -91 948 565 
Q 359 1222 359 2328 
Q 359 3434 948 4092 
Q 1538 4750 2522 4750 
z
" transform="scale(0.015625)"/>
     </defs>
     <use xlink:href="#DejaVuSans-53"/>
     <use xlink:href="#DejaVuSans-54" x="63.476562"/>
     <use xlink:href="#DejaVuSans-4f" x="124.560547"/>
    </g>
    <!-- (002) -->
    <g transform="translate(307.337949 54.868319) scale(0.1 -0.1)">
     <defs>
      <path id="DejaVuSans-28" d="M 1984 4856 
Q 1566 4138 1362 3434 
Q 1159 2731 1159 2009 
Q 1159 1288 1364 580 
Q 1569 -128 1984 -844 
L 1484 -844 
Q 1016 -109 783 600 
Q 550 1309 550 2009 
Q 550 2706 781 3412 
Q 1013 4119 1484 4856 
L 1984 4856 
z
" transform="scale(0.015625)"/>
      <path id="DejaVuSans-29" d="M 513 4856 
L 1013 4856 
Q 1481 4119 1714 3412 
Q 1947 2706 1947 2009 
Q 1947 1309 1714 600 
Q 1481 -109 1013 -844 
L 513 -844 
Q 928 -128 1133 580 
Q 1338 1288 1338 2009 
Q 1338 2731 1133 3434 
Q 928 4138 513 4856 
z
" transform="scale(0.015625)"/>
     </defs>
     <use xlink:href="#DejaVuSans-28"/>
     <use xlink:href="#DejaVuSans-30" x="39.013672"/>
     <use xlink:href="#DejaVuSans-30" x="102.636719"/>
     <use xlink:href="#DejaVuSans-32" x="166.259766"/>
     <use xlink:href="#DejaVuSans-29" x="229.882812"/>
    </g>
   </g>
   <g id="text_26">
    <!-- SRO -->
    <g transform="translate(269.069834 54.040506) scale(0.1 -0.1)">
     <defs>
      <path id="DejaVuSans-52" d="M 2841 2188 
Q 3044 2119 3236 1894 
Q 3428 1669 3622 1275 
L 4263 0 
L 3584 0 
L 2988 1197 
Q 2756 1666 2539 1819 
Q 2322 1972 1947 1972 
L 1259 1972 
L 1259 0 
L 628 0 
L 628 4666 
L 2053 4666 
Q 2853 4666 3247 4331 
Q 3641 3997 3641 3322 
Q 3641 2881 3436 2590 
Q 3231 2300 2841 2188 
z
M 1259 4147 
L 1259 2491 
L 2053 2491 
Q 2509 2491 2742 2702 
Q 2975 2913 2975 3322 
Q 2975 3731 2742 3939 
Q 2509 4147 2053 4147 
L 1259 4147 
z
" transform="scale(0.015625)"/>
     </defs>
     <use xlink:href="#DejaVuSans-53"/>
     <use xlink:href="#DejaVuSans-52" x="63.476562"/>
     <use xlink:href="#DejaVuSans-4f" x="132.958984"/>
    </g>
    <!-- (220) -->
    <g transform="translate(266.208896 65.238319) scale(0.1 -0.1)">
     <use xlink:href="#DejaVuSans-28"/>
     <use xlink:href="#DejaVuSans-32" x="39.013672"/>
     <use xlink:href="#DejaVuSans-32" x="102.636719"/>
     <use xlink:href="#DejaVuSans-30" x="166.259766"/>
     <use xlink:href="#DejaVuSans-29" x="229.882812"/>
    </g>
   </g>
   <g id="text_27">
    <!-- SRO -->
    <g transform="translate(293.335975 195.093869) scale(0.1 -0.1)">
     <use xlink:href="#DejaVuSans-53"/>
     <use xlink:href="#DejaVuSans-52" x="63.476562"/>
     <use xlink:href="#DejaVuSans-4f" x="132.958984"/>
    </g>
    <!-- (bulk) -->
    <g transform="translate(289.391444 206.291681) scale(0.1 -0.1)">
     <defs>
      <path id="DejaVuSans-62" d="M 3116 1747 
Q 3116 2381 2855 2742 
Q 2594 3103 2138 3103 
Q 1681 3103 1420 2742 
Q 1159 2381 1159 1747 
Q 1159 1113 1420 752 
Q 1681 391 2138 391 
Q 2594 391 2855 752 
Q 3116 1113 3116 1747 
z
M 1159 2969 
Q 1341 3281 1617 3432 
Q 1894 3584 2278 3584 
Q 2916 3584 3314 3078 
Q 3713 2572 3713 1747 
Q 3713 922 3314 415 
Q 2916 -91 2278 -91 
Q 1894 -91 1617 61 
Q 1341 213 1159 525 
L 1159 0 
L 581 0 
L 581 4863 
L 1159 4863 
L 1159 2969 
z
" transform="scale(0.015625)"/>
      <path id="DejaVuSans-6b" d="M 581 4863 
L 1159 4863 
L 1159 1991 
L 2875 3500 
L 3609 3500 
L 1753 1863 
L 3688 0 
L 2938 0 
L 1159 1709 
L 1159 0 
L 581 0 
L 581 4863 
z
" transform="scale(0.015625)"/>
     </defs>
     <use xlink:href="#DejaVuSans-28"/>
     <use xlink:href="#DejaVuSans-62" x="39.013672"/>
     <use xlink:href="#DejaVuSans-75" x="102.490234"/>
     <use xlink:href="#DejaVuSans-6c" x="165.869141"/>
     <use xlink:href="#DejaVuSans-6b" x="193.652344"/>
     <use xlink:href="#DejaVuSans-29" x="251.5625"/>
    </g>
   </g>
   <g id="text_28">
    <!-- XRD Scans -->
    <g transform="translate(275.62436 20.88) scale(0.12 -0.12)">
     <defs>
      <path id="DejaVuSans-58" d="M 403 4666 
L 1081 4666 
L 2241 2931 
L 3406 4666 
L 4084 4666 
L 2584 2425 
L 4184 0 
L 3506 0 
L 2194 1984 
L 872 0 
L 191 0 
L 1856 2491 
L 403 4666 
z
" transform="scale(0.015625)"/>
      <path id="DejaVuSans-44" d="M 1259 4147 
L 1259 519 
L 2022 519 
Q 2988 519 3436 956 
Q 3884 1394 3884 2338 
Q 3884 3275 3436 3711 
Q 2988 4147 2022 4147 
L 1259 4147 
z
M 628 4666 
L 1925 4666 
Q 3281 4666 3915 4102 
Q 4550 3538 4550 2338 
Q 4550 1131 3912 565 
Q 3275 0 1925 0 
L 628 0 
L 628 4666 
z
" transform="scale(0.015625)"/>
      <path id="DejaVuSans-63" d="M 3122 3366 
L 3122 2828 
Q 2878 2963 2633 3030 
Q 2388 3097 2138 3097 
Q 1578 3097 1268 2742 
Q 959 2388 959 1747 
Q 959 1106 1268 751 
Q 1578 397 2138 397 
Q 2388 397 2633 464 
Q 2878 531 3122 666 
L 3122 134 
Q 2881 22 2623 -34 
Q 2366 -91 2075 -91 
Q 1284 -91 818 406 
Q 353 903 353 1747 
Q 353 2603 823 3093 
Q 1294 3584 2113 3584 
Q 2378 3584 2631 3529 
Q 2884 3475 3122 3366 
z
" transform="scale(0.015625)"/>
     </defs>
     <use xlink:href="#DejaVuSans-58"/>
     <use xlink:href="#DejaVuSans-52" x="68.505859"/>
     <use xlink:href="#DejaVuSans-44" x="137.988281"/>
     <use xlink:href="#DejaVuSans-20" x="214.990234"/>
     <use xlink:href="#DejaVuSans-53" x="246.777344"/>
     <use xlink:href="#DejaVuSans-63" x="310.253906"/>
     <use xlink:href="#DejaVuSans-61" x="365.234375"/>
     <use xlink:href="#DejaVuSans-6e" x="426.513672"/>
     <use xlink:href="#DejaVuSans-73" x="489.892578"/>
    </g>
   </g>
   <g id="legend_1">
    <g id="patch_7">
     <path d="M 388.612969 100.131562 
L 558.9 100.131562 
Q 560.7 100.131562 560.7 98.331562 
L 560.7 33.18 
Q 560.7 31.38 558.9 31.38 
L 388.612969 31.38 
Q 386.812969 31.38 386.812969 33.18 
L 386.812969 98.331562 
Q 386.812969 100.131562 388.612969 100.131562 
z
" style="fill: #ffffff; opacity: 0.8; stroke: #cccccc; stroke-linejoin: miter"/>
    </g>
    <g id="line2d_51">
     <path d="M 390.412969 38.668594 
L 399.412969 38.668594 
L 408.412969 38.668594 
" style="fill: none; stroke: #1f77b4; stroke-width: 1.5; stroke-linecap: square"/>
    </g>
    <g id="text_29">
     <!-- SRO(+): 45.9121, FWHM: 0.16 -->
     <g transform="translate(415.612969 41.818594) scale(0.09 -0.09)">
      <defs>
       <path id="DejaVuSans-2b" d="M 2944 4013 
L 2944 2272 
L 4684 2272 
L 4684 1741 
L 2944 1741 
L 2944 0 
L 2419 0 
L 2419 1741 
L 678 1741 
L 678 2272 
L 2419 2272 
L 2419 4013 
L 2944 4013 
z
" transform="scale(0.015625)"/>
       <path id="DejaVuSans-3a" d="M 750 794 
L 1409 794 
L 1409 0 
L 750 0 
L 750 794 
z
M 750 3309 
L 1409 3309 
L 1409 2516 
L 750 2516 
L 750 3309 
z
" transform="scale(0.015625)"/>
       <path id="DejaVuSans-b0" d="M 1600 4347 
Q 1350 4347 1178 4173 
Q 1006 4000 1006 3750 
Q 1006 3503 1178 3333 
Q 1350 3163 1600 3163 
Q 1850 3163 2022 3333 
Q 2194 3503 2194 3750 
Q 2194 3997 2020 4172 
Q 1847 4347 1600 4347 
z
M 1600 4750 
Q 1800 4750 1984 4673 
Q 2169 4597 2303 4453 
Q 2447 4313 2519 4134 
Q 2591 3956 2591 3750 
Q 2591 3338 2302 3052 
Q 2013 2766 1594 2766 
Q 1172 2766 890 3047 
Q 609 3328 609 3750 
Q 609 4169 896 4459 
Q 1184 4750 1600 4750 
z
" transform="scale(0.015625)"/>
       <path id="DejaVuSans-2c" d="M 750 794 
L 1409 794 
L 1409 256 
L 897 -744 
L 494 -744 
L 750 256 
L 750 794 
z
" transform="scale(0.015625)"/>
       <path id="DejaVuSans-46" d="M 628 4666 
L 3309 4666 
L 3309 4134 
L 1259 4134 
L 1259 2759 
L 3109 2759 
L 3109 2228 
L 1259 2228 
L 1259 0 
L 628 0 
L 628 4666 
z
" transform="scale(0.015625)"/>
       <path id="DejaVuSans-57" d="M 213 4666 
L 850 4666 
L 1831 722 
L 2809 4666 
L 3519 4666 
L 4500 722 
L 5478 4666 
L 6119 4666 
L 4947 0 
L 4153 0 
L 3169 4050 
L 2175 0 
L 1381 0 
L 213 4666 
z
" transform="scale(0.015625)"/>
       <path id="DejaVuSans-48" d="M 628 4666 
L 1259 4666 
L 1259 2753 
L 3553 2753 
L 3553 4666 
L 4184 4666 
L 4184 0 
L 3553 0 
L 3553 2222 
L 1259 2222 
L 1259 0 
L 628 0 
L 628 4666 
z
" transform="scale(0.015625)"/>
       <path id="DejaVuSans-4d" d="M 628 4666 
L 1569 4666 
L 2759 1491 
L 3956 4666 
L 4897 4666 
L 4897 0 
L 4281 0 
L 4281 4097 
L 3078 897 
L 2444 897 
L 1241 4097 
L 1241 0 
L 628 0 
L 628 4666 
z
" transform="scale(0.015625)"/>
      </defs>
      <use xlink:href="#DejaVuSans-53"/>
      <use xlink:href="#DejaVuSans-52" x="63.476562"/>
      <use xlink:href="#DejaVuSans-4f" x="132.958984"/>
      <use xlink:href="#DejaVuSans-28" x="211.669922"/>
      <use xlink:href="#DejaVuSans-2b" x="250.683594"/>
      <use xlink:href="#DejaVuSans-29" x="334.472656"/>
      <use xlink:href="#DejaVuSans-3a" x="373.486328"/>
      <use xlink:href="#DejaVuSans-20" x="407.177734"/>
      <use xlink:href="#DejaVuSans-34" x="438.964844"/>
      <use xlink:href="#DejaVuSans-35" x="502.587891"/>
      <use xlink:href="#DejaVuSans-2e" x="566.210938"/>
      <use xlink:href="#DejaVuSans-39" x="597.998047"/>
      <use xlink:href="#DejaVuSans-31" x="661.621094"/>
      <use xlink:href="#DejaVuSans-32" x="725.244141"/>
      <use xlink:href="#DejaVuSans-31" x="788.867188"/>
      <use xlink:href="#DejaVuSans-b0" x="852.490234"/>
      <use xlink:href="#DejaVuSans-2c" x="902.490234"/>
      <use xlink:href="#DejaVuSans-20" x="934.277344"/>
      <use xlink:href="#DejaVuSans-46" x="966.064453"/>
      <use xlink:href="#DejaVuSans-57" x="1023.583984"/>
      <use xlink:href="#DejaVuSans-48" x="1122.460938"/>
      <use xlink:href="#DejaVuSans-4d" x="1197.65625"/>
      <use xlink:href="#DejaVuSans-3a" x="1283.935547"/>
      <use xlink:href="#DejaVuSans-20" x="1317.626953"/>
      <use xlink:href="#DejaVuSans-30" x="1349.414062"/>
      <use xlink:href="#DejaVuSans-2e" x="1413.037109"/>
      <use xlink:href="#DejaVuSans-31" x="1444.824219"/>
      <use xlink:href="#DejaVuSans-36" x="1508.447266"/>
     </g>
    </g>
    <g id="line2d_52">
     <path d="M 390.412969 51.878906 
L 399.412969 51.878906 
L 408.412969 51.878906 
" style="fill: none; stroke: #ff7f0e; stroke-width: 1.5; stroke-linecap: square"/>
    </g>
    <g id="text_30">
     <!-- SRO(+): 45.9121, FWHM: 0.16 -->
     <g transform="translate(415.612969 55.028906) scale(0.09 -0.09)">
      <use xlink:href="#DejaVuSans-53"/>
      <use xlink:href="#DejaVuSans-52" x="63.476562"/>
      <use xlink:href="#DejaVuSans-4f" x="132.958984"/>
      <use xlink:href="#DejaVuSans-28" x="211.669922"/>
      <use xlink:href="#DejaVuSans-2b" x="250.683594"/>
      <use xlink:href="#DejaVuSans-29" x="334.472656"/>
      <use xlink:href="#DejaVuSans-3a" x="373.486328"/>
      <use xlink:href="#DejaVuSans-20" x="407.177734"/>
      <use xlink:href="#DejaVuSans-34" x="438.964844"/>
      <use xlink:href="#DejaVuSans-35" x="502.587891"/>
      <use xlink:href="#DejaVuSans-2e" x="566.210938"/>
      <use xlink:href="#DejaVuSans-39" x="597.998047"/>
      <use xlink:href="#DejaVuSans-31" x="661.621094"/>
      <use xlink:href="#DejaVuSans-32" x="725.244141"/>
      <use xlink:href="#DejaVuSans-31" x="788.867188"/>
      <use xlink:href="#DejaVuSans-b0" x="852.490234"/>
      <use xlink:href="#DejaVuSans-2c" x="902.490234"/>
      <use xlink:href="#DejaVuSans-20" x="934.277344"/>
      <use xlink:href="#DejaVuSans-46" x="966.064453"/>
      <use xlink:href="#DejaVuSans-57" x="1023.583984"/>
      <use xlink:href="#DejaVuSans-48" x="1122.460938"/>
      <use xlink:href="#DejaVuSans-4d" x="1197.65625"/>
      <use xlink:href="#DejaVuSans-3a" x="1283.935547"/>
      <use xlink:href="#DejaVuSans-20" x="1317.626953"/>
      <use xlink:href="#DejaVuSans-30" x="1349.414062"/>
      <use xlink:href="#DejaVuSans-2e" x="1413.037109"/>
      <use xlink:href="#DejaVuSans-31" x="1444.824219"/>
      <use xlink:href="#DejaVuSans-36" x="1508.447266"/>
     </g>
    </g>
    <g id="line2d_53">
     <path d="M 390.412969 65.089219 
L 399.412969 65.089219 
L 408.412969 65.089219 
" style="fill: none; stroke: #2ca02c; stroke-width: 1.5; stroke-linecap: square"/>
    </g>
    <g id="text_31">
     <!-- SRO(+): 45.9121, FWHM: 0.18 -->
     <g transform="translate(415.612969 68.239219) scale(0.09 -0.09)">
      <use xlink:href="#DejaVuSans-53"/>
      <use xlink:href="#DejaVuSans-52" x="63.476562"/>
      <use xlink:href="#DejaVuSans-4f" x="132.958984"/>
      <use xlink:href="#DejaVuSans-28" x="211.669922"/>
      <use xlink:href="#DejaVuSans-2b" x="250.683594"/>
      <use xlink:href="#DejaVuSans-29" x="334.472656"/>
      <use xlink:href="#DejaVuSans-3a" x="373.486328"/>
      <use xlink:href="#DejaVuSans-20" x="407.177734"/>
      <use xlink:href="#DejaVuSans-34" x="438.964844"/>
      <use xlink:href="#DejaVuSans-35" x="502.587891"/>
      <use xlink:href="#DejaVuSans-2e" x="566.210938"/>
      <use xlink:href="#DejaVuSans-39" x="597.998047"/>
      <use xlink:href="#DejaVuSans-31" x="661.621094"/>
      <use xlink:href="#DejaVuSans-32" x="725.244141"/>
      <use xlink:href="#DejaVuSans-31" x="788.867188"/>
      <use xlink:href="#DejaVuSans-b0" x="852.490234"/>
      <use xlink:href="#DejaVuSans-2c" x="902.490234"/>
      <use xlink:href="#DejaVuSans-20" x="934.277344"/>
      <use xlink:href="#DejaVuSans-46" x="966.064453"/>
      <use xlink:href="#DejaVuSans-57" x="1023.583984"/>
      <use xlink:href="#DejaVuSans-48" x="1122.460938"/>
      <use xlink:href="#DejaVuSans-4d" x="1197.65625"/>
      <use xlink:href="#DejaVuSans-3a" x="1283.935547"/>
      <use xlink:href="#DejaVuSans-20" x="1317.626953"/>
      <use xlink:href="#DejaVuSans-30" x="1349.414062"/>
      <use xlink:href="#DejaVuSans-2e" x="1413.037109"/>
      <use xlink:href="#DejaVuSans-31" x="1444.824219"/>
      <use xlink:href="#DejaVuSans-38" x="1508.447266"/>
     </g>
    </g>
    <g id="line2d_54">
     <path d="M 390.412969 78.299531 
L 399.412969 78.299531 
L 408.412969 78.299531 
" style="fill: none; stroke: #d62728; stroke-width: 1.5; stroke-linecap: square"/>
    </g>
    <g id="text_32">
     <!-- SRO(+): 45.9121, FWHM: 0.16 -->
     <g transform="translate(415.612969 81.449531) scale(0.09 -0.09)">
      <use xlink:href="#DejaVuSans-53"/>
      <use xlink:href="#DejaVuSans-52" x="63.476562"/>
      <use xlink:href="#DejaVuSans-4f" x="132.958984"/>
      <use xlink:href="#DejaVuSans-28" x="211.669922"/>
      <use xlink:href="#DejaVuSans-2b" x="250.683594"/>
      <use xlink:href="#DejaVuSans-29" x="334.472656"/>
      <use xlink:href="#DejaVuSans-3a" x="373.486328"/>
      <use xlink:href="#DejaVuSans-20" x="407.177734"/>
      <use xlink:href="#DejaVuSans-34" x="438.964844"/>
      <use xlink:href="#DejaVuSans-35" x="502.587891"/>
      <use xlink:href="#DejaVuSans-2e" x="566.210938"/>
      <use xlink:href="#DejaVuSans-39" x="597.998047"/>
      <use xlink:href="#DejaVuSans-31" x="661.621094"/>
      <use xlink:href="#DejaVuSans-32" x="725.244141"/>
      <use xlink:href="#DejaVuSans-31" x="788.867188"/>
      <use xlink:href="#DejaVuSans-b0" x="852.490234"/>
      <use xlink:href="#DejaVuSans-2c" x="902.490234"/>
      <use xlink:href="#DejaVuSans-20" x="934.277344"/>
      <use xlink:href="#DejaVuSans-46" x="966.064453"/>
      <use xlink:href="#DejaVuSans-57" x="1023.583984"/>
      <use xlink:href="#DejaVuSans-48" x="1122.460938"/>
      <use xlink:href="#DejaVuSans-4d" x="1197.65625"/>
      <use xlink:href="#DejaVuSans-3a" x="1283.935547"/>
      <use xlink:href="#DejaVuSans-20" x="1317.626953"/>
      <use xlink:href="#DejaVuSans-30" x="1349.414062"/>
      <use xlink:href="#DejaVuSans-2e" x="1413.037109"/>
      <use xlink:href="#DejaVuSans-31" x="1444.824219"/>
      <use xlink:href="#DejaVuSans-36" x="1508.447266"/>
     </g>
    </g>
    <g id="line2d_55">
     <path d="M 390.412969 91.509844 
L 399.412969 91.509844 
L 408.412969 91.509844 
" style="fill: none; stroke: #9467bd; stroke-width: 1.5; stroke-linecap: square"/>
    </g>
    <g id="text_33">
     <!-- SRO(+): 45.8921, FWHM: 0.14 -->
     <g transform="translate(415.612969 94.659844) scale(0.09 -0.09)">
      <use xlink:href="#DejaVuSans-53"/>
      <use xlink:href="#DejaVuSans-52" x="63.476562"/>
      <use xlink:href="#DejaVuSans-4f" x="132.958984"/>
      <use xlink:href="#DejaVuSans-28" x="211.669922"/>
      <use xlink:href="#DejaVuSans-2b" x="250.683594"/>
      <use xlink:href="#DejaVuSans-29" x="334.472656"/>
      <use xlink:href="#DejaVuSans-3a" x="373.486328"/>
      <use xlink:href="#DejaVuSans-20" x="407.177734"/>
      <use xlink:href="#DejaVuSans-34" x="438.964844"/>
      <use xlink:href="#DejaVuSans-35" x="502.587891"/>
      <use xlink:href="#DejaVuSans-2e" x="566.210938"/>
      <use xlink:href="#DejaVuSans-38" x="597.998047"/>
      <use xlink:href="#DejaVuSans-39" x="661.621094"/>
      <use xlink:href="#DejaVuSans-32" x="725.244141"/>
      <use xlink:href="#DejaVuSans-31" x="788.867188"/>
      <use xlink:href="#DejaVuSans-b0" x="852.490234"/>
      <use xlink:href="#DejaVuSans-2c" x="902.490234"/>
      <use xlink:href="#DejaVuSans-20" x="934.277344"/>
      <use xlink:href="#DejaVuSans-46" x="966.064453"/>
      <use xlink:href="#DejaVuSans-57" x="1023.583984"/>
      <use xlink:href="#DejaVuSans-48" x="1122.460938"/>
      <use xlink:href="#DejaVuSans-4d" x="1197.65625"/>
      <use xlink:href="#DejaVuSans-3a" x="1283.935547"/>
      <use xlink:href="#DejaVuSans-20" x="1317.626953"/>
      <use xlink:href="#DejaVuSans-30" x="1349.414062"/>
      <use xlink:href="#DejaVuSans-2e" x="1413.037109"/>
      <use xlink:href="#DejaVuSans-31" x="1444.824219"/>
      <use xlink:href="#DejaVuSans-34" x="1508.447266"/>
     </g>
    </g>
   </g>
  </g>
 </g>
 <defs>
  <clipPath id="pe92f1f6c6b">
   <rect x="51.086844" y="26.88" width="514.113156" height="186.66"/>
  </clipPath>
 </defs>
</svg>
