<?xml version="1.0" encoding="utf-8" standalone="no"?>
<!DOCTYPE svg PUBLIC "-//W3C//DTD SVG 1.1//EN"
  "http://www.w3.org/Graphics/SVG/1.1/DTD/svg11.dtd">
<svg xmlns:xlink="http://www.w3.org/1999/xlink" width="576pt" height="288pt" viewBox="0 0 576 288" xmlns="http://www.w3.org/2000/svg" version="1.1">
 <metadata>
  <rdf:RDF xmlns:dc="http://purl.org/dc/elements/1.1/" xmlns:cc="http://creativecommons.org/ns#" xmlns:rdf="http://www.w3.org/1999/02/22-rdf-syntax-ns#">
   <cc:Work>
    <dc:type rdf:resource="http://purl.org/dc/dcmitype/StillImage"/>
    <dc:date>2024-10-30T16:33:01.634536</dc:date>
    <dc:format>image/svg+xml</dc:format>
    <dc:creator>
     <cc:Agent>
      <dc:title>Matplotlib v3.8.3, https://matplotlib.org/</dc:title>
     </cc:Agent>
    </dc:creator>
   </cc:Work>
  </rdf:RDF>
 </metadata>
 <defs>
  <style type="text/css">*{stroke-linejoin: round; stroke-linecap: butt}</style>
 </defs>
 <g id="figure_1">
  <g id="patch_1">
   <path d="M 0 288 
L 576 288 
L 576 0 
L 0 0 
z
" style="fill: #ffffff"/>
  </g>
  <g id="axes_1">
   <g id="patch_2">
    <path d="M 50.078125 250.34375 
L 565.2 250.34375 
L 565.2 25.918125 
L 50.078125 25.918125 
z
" style="fill: #ffffff"/>
   </g>
   <g id="matplotlib.axis_1">
    <g id="xtick_1">
     <g id="line2d_1">
      <defs>
       <path id="m8a094c6b34" d="M 0 0 
L 0 -3.5 
" style="stroke: #000000; stroke-width: 0.8"/>
      </defs>
      <g>
       <use xlink:href="#m8a094c6b34" x="64.795893" y="250.34375" style="stroke: #000000; stroke-width: 0.8"/>
      </g>
     </g>
     <g id="line2d_2">
      <defs>
       <path id="m4cefd85155" d="M 0 0 
L 0 3.5 
" style="stroke: #000000; stroke-width: 0.8"/>
      </defs>
      <g>
       <use xlink:href="#m4cefd85155" x="64.795893" y="25.918125" style="stroke: #000000; stroke-width: 0.8"/>
      </g>
     </g>
     <g id="text_1">
      <!-- 43 -->
      <g transform="translate(58.433393 261.442187) scale(0.1 -0.1)">
       <defs>
        <path id="DejaVuSans-34" d="M 2419 4116 
L 825 1625 
L 2419 1625 
L 2419 4116 
z
M 2253 4666 
L 3047 4666 
L 3047 1625 
L 3713 1625 
L 3713 1100 
L 3047 1100 
L 3047 0 
L 2419 0 
L 2419 1100 
L 313 1100 
L 313 1709 
L 2253 4666 
z
" transform="scale(0.015625)"/>
        <path id="DejaVuSans-33" d="M 2597 2516 
Q 3050 2419 3304 2112 
Q 3559 1806 3559 1356 
Q 3559 666 3084 287 
Q 2609 -91 1734 -91 
Q 1441 -91 1130 -33 
Q 819 25 488 141 
L 488 750 
Q 750 597 1062 519 
Q 1375 441 1716 441 
Q 2309 441 2620 675 
Q 2931 909 2931 1356 
Q 2931 1769 2642 2001 
Q 2353 2234 1838 2234 
L 1294 2234 
L 1294 2753 
L 1863 2753 
Q 2328 2753 2575 2939 
Q 2822 3125 2822 3475 
Q 2822 3834 2567 4026 
Q 2313 4219 1838 4219 
Q 1578 4219 1281 4162 
Q 984 4106 628 3988 
L 628 4550 
Q 988 4650 1302 4700 
Q 1616 4750 1894 4750 
Q 2613 4750 3031 4423 
Q 3450 4097 3450 3541 
Q 3450 3153 3228 2886 
Q 3006 2619 2597 2516 
z
" transform="scale(0.015625)"/>
       </defs>
       <use xlink:href="#DejaVuSans-34"/>
       <use xlink:href="#DejaVuSans-33" x="63.623047"/>
      </g>
     </g>
    </g>
    <g id="xtick_2">
     <g id="line2d_3">
      <g>
       <use xlink:href="#m8a094c6b34" x="138.384732" y="250.34375" style="stroke: #000000; stroke-width: 0.8"/>
      </g>
     </g>
     <g id="line2d_4">
      <g>
       <use xlink:href="#m4cefd85155" x="138.384732" y="25.918125" style="stroke: #000000; stroke-width: 0.8"/>
      </g>
     </g>
     <g id="text_2">
      <!-- 44 -->
      <g transform="translate(132.022232 261.442187) scale(0.1 -0.1)">
       <use xlink:href="#DejaVuSans-34"/>
       <use xlink:href="#DejaVuSans-34" x="63.623047"/>
      </g>
     </g>
    </g>
    <g id="xtick_3">
     <g id="line2d_5">
      <g>
       <use xlink:href="#m8a094c6b34" x="211.973571" y="250.34375" style="stroke: #000000; stroke-width: 0.8"/>
      </g>
     </g>
     <g id="line2d_6">
      <g>
       <use xlink:href="#m4cefd85155" x="211.973571" y="25.918125" style="stroke: #000000; stroke-width: 0.8"/>
      </g>
     </g>
     <g id="text_3">
      <!-- 45 -->
      <g transform="translate(205.611071 261.442187) scale(0.1 -0.1)">
       <defs>
        <path id="DejaVuSans-35" d="M 691 4666 
L 3169 4666 
L 3169 4134 
L 1269 4134 
L 1269 2991 
Q 1406 3038 1543 3061 
Q 1681 3084 1819 3084 
Q 2600 3084 3056 2656 
Q 3513 2228 3513 1497 
Q 3513 744 3044 326 
Q 2575 -91 1722 -91 
Q 1428 -91 1123 -41 
Q 819 9 494 109 
L 494 744 
Q 775 591 1075 516 
Q 1375 441 1709 441 
Q 2250 441 2565 725 
Q 2881 1009 2881 1497 
Q 2881 1984 2565 2268 
Q 2250 2553 1709 2553 
Q 1456 2553 1204 2497 
Q 953 2441 691 2322 
L 691 4666 
z
" transform="scale(0.015625)"/>
       </defs>
       <use xlink:href="#DejaVuSans-34"/>
       <use xlink:href="#DejaVuSans-35" x="63.623047"/>
      </g>
     </g>
    </g>
    <g id="xtick_4">
     <g id="line2d_7">
      <g>
       <use xlink:href="#m8a094c6b34" x="285.562411" y="250.34375" style="stroke: #000000; stroke-width: 0.8"/>
      </g>
     </g>
     <g id="line2d_8">
      <g>
       <use xlink:href="#m4cefd85155" x="285.562411" y="25.918125" style="stroke: #000000; stroke-width: 0.8"/>
      </g>
     </g>
     <g id="text_4">
      <!-- 46 -->
      <g transform="translate(279.199911 261.442187) scale(0.1 -0.1)">
       <defs>
        <path id="DejaVuSans-36" d="M 2113 2584 
Q 1688 2584 1439 2293 
Q 1191 2003 1191 1497 
Q 1191 994 1439 701 
Q 1688 409 2113 409 
Q 2538 409 2786 701 
Q 3034 994 3034 1497 
Q 3034 2003 2786 2293 
Q 2538 2584 2113 2584 
z
M 3366 4563 
L 3366 3988 
Q 3128 4100 2886 4159 
Q 2644 4219 2406 4219 
Q 1781 4219 1451 3797 
Q 1122 3375 1075 2522 
Q 1259 2794 1537 2939 
Q 1816 3084 2150 3084 
Q 2853 3084 3261 2657 
Q 3669 2231 3669 1497 
Q 3669 778 3244 343 
Q 2819 -91 2113 -91 
Q 1303 -91 875 529 
Q 447 1150 447 2328 
Q 447 3434 972 4092 
Q 1497 4750 2381 4750 
Q 2619 4750 2861 4703 
Q 3103 4656 3366 4563 
z
" transform="scale(0.015625)"/>
       </defs>
       <use xlink:href="#DejaVuSans-34"/>
       <use xlink:href="#DejaVuSans-36" x="63.623047"/>
      </g>
     </g>
    </g>
    <g id="xtick_5">
     <g id="line2d_9">
      <g>
       <use xlink:href="#m8a094c6b34" x="359.15125" y="250.34375" style="stroke: #000000; stroke-width: 0.8"/>
      </g>
     </g>
     <g id="line2d_10">
      <g>
       <use xlink:href="#m4cefd85155" x="359.15125" y="25.918125" style="stroke: #000000; stroke-width: 0.8"/>
      </g>
     </g>
     <g id="text_5">
      <!-- 47 -->
      <g transform="translate(352.78875 261.442187) scale(0.1 -0.1)">
       <defs>
        <path id="DejaVuSans-37" d="M 525 4666 
L 3525 4666 
L 3525 4397 
L 1831 0 
L 1172 0 
L 2766 4134 
L 525 4134 
L 525 4666 
z
" transform="scale(0.015625)"/>
       </defs>
       <use xlink:href="#DejaVuSans-34"/>
       <use xlink:href="#DejaVuSans-37" x="63.623047"/>
      </g>
     </g>
    </g>
    <g id="xtick_6">
     <g id="line2d_11">
      <g>
       <use xlink:href="#m8a094c6b34" x="432.740089" y="250.34375" style="stroke: #000000; stroke-width: 0.8"/>
      </g>
     </g>
     <g id="line2d_12">
      <g>
       <use xlink:href="#m4cefd85155" x="432.740089" y="25.918125" style="stroke: #000000; stroke-width: 0.8"/>
      </g>
     </g>
     <g id="text_6">
      <!-- 48 -->
      <g transform="translate(426.377589 261.442187) scale(0.1 -0.1)">
       <defs>
        <path id="DejaVuSans-38" d="M 2034 2216 
Q 1584 2216 1326 1975 
Q 1069 1734 1069 1313 
Q 1069 891 1326 650 
Q 1584 409 2034 409 
Q 2484 409 2743 651 
Q 3003 894 3003 1313 
Q 3003 1734 2745 1975 
Q 2488 2216 2034 2216 
z
M 1403 2484 
Q 997 2584 770 2862 
Q 544 3141 544 3541 
Q 544 4100 942 4425 
Q 1341 4750 2034 4750 
Q 2731 4750 3128 4425 
Q 3525 4100 3525 3541 
Q 3525 3141 3298 2862 
Q 3072 2584 2669 2484 
Q 3125 2378 3379 2068 
Q 3634 1759 3634 1313 
Q 3634 634 3220 271 
Q 2806 -91 2034 -91 
Q 1263 -91 848 271 
Q 434 634 434 1313 
Q 434 1759 690 2068 
Q 947 2378 1403 2484 
z
M 1172 3481 
Q 1172 3119 1398 2916 
Q 1625 2713 2034 2713 
Q 2441 2713 2670 2916 
Q 2900 3119 2900 3481 
Q 2900 3844 2670 4047 
Q 2441 4250 2034 4250 
Q 1625 4250 1398 4047 
Q 1172 3844 1172 3481 
z
" transform="scale(0.015625)"/>
       </defs>
       <use xlink:href="#DejaVuSans-34"/>
       <use xlink:href="#DejaVuSans-38" x="63.623047"/>
      </g>
     </g>
    </g>
    <g id="xtick_7">
     <g id="line2d_13">
      <g>
       <use xlink:href="#m8a094c6b34" x="506.328929" y="250.34375" style="stroke: #000000; stroke-width: 0.8"/>
      </g>
     </g>
     <g id="line2d_14">
      <g>
       <use xlink:href="#m4cefd85155" x="506.328929" y="25.918125" style="stroke: #000000; stroke-width: 0.8"/>
      </g>
     </g>
     <g id="text_7">
      <!-- 49 -->
      <g transform="translate(499.966429 261.442187) scale(0.1 -0.1)">
       <defs>
        <path id="DejaVuSans-39" d="M 703 97 
L 703 672 
Q 941 559 1184 500 
Q 1428 441 1663 441 
Q 2288 441 2617 861 
Q 2947 1281 2994 2138 
Q 2813 1869 2534 1725 
Q 2256 1581 1919 1581 
Q 1219 1581 811 2004 
Q 403 2428 403 3163 
Q 403 3881 828 4315 
Q 1253 4750 1959 4750 
Q 2769 4750 3195 4129 
Q 3622 3509 3622 2328 
Q 3622 1225 3098 567 
Q 2575 -91 1691 -91 
Q 1453 -91 1209 -44 
Q 966 3 703 97 
z
M 1959 2075 
Q 2384 2075 2632 2365 
Q 2881 2656 2881 3163 
Q 2881 3666 2632 3958 
Q 2384 4250 1959 4250 
Q 1534 4250 1286 3958 
Q 1038 3666 1038 3163 
Q 1038 2656 1286 2365 
Q 1534 2075 1959 2075 
z
" transform="scale(0.015625)"/>
       </defs>
       <use xlink:href="#DejaVuSans-34"/>
       <use xlink:href="#DejaVuSans-39" x="63.623047"/>
      </g>
     </g>
    </g>
    <g id="text_8">
     <!-- 2$\Theta$ [°] -->
     <g transform="translate(292.489062 275.120313) scale(0.1 -0.1)">
      <defs>
       <path id="DejaVuSans-32" d="M 1228 531 
L 3431 531 
L 3431 0 
L 469 0 
L 469 531 
Q 828 903 1448 1529 
Q 2069 2156 2228 2338 
Q 2531 2678 2651 2914 
Q 2772 3150 2772 3378 
Q 2772 3750 2511 3984 
Q 2250 4219 1831 4219 
Q 1534 4219 1204 4116 
Q 875 4013 500 3803 
L 500 4441 
Q 881 4594 1212 4672 
Q 1544 4750 1819 4750 
Q 2544 4750 2975 4387 
Q 3406 4025 3406 3419 
Q 3406 3131 3298 2873 
Q 3191 2616 2906 2266 
Q 2828 2175 2409 1742 
Q 1991 1309 1228 531 
z
" transform="scale(0.015625)"/>
       <path id="DejaVuSans-398" d="M 1416 2750 
L 3622 2750 
L 3622 2219 
L 1416 2219 
L 1416 2750 
z
M 2522 4238 
Q 1834 4238 1431 3725 
Q 1025 3213 1025 2328 
Q 1025 1447 1429 934 
Q 1834 422 2522 422 
Q 3209 422 3613 934 
Q 4013 1447 4013 2328 
Q 4013 3213 3613 3725 
Q 3209 4238 2522 4238 
z
M 2522 4750 
Q 3503 4750 4090 4092 
Q 4678 3434 4678 2328 
Q 4678 1225 4091 569 
Q 3503 -91 2522 -91 
Q 1538 -91 950 566 
Q 359 1222 359 2328 
Q 359 3434 950 4094 
Q 1538 4750 2522 4750 
z
" transform="scale(0.015625)"/>
       <path id="DejaVuSans-20" transform="scale(0.015625)"/>
       <path id="DejaVuSans-5b" d="M 550 4863 
L 1875 4863 
L 1875 4416 
L 1125 4416 
L 1125 -397 
L 1875 -397 
L 1875 -844 
L 550 -844 
L 550 4863 
z
" transform="scale(0.015625)"/>
       <path id="DejaVuSans-b0" d="M 1600 4347 
Q 1350 4347 1178 4173 
Q 1006 4000 1006 3750 
Q 1006 3503 1178 3333 
Q 1350 3163 1600 3163 
Q 1850 3163 2022 3333 
Q 2194 3503 2194 3750 
Q 2194 3997 2020 4172 
Q 1847 4347 1600 4347 
z
M 1600 4750 
Q 1800 4750 1984 4673 
Q 2169 4597 2303 4453 
Q 2447 4313 2519 4134 
Q 2591 3956 2591 3750 
Q 2591 3338 2302 3052 
Q 2013 2766 1594 2766 
Q 1172 2766 890 3047 
Q 609 3328 609 3750 
Q 609 4169 896 4459 
Q 1184 4750 1600 4750 
z
" transform="scale(0.015625)"/>
       <path id="DejaVuSans-5d" d="M 1947 4863 
L 1947 -844 
L 622 -844 
L 622 -397 
L 1369 -397 
L 1369 4416 
L 622 4416 
L 622 4863 
L 1947 4863 
z
" transform="scale(0.015625)"/>
      </defs>
      <use xlink:href="#DejaVuSans-32" transform="translate(0 0.015625)"/>
      <use xlink:href="#DejaVuSans-398" transform="translate(63.623047 0.015625)"/>
      <use xlink:href="#DejaVuSans-20" transform="translate(142.333984 0.015625)"/>
      <use xlink:href="#DejaVuSans-5b" transform="translate(174.121094 0.015625)"/>
      <use xlink:href="#DejaVuSans-b0" transform="translate(213.134766 0.015625)"/>
      <use xlink:href="#DejaVuSans-5d" transform="translate(263.134766 0.015625)"/>
     </g>
    </g>
   </g>
   <g id="matplotlib.axis_2">
    <g id="ytick_1">
     <g id="line2d_15">
      <defs>
       <path id="m096ba84153" d="M 0 0 
L 3.5 0 
" style="stroke: #000000; stroke-width: 0.8"/>
      </defs>
      <g>
       <use xlink:href="#m096ba84153" x="50.078125" y="233.46704" style="stroke: #000000; stroke-width: 0.8"/>
      </g>
     </g>
     <g id="line2d_16">
      <defs>
       <path id="mdd250687fb" d="M 0 0 
L -3.5 0 
" style="stroke: #000000; stroke-width: 0.8"/>
      </defs>
      <g>
       <use xlink:href="#mdd250687fb" x="565.2" y="233.46704" style="stroke: #000000; stroke-width: 0.8"/>
      </g>
     </g>
     <g id="text_9">
      <!-- $\mathdefault{10^{2}}$ -->
      <g transform="translate(28.978125 237.266259) scale(0.1 -0.1)">
       <defs>
        <path id="DejaVuSans-31" d="M 794 531 
L 1825 531 
L 1825 4091 
L 703 3866 
L 703 4441 
L 1819 4666 
L 2450 4666 
L 2450 531 
L 3481 531 
L 3481 0 
L 794 0 
L 794 531 
z
" transform="scale(0.015625)"/>
        <path id="DejaVuSans-30" d="M 2034 4250 
Q 1547 4250 1301 3770 
Q 1056 3291 1056 2328 
Q 1056 1369 1301 889 
Q 1547 409 2034 409 
Q 2525 409 2770 889 
Q 3016 1369 3016 2328 
Q 3016 3291 2770 3770 
Q 2525 4250 2034 4250 
z
M 2034 4750 
Q 2819 4750 3233 4129 
Q 3647 3509 3647 2328 
Q 3647 1150 3233 529 
Q 2819 -91 2034 -91 
Q 1250 -91 836 529 
Q 422 1150 422 2328 
Q 422 3509 836 4129 
Q 1250 4750 2034 4750 
z
" transform="scale(0.015625)"/>
       </defs>
       <use xlink:href="#DejaVuSans-31" transform="translate(0 0.765625)"/>
       <use xlink:href="#DejaVuSans-30" transform="translate(63.623047 0.765625)"/>
       <use xlink:href="#DejaVuSans-32" transform="translate(128.203125 39.046875) scale(0.7)"/>
      </g>
     </g>
    </g>
    <g id="ytick_2">
     <g id="line2d_17">
      <g>
       <use xlink:href="#m096ba84153" x="50.078125" y="207.523425" style="stroke: #000000; stroke-width: 0.8"/>
      </g>
     </g>
     <g id="line2d_18">
      <g>
       <use xlink:href="#mdd250687fb" x="565.2" y="207.523425" style="stroke: #000000; stroke-width: 0.8"/>
      </g>
     </g>
     <g id="text_10">
      <!-- $\mathdefault{10^{4}}$ -->
      <g transform="translate(28.978125 211.322644) scale(0.1 -0.1)">
       <use xlink:href="#DejaVuSans-31" transform="translate(0 0.684375)"/>
       <use xlink:href="#DejaVuSans-30" transform="translate(63.623047 0.684375)"/>
       <use xlink:href="#DejaVuSans-34" transform="translate(128.203125 38.965625) scale(0.7)"/>
      </g>
     </g>
    </g>
    <g id="ytick_3">
     <g id="line2d_19">
      <g>
       <use xlink:href="#m096ba84153" x="50.078125" y="181.579811" style="stroke: #000000; stroke-width: 0.8"/>
      </g>
     </g>
     <g id="line2d_20">
      <g>
       <use xlink:href="#mdd250687fb" x="565.2" y="181.579811" style="stroke: #000000; stroke-width: 0.8"/>
      </g>
     </g>
     <g id="text_11">
      <!-- $\mathdefault{10^{6}}$ -->
      <g transform="translate(28.978125 185.37903) scale(0.1 -0.1)">
       <use xlink:href="#DejaVuSans-31" transform="translate(0 0.765625)"/>
       <use xlink:href="#DejaVuSans-30" transform="translate(63.623047 0.765625)"/>
       <use xlink:href="#DejaVuSans-36" transform="translate(128.203125 39.046875) scale(0.7)"/>
      </g>
     </g>
    </g>
    <g id="ytick_4">
     <g id="line2d_21">
      <g>
       <use xlink:href="#m096ba84153" x="50.078125" y="155.636197" style="stroke: #000000; stroke-width: 0.8"/>
      </g>
     </g>
     <g id="line2d_22">
      <g>
       <use xlink:href="#mdd250687fb" x="565.2" y="155.636197" style="stroke: #000000; stroke-width: 0.8"/>
      </g>
     </g>
     <g id="text_12">
      <!-- $\mathdefault{10^{8}}$ -->
      <g transform="translate(28.978125 159.435415) scale(0.1 -0.1)">
       <use xlink:href="#DejaVuSans-31" transform="translate(0 0.765625)"/>
       <use xlink:href="#DejaVuSans-30" transform="translate(63.623047 0.765625)"/>
       <use xlink:href="#DejaVuSans-38" transform="translate(128.203125 39.046875) scale(0.7)"/>
      </g>
     </g>
    </g>
    <g id="ytick_5">
     <g id="line2d_23">
      <g>
       <use xlink:href="#m096ba84153" x="50.078125" y="129.692582" style="stroke: #000000; stroke-width: 0.8"/>
      </g>
     </g>
     <g id="line2d_24">
      <g>
       <use xlink:href="#mdd250687fb" x="565.2" y="129.692582" style="stroke: #000000; stroke-width: 0.8"/>
      </g>
     </g>
     <g id="text_13">
      <!-- $\mathdefault{10^{10}}$ -->
      <g transform="translate(24.478125 133.491801) scale(0.1 -0.1)">
       <use xlink:href="#DejaVuSans-31" transform="translate(0 0.765625)"/>
       <use xlink:href="#DejaVuSans-30" transform="translate(63.623047 0.765625)"/>
       <use xlink:href="#DejaVuSans-31" transform="translate(128.203125 39.046875) scale(0.7)"/>
       <use xlink:href="#DejaVuSans-30" transform="translate(172.739258 39.046875) scale(0.7)"/>
      </g>
     </g>
    </g>
    <g id="ytick_6">
     <g id="line2d_25">
      <g>
       <use xlink:href="#m096ba84153" x="50.078125" y="103.748968" style="stroke: #000000; stroke-width: 0.8"/>
      </g>
     </g>
     <g id="line2d_26">
      <g>
       <use xlink:href="#mdd250687fb" x="565.2" y="103.748968" style="stroke: #000000; stroke-width: 0.8"/>
      </g>
     </g>
     <g id="text_14">
      <!-- $\mathdefault{10^{12}}$ -->
      <g transform="translate(24.478125 107.548187) scale(0.1 -0.1)">
       <use xlink:href="#DejaVuSans-31" transform="translate(0 0.765625)"/>
       <use xlink:href="#DejaVuSans-30" transform="translate(63.623047 0.765625)"/>
       <use xlink:href="#DejaVuSans-31" transform="translate(128.203125 39.046875) scale(0.7)"/>
       <use xlink:href="#DejaVuSans-32" transform="translate(172.739258 39.046875) scale(0.7)"/>
      </g>
     </g>
    </g>
    <g id="ytick_7">
     <g id="line2d_27">
      <g>
       <use xlink:href="#m096ba84153" x="50.078125" y="77.805354" style="stroke: #000000; stroke-width: 0.8"/>
      </g>
     </g>
     <g id="line2d_28">
      <g>
       <use xlink:href="#mdd250687fb" x="565.2" y="77.805354" style="stroke: #000000; stroke-width: 0.8"/>
      </g>
     </g>
     <g id="text_15">
      <!-- $\mathdefault{10^{14}}$ -->
      <g transform="translate(24.478125 81.604572) scale(0.1 -0.1)">
       <use xlink:href="#DejaVuSans-31" transform="translate(0 0.684375)"/>
       <use xlink:href="#DejaVuSans-30" transform="translate(63.623047 0.684375)"/>
       <use xlink:href="#DejaVuSans-31" transform="translate(128.203125 38.965625) scale(0.7)"/>
       <use xlink:href="#DejaVuSans-34" transform="translate(172.739258 38.965625) scale(0.7)"/>
      </g>
     </g>
    </g>
    <g id="ytick_8">
     <g id="line2d_29">
      <g>
       <use xlink:href="#m096ba84153" x="50.078125" y="51.861739" style="stroke: #000000; stroke-width: 0.8"/>
      </g>
     </g>
     <g id="line2d_30">
      <g>
       <use xlink:href="#mdd250687fb" x="565.2" y="51.861739" style="stroke: #000000; stroke-width: 0.8"/>
      </g>
     </g>
     <g id="text_16">
      <!-- $\mathdefault{10^{16}}$ -->
      <g transform="translate(24.478125 55.660958) scale(0.1 -0.1)">
       <use xlink:href="#DejaVuSans-31" transform="translate(0 0.765625)"/>
       <use xlink:href="#DejaVuSans-30" transform="translate(63.623047 0.765625)"/>
       <use xlink:href="#DejaVuSans-31" transform="translate(128.203125 39.046875) scale(0.7)"/>
       <use xlink:href="#DejaVuSans-36" transform="translate(172.739258 39.046875) scale(0.7)"/>
      </g>
     </g>
    </g>
    <g id="ytick_9">
     <g id="line2d_31">
      <g>
       <use xlink:href="#m096ba84153" x="50.078125" y="25.918125" style="stroke: #000000; stroke-width: 0.8"/>
      </g>
     </g>
     <g id="line2d_32">
      <g>
       <use xlink:href="#mdd250687fb" x="565.2" y="25.918125" style="stroke: #000000; stroke-width: 0.8"/>
      </g>
     </g>
     <g id="text_17">
      <!-- $\mathdefault{10^{18}}$ -->
      <g transform="translate(24.478125 29.717344) scale(0.1 -0.1)">
       <use xlink:href="#DejaVuSans-31" transform="translate(0 0.765625)"/>
       <use xlink:href="#DejaVuSans-30" transform="translate(63.623047 0.765625)"/>
       <use xlink:href="#DejaVuSans-31" transform="translate(128.203125 39.046875) scale(0.7)"/>
       <use xlink:href="#DejaVuSans-38" transform="translate(172.739258 39.046875) scale(0.7)"/>
      </g>
     </g>
    </g>
    <g id="text_18">
     <!-- Intensity [a.u.] -->
     <g transform="translate(18.398438 174.795) rotate(-90) scale(0.1 -0.1)">
      <defs>
       <path id="DejaVuSans-49" d="M 628 4666 
L 1259 4666 
L 1259 0 
L 628 0 
L 628 4666 
z
" transform="scale(0.015625)"/>
       <path id="DejaVuSans-6e" d="M 3513 2113 
L 3513 0 
L 2938 0 
L 2938 2094 
Q 2938 2591 2744 2837 
Q 2550 3084 2163 3084 
Q 1697 3084 1428 2787 
Q 1159 2491 1159 1978 
L 1159 0 
L 581 0 
L 581 3500 
L 1159 3500 
L 1159 2956 
Q 1366 3272 1645 3428 
Q 1925 3584 2291 3584 
Q 2894 3584 3203 3211 
Q 3513 2838 3513 2113 
z
" transform="scale(0.015625)"/>
       <path id="DejaVuSans-74" d="M 1172 4494 
L 1172 3500 
L 2356 3500 
L 2356 3053 
L 1172 3053 
L 1172 1153 
Q 1172 725 1289 603 
Q 1406 481 1766 481 
L 2356 481 
L 2356 0 
L 1766 0 
Q 1100 0 847 248 
Q 594 497 594 1153 
L 594 3053 
L 172 3053 
L 172 3500 
L 594 3500 
L 594 4494 
L 1172 4494 
z
" transform="scale(0.015625)"/>
       <path id="DejaVuSans-65" d="M 3597 1894 
L 3597 1613 
L 953 1613 
Q 991 1019 1311 708 
Q 1631 397 2203 397 
Q 2534 397 2845 478 
Q 3156 559 3463 722 
L 3463 178 
Q 3153 47 2828 -22 
Q 2503 -91 2169 -91 
Q 1331 -91 842 396 
Q 353 884 353 1716 
Q 353 2575 817 3079 
Q 1281 3584 2069 3584 
Q 2775 3584 3186 3129 
Q 3597 2675 3597 1894 
z
M 3022 2063 
Q 3016 2534 2758 2815 
Q 2500 3097 2075 3097 
Q 1594 3097 1305 2825 
Q 1016 2553 972 2059 
L 3022 2063 
z
" transform="scale(0.015625)"/>
       <path id="DejaVuSans-73" d="M 2834 3397 
L 2834 2853 
Q 2591 2978 2328 3040 
Q 2066 3103 1784 3103 
Q 1356 3103 1142 2972 
Q 928 2841 928 2578 
Q 928 2378 1081 2264 
Q 1234 2150 1697 2047 
L 1894 2003 
Q 2506 1872 2764 1633 
Q 3022 1394 3022 966 
Q 3022 478 2636 193 
Q 2250 -91 1575 -91 
Q 1294 -91 989 -36 
Q 684 19 347 128 
L 347 722 
Q 666 556 975 473 
Q 1284 391 1588 391 
Q 1994 391 2212 530 
Q 2431 669 2431 922 
Q 2431 1156 2273 1281 
Q 2116 1406 1581 1522 
L 1381 1569 
Q 847 1681 609 1914 
Q 372 2147 372 2553 
Q 372 3047 722 3315 
Q 1072 3584 1716 3584 
Q 2034 3584 2315 3537 
Q 2597 3491 2834 3397 
z
" transform="scale(0.015625)"/>
       <path id="DejaVuSans-69" d="M 603 3500 
L 1178 3500 
L 1178 0 
L 603 0 
L 603 3500 
z
M 603 4863 
L 1178 4863 
L 1178 4134 
L 603 4134 
L 603 4863 
z
" transform="scale(0.015625)"/>
       <path id="DejaVuSans-79" d="M 2059 -325 
Q 1816 -950 1584 -1140 
Q 1353 -1331 966 -1331 
L 506 -1331 
L 506 -850 
L 844 -850 
Q 1081 -850 1212 -737 
Q 1344 -625 1503 -206 
L 1606 56 
L 191 3500 
L 800 3500 
L 1894 763 
L 2988 3500 
L 3597 3500 
L 2059 -325 
z
" transform="scale(0.015625)"/>
       <path id="DejaVuSans-61" d="M 2194 1759 
Q 1497 1759 1228 1600 
Q 959 1441 959 1056 
Q 959 750 1161 570 
Q 1363 391 1709 391 
Q 2188 391 2477 730 
Q 2766 1069 2766 1631 
L 2766 1759 
L 2194 1759 
z
M 3341 1997 
L 3341 0 
L 2766 0 
L 2766 531 
Q 2569 213 2275 61 
Q 1981 -91 1556 -91 
Q 1019 -91 701 211 
Q 384 513 384 1019 
Q 384 1609 779 1909 
Q 1175 2209 1959 2209 
L 2766 2209 
L 2766 2266 
Q 2766 2663 2505 2880 
Q 2244 3097 1772 3097 
Q 1472 3097 1187 3025 
Q 903 2953 641 2809 
L 641 3341 
Q 956 3463 1253 3523 
Q 1550 3584 1831 3584 
Q 2591 3584 2966 3190 
Q 3341 2797 3341 1997 
z
" transform="scale(0.015625)"/>
       <path id="DejaVuSans-2e" d="M 684 794 
L 1344 794 
L 1344 0 
L 684 0 
L 684 794 
z
" transform="scale(0.015625)"/>
       <path id="DejaVuSans-75" d="M 544 1381 
L 544 3500 
L 1119 3500 
L 1119 1403 
Q 1119 906 1312 657 
Q 1506 409 1894 409 
Q 2359 409 2629 706 
Q 2900 1003 2900 1516 
L 2900 3500 
L 3475 3500 
L 3475 0 
L 2900 0 
L 2900 538 
Q 2691 219 2414 64 
Q 2138 -91 1772 -91 
Q 1169 -91 856 284 
Q 544 659 544 1381 
z
M 1991 3584 
L 1991 3584 
z
" transform="scale(0.015625)"/>
      </defs>
      <use xlink:href="#DejaVuSans-49"/>
      <use xlink:href="#DejaVuSans-6e" x="29.492188"/>
      <use xlink:href="#DejaVuSans-74" x="92.871094"/>
      <use xlink:href="#DejaVuSans-65" x="132.080078"/>
      <use xlink:href="#DejaVuSans-6e" x="193.603516"/>
      <use xlink:href="#DejaVuSans-73" x="256.982422"/>
      <use xlink:href="#DejaVuSans-69" x="309.082031"/>
      <use xlink:href="#DejaVuSans-74" x="336.865234"/>
      <use xlink:href="#DejaVuSans-79" x="376.074219"/>
      <use xlink:href="#DejaVuSans-20" x="435.253906"/>
      <use xlink:href="#DejaVuSans-5b" x="467.041016"/>
      <use xlink:href="#DejaVuSans-61" x="506.054688"/>
      <use xlink:href="#DejaVuSans-2e" x="567.333984"/>
      <use xlink:href="#DejaVuSans-75" x="599.121094"/>
      <use xlink:href="#DejaVuSans-2e" x="662.5"/>
      <use xlink:href="#DejaVuSans-5d" x="694.287109"/>
     </g>
    </g>
   </g>
   <g id="line2d_33">
    <path d="M 68.629871 131.909192 
L 70.101648 131.345364 
L 71.573425 133.431896 
L 73.045202 132.05943 
L 74.516979 132.703971 
L 75.988755 131.620227 
L 77.460532 132.535791 
L 78.932309 132.213785 
L 80.404086 131.620227 
L 81.875862 130.832867 
L 83.347639 131.620227 
L 84.819416 132.877325 
L 86.291193 133.431896 
L 87.76297 132.877325 
L 89.234746 133.431896 
L 90.706523 131.212803 
L 92.1783 131.762857 
L 93.650077 131.345364 
L 95.121854 131.345364 
L 96.59363 130.956687 
L 98.065407 130.034867 
L 99.537184 130.956687 
L 101.008961 129.929563 
L 102.480737 130.71171 
L 103.952514 132.372488 
L 105.424291 130.832867 
L 106.896068 130.476943 
L 108.367845 132.213785 
L 109.839621 132.213785 
L 111.311398 131.212803 
L 112.783175 132.535791 
L 114.254952 131.345364 
L 115.726729 130.832867 
L 117.198505 129.929563 
L 118.670282 129.929563 
L 120.142059 130.25157 
L 121.613836 130.142176 
L 123.085612 130.956687 
L 124.557389 130.476943 
L 126.029166 129.826191 
L 127.500943 129.929563 
L 128.97272 130.476943 
L 130.444496 130.832867 
L 131.916273 129.724683 
L 133.38805 131.212803 
L 134.859827 129.526993 
L 136.331604 129.826191 
L 137.80338 129.336006 
L 139.275157 129.151281 
L 140.746934 130.25157 
L 142.218711 129.43069 
L 145.162264 129.43069 
L 146.634041 130.25157 
L 148.105818 129.336006 
L 149.577595 130.593104 
L 151.049371 128.799068 
L 152.521148 128.799068 
L 153.992925 128.467585 
L 155.464702 127.645341 
L 156.936479 129.061142 
L 158.408255 129.43069 
L 159.880032 128.885078 
L 161.351809 127.178386 
L 162.823586 128.387674 
L 164.295362 128.387674 
L 165.767139 129.526993 
L 167.238916 128.078908 
L 168.710693 128.71435 
L 170.18247 128.078908 
L 171.654246 126.57204 
L 173.126023 127.051784 
L 174.5978 126.806807 
L 176.069577 128.308882 
L 177.541354 127.715324 
L 179.01313 126.40217 
L 180.484907 126.237273 
L 181.956684 126.927964 
L 183.428461 127.3079 
L 184.900237 127.50793 
L 186.372014 125.921288 
L 187.843791 126.129964 
L 189.315568 125.478246 
L 190.787345 126.40217 
L 192.259121 128.154527 
L 193.730898 127.051784 
L 195.202675 124.643742 
L 196.674452 123.845742 
L 198.146229 124.482771 
L 199.618005 124.643742 
L 201.089782 125.62209 
L 202.561559 125.38435 
L 204.033336 123.273483 
L 205.505112 122.992526 
L 206.976889 122.872017 
L 208.448666 124.522585 
L 209.920443 124.603066 
L 211.39222 123.402997 
L 212.863996 122.441763 
L 214.335773 122.35952 
L 218.751104 123.402997 
L 220.22288 122.812716 
L 221.694657 120.77981 
L 223.166434 120.382915 
L 224.638211 121.318805 
L 226.109987 122.016385 
L 227.581764 121.8648 
L 229.053541 119.940839 
L 230.525318 119.732163 
L 231.997095 118.733564 
L 233.468871 119.432965 
L 234.940648 119.304923 
L 236.412425 119.012003 
L 239.355979 116.487601 
L 240.827755 116.411342 
L 242.299532 116.752875 
L 243.771309 117.324122 
L 245.243086 117.031261 
L 246.714862 114.922376 
L 248.186639 113.64641 
L 249.658416 113.152844 
L 251.130193 113.877109 
L 252.60197 114.886147 
L 254.073746 113.190135 
L 255.545523 110.945247 
L 257.0173 109.49764 
L 258.489077 109.080543 
L 259.960854 109.882354 
L 261.43263 109.561833 
L 262.904407 107.09805 
L 264.376184 104.150019 
L 265.847961 102.201785 
L 268.791514 99.713551 
L 270.263291 97.39652 
L 273.206845 90.626354 
L 274.678621 87.796773 
L 276.150398 85.786177 
L 277.622175 84.65603 
L 279.093952 84.260453 
L 280.565729 84.631213 
L 282.037505 85.755779 
L 283.509282 87.656963 
L 286.452836 92.596699 
L 287.924612 94.34769 
L 289.396389 95.198792 
L 290.868166 95.78743 
L 292.339943 96.839976 
L 293.81172 98.444737 
L 295.283496 100.473636 
L 296.755273 101.49953 
L 298.22705 101.713563 
L 299.698827 101.629168 
L 301.170604 102.322397 
L 302.64238 103.631175 
L 304.114157 104.450019 
L 305.585934 103.524438 
L 308.529487 99.390215 
L 310.001264 97.610081 
L 312.944818 93.120306 
L 315.888371 87.91577 
L 317.360148 84.672997 
L 320.303702 66.072223 
L 321.775479 66.115985 
L 326.190809 81.854262 
L 327.662586 85.468055 
L 329.134362 88.083716 
L 330.606139 91.97592 
L 333.549693 105.551262 
L 335.02147 109.253253 
L 336.493246 110.888125 
L 339.4368 113.179455 
L 340.908577 115.487735 
L 342.380354 116.97866 
L 343.85213 117.66844 
L 345.323907 117.413902 
L 346.795684 117.644819 
L 348.267461 118.137148 
L 349.739237 120.617682 
L 351.211014 121.940083 
L 352.682791 120.862659 
L 355.626345 120.800409 
L 357.098121 121.668829 
L 358.569898 124.211687 
L 360.041675 124.287818 
L 361.513452 124.025744 
L 362.985229 123.502124 
L 364.457005 122.497267 
L 365.928782 124.364992 
L 367.400559 125.769703 
L 368.872336 126.346667 
L 370.344112 125.431102 
L 371.815889 125.023678 
L 373.287666 124.937006 
L 374.759443 127.50793 
L 376.23122 126.867059 
L 377.702996 127.715324 
L 379.174773 127.114729 
L 380.64655 125.431102 
L 383.590104 128.387674 
L 385.06188 128.885078 
L 386.533657 128.231176 
L 388.005434 128.078908 
L 389.477211 128.387674 
L 390.948987 126.40217 
L 392.420764 128.308882 
L 393.892541 129.929563 
L 395.364318 129.724683 
L 396.836095 127.3079 
L 398.307871 128.231176 
L 399.779648 128.387674 
L 401.251425 130.956687 
L 402.723202 130.142176 
L 404.194979 130.476943 
L 405.666755 130.476943 
L 407.138532 128.630888 
L 408.610309 130.142176 
L 410.082086 131.212803 
L 411.553862 130.476943 
L 413.025639 130.476943 
L 414.497416 130.142176 
L 415.969193 128.885078 
L 417.44097 131.083289 
L 418.912746 130.71171 
L 420.384523 131.620227 
L 421.8563 130.71171 
L 423.328077 129.43069 
L 424.799854 129.242886 
L 427.743407 132.372488 
L 429.215184 133.056184 
L 430.686961 134.047079 
L 432.158737 132.05943 
L 433.630514 132.372488 
L 435.102291 131.212803 
L 436.574068 133.240909 
L 438.045845 131.481119 
L 439.517621 132.213785 
L 440.989398 131.620227 
L 442.461175 132.703971 
L 443.932952 131.345364 
L 446.876505 133.431896 
L 449.820059 132.372488 
L 451.291836 132.372488 
L 452.763612 133.629586 
L 455.707166 134.988192 
L 457.178943 130.142176 
L 458.65072 133.056184 
L 460.122496 133.056184 
L 461.594273 133.834466 
L 463.06605 134.988192 
L 464.537827 134.268032 
L 466.009604 132.05943 
L 467.48138 132.877325 
L 468.953157 134.73777 
L 470.424934 133.240909 
L 471.896711 134.498007 
L 471.896711 134.498007 
" clip-path="url(#p9e30d3ecea)" style="fill: none; stroke: #1f77b4; stroke-width: 1.5; stroke-linecap: square"/>
   </g>
   <g id="line2d_34">
    <path d="M 65.686318 153.801569 
L 67.158095 154.098142 
L 68.629871 154.574503 
L 71.573425 150.506296 
L 73.045202 151.565704 
L 74.516979 152.073578 
L 75.988755 153.122001 
L 77.460532 151.099853 
L 78.932309 152.515654 
L 80.404086 152.515654 
L 81.875862 150.347593 
L 83.347639 150.837779 
L 84.819416 151.663682 
L 86.291193 151.011134 
L 87.76297 151.099853 
L 89.234746 151.763394 
L 92.1783 151.011134 
L 93.650077 150.117619 
L 95.121854 151.011134 
L 96.59363 151.189993 
L 99.537184 149.754036 
L 102.480737 150.117619 
L 103.952514 150.043001 
L 105.424291 151.763394 
L 111.311398 150.193239 
L 112.783175 149.614928 
L 114.254952 149.614928 
L 115.726729 150.6696 
L 117.198505 151.469401 
L 118.670282 150.587356 
L 120.142059 150.117619 
L 121.613836 148.553557 
L 123.085612 149.546641 
L 124.557389 149.217098 
L 126.029166 149.281482 
L 127.500943 149.614928 
L 128.97272 149.412502 
L 130.444496 149.028245 
L 131.916273 149.346611 
L 133.38805 148.785903 
L 134.859827 148.668532 
L 137.80338 149.412502 
L 139.275157 149.217098 
L 140.746934 147.612444 
L 142.218711 148.668532 
L 143.690487 147.150416 
L 145.162264 147.612444 
L 146.634041 148.726912 
L 148.105818 148.610751 
L 149.577595 148.330416 
L 151.049371 146.250399 
L 152.521148 146.212716 
L 153.992925 145.955765 
L 155.464702 146.806273 
L 158.408255 146.932876 
L 159.880032 145.779149 
L 161.351809 145.744481 
L 162.823586 145.031237 
L 164.295362 145.154381 
L 165.767139 146.848159 
L 167.238916 147.330706 
L 168.710693 148.330416 
L 170.18247 146.806273 
L 171.654246 145.710025 
L 173.126023 143.659595 
L 174.5978 145.675778 
L 176.069577 145.991763 
L 177.541354 148.275984 
L 179.01313 147.150416 
L 180.484907 146.932876 
L 181.956684 144.910728 
L 183.428461 144.158468 
L 184.900237 144.705848 
L 186.372014 145.031237 
L 187.843791 146.481948 
L 189.315568 146.027992 
L 190.787345 144.106545 
L 193.730898 142.69649 
L 195.202675 143.402948 
L 196.674452 145.507599 
L 198.146229 146.175283 
L 199.618005 144.792743 
L 201.089782 142.421626 
L 202.561559 141.327832 
L 204.033336 141.736835 
L 205.505112 142.69649 
L 206.976889 144.055097 
L 208.448666 144.592035 
L 209.920443 142.736874 
L 211.39222 141.312074 
L 212.863996 139.707151 
L 214.335773 140.439159 
L 215.80755 140.990941 
L 217.279327 142.596778 
L 218.751104 143.006674 
L 220.22288 141.343635 
L 221.694657 139.14445 
L 223.166434 138.337565 
L 224.638211 138.356158 
L 226.109987 139.601628 
L 227.581764 141.020749 
L 229.053541 140.201642 
L 231.997095 136.691419 
L 233.468871 135.88571 
L 234.940648 135.958246 
L 236.412425 137.640096 
L 237.884202 138.852272 
L 239.355979 138.004226 
L 240.827755 135.74338 
L 242.299532 133.973887 
L 243.771309 133.001928 
L 245.243086 133.494405 
L 246.714862 134.993316 
L 248.186639 135.441254 
L 249.658416 134.232092 
L 252.60197 129.71664 
L 254.073746 128.990055 
L 255.545523 129.550353 
L 257.0173 130.406108 
L 258.489077 130.647352 
L 259.960854 128.363921 
L 261.43263 125.566034 
L 262.904407 123.223769 
L 264.376184 121.930996 
L 265.847961 121.423391 
L 267.319737 120.474482 
L 268.791514 118.315376 
L 271.735068 111.697056 
L 273.206845 108.895935 
L 274.678621 106.81246 
L 276.150398 105.295163 
L 277.622175 104.46322 
L 279.093952 104.251462 
L 280.565729 104.680253 
L 282.037505 105.763788 
L 283.509282 107.470709 
L 284.981059 109.812957 
L 287.924612 115.668368 
L 289.396389 117.210597 
L 290.868166 117.496175 
L 292.339943 117.423639 
L 293.81172 118.026849 
L 295.283496 119.418091 
L 296.755273 121.433542 
L 298.22705 123.07288 
L 299.698827 123.478838 
L 302.64238 120.988835 
L 305.585934 119.705595 
L 307.057711 118.594875 
L 310.001264 113.948079 
L 311.473041 111.570389 
L 312.944818 108.576453 
L 315.888371 100.686985 
L 317.360148 96.43423 
L 320.303702 83.842741 
L 321.775479 86.960706 
L 323.247255 99.162903 
L 324.719032 106.963861 
L 326.190809 111.351071 
L 327.662586 114.957962 
L 329.134362 118.254375 
L 332.077916 124.292419 
L 335.02147 129.300439 
L 336.493246 130.75986 
L 337.965023 131.43187 
L 339.4368 132.994733 
L 342.380354 137.071194 
L 343.85213 138.431148 
L 345.323907 138.101283 
L 346.795684 137.430825 
L 348.267461 137.542543 
L 349.739237 138.811743 
L 351.211014 140.398871 
L 354.154568 142.716646 
L 355.626345 142.068832 
L 357.098121 140.743751 
L 358.569898 140.631075 
L 360.041675 141.536805 
L 362.985229 144.822009 
L 364.457005 145.710025 
L 365.928782 144.004114 
L 367.400559 143.070814 
L 368.872336 143.635774 
L 370.344112 143.635774 
L 373.287666 146.890358 
L 374.759443 146.848159 
L 377.702996 145.154381 
L 379.174773 146.212716 
L 380.64655 145.919996 
L 382.118327 147.564498 
L 383.590104 149.028245 
L 385.06188 147.709577 
L 386.533657 146.764697 
L 388.005434 146.975717 
L 389.477211 146.975717 
L 390.948987 148.385378 
L 392.420764 149.090495 
L 393.892541 149.479172 
L 395.364318 147.709577 
L 396.836095 148.966675 
L 398.307871 148.011448 
L 399.779648 148.063371 
L 401.251425 148.726912 
L 402.723202 149.754036 
L 404.194979 149.969358 
L 405.666755 149.684052 
L 407.138532 149.153441 
L 408.610309 148.966675 
L 410.082086 149.281482 
L 411.553862 149.412502 
L 413.025639 150.269887 
L 414.497416 151.374717 
L 415.969193 150.6696 
L 417.44097 149.824899 
L 418.912746 150.426386 
L 420.384523 150.753062 
L 421.8563 149.412502 
L 424.799854 153.519831 
L 427.743407 150.753062 
L 429.215184 151.099853 
L 430.686961 152.180887 
L 432.158737 153.947904 
L 433.630514 153.658939 
L 435.102291 153.519831 
L 436.574068 152.871578 
L 438.045845 151.968274 
L 439.517621 154.252496 
L 440.989398 152.750421 
L 442.461175 153.519831 
L 443.932952 152.995398 
L 445.404729 153.658939 
L 446.876505 153.251514 
L 448.348282 152.180887 
L 449.820059 153.122001 
L 451.291836 153.384075 
L 452.763612 153.947904 
L 454.235389 152.871578 
L 455.707166 153.519831 
L 457.178943 155.27962 
L 458.65072 155.094896 
L 460.122496 153.384075 
L 461.594273 152.631815 
L 463.06605 153.519831 
L 464.537827 153.251514 
L 467.48138 154.411199 
L 468.953157 154.098142 
L 468.953157 154.098142 
" clip-path="url(#p9e30d3ecea)" style="fill: none; stroke: #ff7f0e; stroke-width: 1.5; stroke-linecap: square"/>
   </g>
   <g id="line2d_35">
    <path d="M 65.686318 172.308598 
L 67.158095 173.903614 
L 68.629871 172.386304 
L 70.101648 172.626067 
L 71.573425 172.15633 
L 73.045202 173.508112 
L 74.516979 173.802105 
L 75.988755 174.554366 
L 77.460532 172.962501 
L 78.932309 173.049845 
L 80.404086 171.722764 
L 81.875862 172.708311 
L 83.347639 171.935377 
L 84.819416 173.138565 
L 86.291193 172.545007 
L 87.76297 173.320309 
L 89.234746 171.792747 
L 90.706523 172.15633 
L 92.1783 171.722764 
L 93.650077 172.386304 
L 95.121854 172.708311 
L 96.59363 171.935377 
L 98.065407 172.15633 
L 99.537184 172.791773 
L 101.008961 171.385322 
L 102.480737 172.465097 
L 103.952514 171.935377 
L 105.424291 172.708311 
L 108.367845 171.863611 
L 109.839621 170.944482 
L 111.311398 171.451213 
L 112.783175 170.535649 
L 114.254952 171.005386 
L 115.726729 172.545007 
L 117.198505 171.451213 
L 118.670282 171.255809 
L 120.142059 169.651155 
L 121.613836 170.05016 
L 123.085612 169.79749 
L 126.029166 172.626067 
L 127.500943 170.944482 
L 128.97272 168.88687 
L 131.916273 169.233662 
L 134.859827 170.884229 
L 136.331604 170.649463 
L 137.80338 171.585352 
L 139.275157 169.603209 
L 140.746934 169.189127 
L 142.218711 168.28911 
L 143.690487 168.327047 
L 145.162264 169.847126 
L 146.634041 169.278551 
L 148.105818 169.947728 
L 149.577595 170.05016 
L 151.049371 168.403695 
L 152.521148 168.365241 
L 153.992925 167.887844 
L 155.464702 169.651155 
L 156.936479 169.415406 
L 158.408255 169.323801 
L 159.880032 167.646614 
L 161.351809 167.748736 
L 162.823586 166.687365 
L 164.295362 168.442414 
L 165.767139 168.680488 
L 167.238916 169.369417 
L 168.710693 168.481401 
L 171.654246 166.275972 
L 173.126023 166.658984 
L 174.5978 166.249585 
L 176.069577 167.714489 
L 177.541354 168.365241 
L 179.01313 167.887844 
L 180.484907 166.068259 
L 181.956684 165.284224 
L 183.428461 165.91735 
L 184.900237 165.942222 
L 186.372014 168.600007 
L 187.843791 167.447761 
L 189.315568 166.54687 
L 190.787345 163.930372 
L 192.259121 163.430021 
L 193.730898 163.430021 
L 195.202675 164.981967 
L 196.674452 167.714489 
L 198.146229 165.818944 
L 199.618005 164.675162 
L 201.089782 163.21091 
L 202.561559 162.882936 
L 204.033336 162.292276 
L 206.976889 165.351158 
L 208.448666 164.498792 
L 211.39222 161.502648 
L 212.863996 160.840367 
L 214.335773 160.800199 
L 217.279327 163.542858 
L 218.751104 162.697745 
L 220.22288 161.183161 
L 221.694657 159.298337 
L 223.166434 158.778845 
L 224.638211 159.359991 
L 226.109987 160.622903 
L 227.581764 161.401544 
L 229.053541 160.96262 
L 231.997095 156.900301 
L 233.468871 156.383886 
L 234.940648 156.536718 
L 236.412425 158.195082 
L 237.884202 159.383286 
L 239.355979 158.552787 
L 240.827755 156.016877 
L 242.299532 154.287029 
L 243.771309 153.168283 
L 245.243086 153.738366 
L 246.714862 155.260872 
L 248.186639 155.76571 
L 249.658416 153.850897 
L 251.130193 151.44463 
L 252.60197 149.686835 
L 254.073746 148.814439 
L 257.0173 149.623178 
L 258.489077 148.689479 
L 261.43263 142.175671 
L 262.904407 139.572201 
L 264.376184 137.835327 
L 265.847961 136.709186 
L 267.319737 135.803431 
L 268.791514 134.755138 
L 270.263291 133.209224 
L 273.206845 129.14213 
L 274.678621 127.424441 
L 276.150398 126.144268 
L 277.622175 125.406668 
L 279.093952 125.273284 
L 280.565729 125.735745 
L 282.037505 126.830325 
L 283.509282 128.654633 
L 284.981059 131.215057 
L 287.924612 137.880672 
L 289.396389 139.761858 
L 290.868166 139.667524 
L 292.339943 139.097945 
L 293.81172 139.299286 
L 295.283496 140.503134 
L 298.22705 144.556094 
L 299.698827 144.637284 
L 301.170604 142.895531 
L 302.64238 140.003097 
L 305.585934 123.398845 
L 307.057711 120.910593 
L 310.001264 120.122816 
L 311.473041 119.026962 
L 312.944818 118.681275 
L 314.416595 118.474841 
L 315.888371 117.489067 
L 317.360148 114.658969 
L 318.831925 107.631857 
L 320.303702 107.3335 
L 321.775479 114.405892 
L 323.247255 128.38539 
L 324.719032 133.602369 
L 326.190809 137.039262 
L 327.662586 139.767836 
L 330.606139 144.836699 
L 332.077916 147.752852 
L 333.549693 150.402632 
L 335.02147 152.490417 
L 336.493246 153.639256 
L 337.965023 153.775627 
L 339.4368 154.541461 
L 340.908577 156.411367 
L 342.380354 158.572967 
L 343.85213 160.302513 
L 345.323907 160.29336 
L 348.267461 158.906084 
L 349.739237 159.192039 
L 351.211014 161.151121 
L 354.154568 164.715117 
L 355.626345 163.94784 
L 357.098121 162.697745 
L 358.569898 162.655859 
L 360.041675 162.424216 
L 361.513452 163.895597 
L 362.985229 165.698306 
L 364.457005 166.919711 
L 365.928782 165.418898 
L 368.872336 164.479532 
L 370.344112 165.131069 
L 373.287666 166.890138 
L 374.759443 168.721164 
L 377.702996 167.255688 
L 379.174773 165.603622 
L 380.64655 166.329119 
L 382.118327 168.139867 
L 383.590104 169.057598 
L 385.06188 169.699512 
L 386.533657 168.600007 
L 388.005434 168.365241 
L 389.477211 168.403695 
L 390.948987 168.600007 
L 392.420764 169.278551 
L 393.892541 171.585352 
L 396.836095 170.592268 
L 398.307871 168.721164 
L 399.779648 168.52066 
L 401.251425 169.1011 
L 402.723202 171.320193 
L 404.194979 170.649463 
L 405.666755 171.935377 
L 407.138532 171.653639 
L 408.610309 171.255809 
L 410.082086 170.479593 
L 411.553862 170.260785 
L 413.025639 171.653639 
L 414.497416 173.320309 
L 415.969193 172.465097 
L 417.44097 172.008069 
L 418.912746 171.935377 
L 420.384523 170.765623 
L 421.8563 171.722764 
L 423.328077 172.15633 
L 426.27163 174.219599 
L 427.743407 171.385322 
L 429.215184 172.962501 
L 430.686961 171.935377 
L 432.158737 173.138565 
L 433.630514 173.049845 
L 435.102291 173.604415 
L 438.045845 172.87649 
L 439.517621 173.228704 
L 440.989398 173.049845 
L 442.461175 172.008069 
L 445.404729 174.440552 
L 446.876505 173.413428 
L 448.348282 174.006985 
L 449.820059 173.604415 
L 451.291836 172.962501 
L 452.763612 174.006985 
L 454.235389 175.558542 
L 455.707166 174.789132 
L 457.178943 173.802105 
L 458.65072 175.160712 
L 460.122496 174.670526 
L 461.594273 174.328992 
L 463.06605 173.049845 
L 464.537827 175.034109 
L 466.009604 174.440552 
L 467.48138 174.910289 
L 468.953157 174.219599 
L 468.953157 174.219599 
" clip-path="url(#p9e30d3ecea)" style="fill: none; stroke: #2ca02c; stroke-width: 1.5; stroke-linecap: square"/>
   </g>
   <g id="line2d_36">
    <path d="M 64.214541 196.367703 
L 65.686318 196.479263 
L 67.158095 195.267415 
L 68.629871 197.461498 
L 70.101648 195.840817 
L 71.573425 196.151 
L 74.516979 194.425016 
L 75.988755 194.195041 
L 78.932309 196.045697 
L 80.404086 194.830484 
L 81.875862 194.664779 
L 83.347639 195.267415 
L 84.819416 194.747022 
L 86.291193 195.741104 
L 89.234746 195.452139 
L 90.706523 196.045697 
L 92.1783 195.643127 
L 93.650077 194.747022 
L 95.121854 193.29452 
L 96.59363 193.29452 
L 98.065407 193.902322 
L 99.537184 195.546824 
L 101.008961 194.830484 
L 102.480737 194.915201 
L 103.952514 195.267415 
L 105.424291 193.358905 
L 106.896068 193.105667 
L 108.367845 194.046781 
L 109.839621 193.69235 
L 111.311398 192.92294 
L 112.783175 193.624064 
L 114.254952 193.424034 
L 115.726729 192.140794 
L 117.198505 192.193199 
L 118.670282 193.761475 
L 120.142059 193.556595 
L 121.613836 193.974088 
L 123.085612 193.761475 
L 124.557389 192.4628 
L 126.029166 191.641921 
L 127.500943 192.983193 
L 128.97272 193.424034 
L 130.444496 195.452139 
L 131.916273 193.556595 
L 133.38805 193.105667 
L 134.859827 191.500484 
L 136.331604 191.183653 
L 137.80338 192.4628 
L 139.275157 192.407838 
L 140.746934 193.831458 
L 143.690487 190.481126 
L 145.162264 190.800847 
L 146.634041 190.069185 
L 148.105818 191.786999 
L 151.049371 192.407838 
L 152.521148 190.967781 
L 153.992925 189.719161 
L 155.464702 191.641921 
L 156.936479 191.139812 
L 159.880032 191.362512 
L 161.351809 191.272373 
L 162.823586 191.986439 
L 164.295362 189.169895 
L 165.767139 188.92885 
L 167.238916 190.141878 
L 168.710693 189.961876 
L 170.18247 192.353407 
L 173.126023 188.475654 
L 174.5978 188.669457 
L 176.069577 188.235891 
L 177.541354 189.389617 
L 179.01313 189.7532 
L 180.484907 190.883696 
L 181.956684 189.7532 
L 183.428461 188.235891 
L 184.900237 186.978793 
L 186.372014 187.618909 
L 187.843791 188.726077 
L 189.315568 189.357699 
L 190.787345 188.841052 
L 193.730898 186.654468 
L 195.202675 186.937216 
L 196.674452 186.460855 
L 198.146229 188.183968 
L 199.618005 188.754601 
L 201.089782 188.183968 
L 202.561559 186.499049 
L 204.033336 185.3269 
L 205.505112 185.113134 
L 206.976889 185.713355 
L 208.448666 186.595682 
L 209.920443 187.80909 
L 211.39222 186.694002 
L 212.863996 184.436291 
L 214.335773 183.760953 
L 215.80755 183.384861 
L 218.751104 186.110372 
L 220.22288 186.146255 
L 223.166434 182.405714 
L 224.638211 181.238277 
L 226.109987 181.833508 
L 227.581764 183.147395 
L 229.053541 183.88006 
L 230.525318 183.70233 
L 233.468871 180.07229 
L 234.940648 178.795631 
L 237.884202 181.291246 
L 239.355979 181.858677 
L 240.827755 180.518117 
L 242.299532 178.154918 
L 243.771309 176.696676 
L 245.243086 176.350989 
L 246.714862 177.470599 
L 248.186639 178.954055 
L 249.658416 178.934007 
L 252.60197 173.868895 
L 254.073746 172.256364 
L 255.545523 172.441343 
L 258.489077 174.14213 
L 259.960854 172.691766 
L 261.43263 169.453399 
L 262.904407 166.897222 
L 264.376184 165.304221 
L 265.847961 164.821162 
L 267.319737 164.932575 
L 268.791514 164.073449 
L 270.263291 160.848637 
L 271.735068 156.891595 
L 273.206845 153.479523 
L 274.678621 150.738417 
L 276.150398 148.841324 
L 277.622175 147.639415 
L 279.093952 147.147542 
L 280.565729 147.286998 
L 282.037505 148.105509 
L 283.509282 149.639329 
L 284.981059 151.910524 
L 286.452836 155.049934 
L 287.924612 158.734289 
L 289.396389 161.942893 
L 290.868166 162.947607 
L 292.339943 162.549211 
L 293.81172 162.533128 
L 295.283496 163.451127 
L 298.22705 167.41529 
L 299.698827 167.572218 
L 301.170604 165.05986 
L 302.64238 161.098546 
L 304.114157 159.009839 
L 305.585934 158.177968 
L 307.057711 157.148039 
L 308.529487 155.597201 
L 310.001264 154.466193 
L 312.944818 151.405825 
L 314.416595 150.531397 
L 315.888371 150.693876 
L 317.360148 142.566615 
L 318.831925 132.205089 
L 320.303702 131.26157 
L 321.775479 133.228997 
L 323.247255 134.96863 
L 324.719032 138.985761 
L 326.190809 149.121175 
L 327.662586 157.97001 
L 329.134362 162.265476 
L 332.077916 169.206009 
L 333.549693 172.380048 
L 335.02147 174.552067 
L 336.493246 174.971859 
L 337.965023 175.69765 
L 339.4368 176.92665 
L 342.380354 181.193268 
L 343.85213 182.160934 
L 345.323907 181.808452 
L 346.795684 181.329388 
L 348.267461 181.500352 
L 349.739237 182.828913 
L 351.211014 184.652994 
L 352.682791 186.218713 
L 354.154568 185.951669 
L 355.626345 185.009218 
L 357.098121 183.928417 
L 358.569898 184.476293 
L 360.041675 186.004075 
L 361.513452 188.235891 
L 362.985229 189.294399 
L 364.457005 188.530349 
L 365.928782 186.654468 
L 367.400559 186.615209 
L 368.872336 187.931298 
L 370.344112 188.367831 
L 371.815889 190.520112 
L 373.287666 190.290138 
L 376.23122 188.183968 
L 379.174773 189.618258 
L 380.64655 190.842119 
L 382.118327 192.57436 
L 383.590104 191.454117 
L 385.06188 190.759876 
L 386.533657 189.856572 
L 388.005434 189.231803 
L 389.477211 191.139812 
L 390.948987 193.489924 
L 392.420764 193.358905 
L 393.892541 192.353407 
L 395.364318 192.193199 
L 398.307871 190.678815 
L 399.779648 192.407838 
L 401.251425 195.001212 
L 402.723202 194.270661 
L 404.194979 193.105667 
L 405.666755 192.140794 
L 407.138532 192.193199 
L 408.610309 193.29452 
L 410.082086 193.230863 
L 411.553862 196.593077 
L 413.025639 194.34731 
L 414.497416 193.69235 
L 415.969193 193.489924 
L 417.44097 192.246097 
L 418.912746 193.974088 
L 420.384523 194.830484 
L 421.8563 195.267415 
L 423.328077 196.479263 
L 424.799854 194.583719 
L 426.27163 193.556595 
L 429.215184 194.270661 
L 430.686961 195.643127 
L 432.158737 196.367703 
L 433.630514 194.747022 
L 435.102291 195.452139 
L 436.574068 193.424034 
L 438.045845 195.741104 
L 439.517621 195.267415 
L 442.461175 196.045697 
L 443.932952 196.709237 
L 445.404729 195.643127 
L 446.876505 194.270661 
L 448.348282 194.915201 
L 449.820059 196.479263 
L 451.291836 197.736361 
L 452.763612 196.709237 
L 454.235389 196.949001 
L 455.707166 194.915201 
L 458.65072 196.949001 
L 460.122496 197.461498 
L 461.594273 197.461498 
L 463.06605 199.9506 
L 464.537827 197.736361 
L 466.009604 196.593077 
L 467.48138 197.328937 
L 467.48138 197.328937 
" clip-path="url(#p9e30d3ecea)" style="fill: none; stroke: #d62728; stroke-width: 1.5; stroke-linecap: square"/>
   </g>
   <g id="line2d_37">
    <path d="M 65.686318 218.631788 
L 67.158095 218.406415 
L 68.629871 217.490851 
L 70.101648 217.397731 
L 71.573425 217.779816 
L 73.045202 217.490851 
L 74.516979 218.517975 
L 75.988755 217.127267 
L 77.460532 217.490851 
L 78.932309 217.490851 
L 80.404086 216.542519 
L 83.347639 216.012799 
L 84.819416 217.779816 
L 86.291193 216.386021 
L 87.76297 216.62243 
L 89.234746 216.70349 
L 90.706523 218.189712 
L 92.1783 217.981037 
L 93.650077 216.085492 
L 95.121854 217.879528 
L 96.59363 215.731062 
L 98.065407 216.386021 
L 99.537184 216.012799 
L 101.008961 216.233753 
L 102.480737 217.981037 
L 103.952514 215.397616 
L 105.424291 215.206629 
L 106.896068 216.386021 
L 108.367845 214.961652 
L 109.839621 215.731062 
L 111.311398 216.012799 
L 112.783175 215.082809 
L 114.254952 215.941033 
L 117.198505 214.446549 
L 118.670282 214.284809 
L 120.142059 214.961652 
L 121.613836 215.206629 
L 123.085612 216.159135 
L 126.029166 212.964293 
L 127.500943 214.179505 
L 128.97272 214.902037 
L 130.444496 214.127582 
L 131.916273 215.021905 
L 133.38805 214.231911 
L 134.859827 212.67743 
L 137.80338 211.965266 
L 139.275157 212.000587 
L 140.746934 212.404469 
L 142.218711 212.558824 
L 143.690487 210.850798 
L 145.162264 210.460196 
L 146.634041 210.274602 
L 148.105818 210.793312 
L 149.577595 211.117002 
L 151.049371 211.086795 
L 152.521148 211.208607 
L 153.992925 209.775729 
L 155.464702 210.514365 
L 156.936479 209.872032 
L 158.408255 210.596609 
L 159.880032 211.147371 
L 161.351809 211.965266 
L 162.823586 211.147371 
L 164.295362 211.147371 
L 165.767139 210.145681 
L 167.238916 210.736407 
L 168.710693 210.821982 
L 170.18247 212.366533 
L 171.654246 212.000587 
L 173.126023 210.460196 
L 176.069577 210.145681 
L 177.541354 209.799651 
L 179.01313 210.967561 
L 180.484907 211.557842 
L 181.956684 211.301726 
L 183.428461 209.317461 
L 184.900237 209.45107 
L 186.372014 208.79254 
L 187.843791 209.97001 
L 189.315568 210.967561 
L 190.787345 210.652112 
L 193.730898 208.060363 
L 195.202675 207.443966 
L 196.674452 207.836026 
L 198.146229 209.165486 
L 201.089782 210.596609 
L 202.561559 208.275686 
L 204.033336 206.568786 
L 205.505112 206.228047 
L 206.976889 207.107075 
L 208.448666 208.693179 
L 209.920443 210.044628 
L 211.39222 207.718829 
L 212.863996 205.165007 
L 214.335773 204.462987 
L 215.80755 204.968406 
L 217.279327 205.648496 
L 218.751104 208.149083 
L 220.22288 207.242468 
L 221.694657 205.35781 
L 223.166434 203.209609 
L 224.638211 202.393525 
L 226.109987 202.863262 
L 227.581764 204.937982 
L 229.053541 206.266327 
L 230.525318 205.207285 
L 231.997095 202.310441 
L 233.468871 200.562735 
L 234.940648 200.19363 
L 236.412425 201.124849 
L 237.884202 203.3988 
L 239.355979 204.280063 
L 242.299532 198.745486 
L 243.771309 197.426731 
L 245.243086 197.496481 
L 246.714862 199.007561 
L 248.186639 201.176487 
L 249.658416 200.102868 
L 251.130193 197.128176 
L 252.60197 194.518109 
L 254.073746 193.279177 
L 255.545523 193.751746 
L 257.0173 195.660637 
L 258.489077 196.634619 
L 259.960854 193.810372 
L 261.43263 190.213297 
L 262.904407 187.639986 
L 264.376184 186.644628 
L 265.847961 186.666694 
L 267.319737 186.363494 
L 268.791514 183.845498 
L 271.735068 175.637078 
L 273.206845 172.600716 
L 274.678621 170.447312 
L 276.150398 169.028241 
L 277.622175 168.385527 
L 279.093952 168.486552 
L 280.565729 169.305603 
L 282.037505 170.967864 
L 283.509282 173.626722 
L 284.981059 177.423108 
L 286.452836 182.503289 
L 287.924612 186.705917 
L 289.396389 185.973271 
L 290.868166 183.860353 
L 292.339943 183.345968 
L 293.81172 184.517929 
L 295.283496 187.329593 
L 296.755273 190.92474 
L 298.22705 192.054862 
L 299.698827 189.345617 
L 301.170604 187.244087 
L 302.64238 186.610517 
L 305.585934 187.337148 
L 307.057711 186.389368 
L 308.529487 184.358178 
L 310.001264 181.818795 
L 311.473041 179.675128 
L 312.944818 176.342455 
L 314.416595 168.098325 
L 315.888371 165.905975 
L 317.360148 164.090226 
L 318.831925 158.253105 
L 320.303702 149.290671 
L 321.775479 153.600642 
L 323.247255 171.897887 
L 324.719032 177.472761 
L 326.190809 181.118748 
L 327.662586 184.161175 
L 329.134362 186.723038 
L 332.077916 191.002621 
L 333.549693 194.011771 
L 335.02147 195.086796 
L 336.493246 195.814721 
L 337.965023 197.916674 
L 339.4368 201.249583 
L 340.908577 203.990648 
L 342.380354 204.379936 
L 343.85213 202.458279 
L 345.323907 201.529705 
L 346.795684 201.888871 
L 351.211014 209.27362 
L 352.682791 207.869963 
L 354.154568 205.78789 
L 355.626345 204.948105 
L 357.098121 206.065107 
L 358.569898 209.122808 
L 360.041675 211.239476 
L 361.513452 211.590691 
L 362.985229 209.208491 
L 364.457005 207.181892 
L 365.928782 207.571645 
L 370.344112 214.127582 
L 371.815889 212.922407 
L 373.287666 210.736407 
L 374.759443 209.634293 
L 376.23122 210.222679 
L 377.702996 212.442663 
L 379.174773 213.728578 
L 380.64655 215.397616 
L 382.118327 212.88083 
L 383.590104 210.967561 
L 385.06188 211.590691 
L 388.005434 213.44684 
L 389.477211 215.206629 
L 390.948987 216.386021 
L 392.420764 214.902037 
L 393.892541 212.180589 
L 395.364318 212.32885 
L 396.836095 213.44684 
L 398.307871 217.039923 
L 401.251425 216.62243 
L 402.723202 215.021905 
L 404.194979 212.717527 
L 407.138532 215.144379 
L 408.610309 217.127267 
L 410.082086 216.869196 
L 411.553862 216.159135 
L 413.025639 215.144379 
L 414.497416 214.392118 
L 415.969193 216.159135 
L 417.44097 215.941033 
L 418.912746 218.866555 
L 420.384523 219.775073 
L 421.8563 217.127267 
L 423.328077 215.462745 
L 424.799854 215.595306 
L 426.27163 216.233753 
L 427.743407 217.585535 
L 429.215184 219.367648 
L 432.158737 216.953913 
L 433.630514 217.215987 
L 435.102291 217.215987 
L 436.574068 216.309372 
L 438.045845 220.690637 
L 439.517621 219.775073 
L 440.989398 218.297021 
L 442.461175 218.866555 
L 443.932952 217.585535 
L 445.404729 218.297021 
L 446.876505 219.238135 
L 448.348282 219.367648 
L 449.820059 221.395754 
L 451.291836 217.490851 
L 454.235389 218.189712 
L 455.707166 217.681838 
L 457.178943 219.367648 
L 458.65072 220.690637 
L 460.122496 219.635965 
L 461.594273 219.238135 
L 463.06605 218.631788 
L 464.537827 218.406415 
L 466.009604 219.238135 
L 467.48138 223.968941 
L 468.953157 218.297021 
L 468.953157 218.297021 
" clip-path="url(#p9e30d3ecea)" style="fill: none; stroke: #9467bd; stroke-width: 1.5; stroke-linecap: square"/>
   </g>
   <g id="line2d_38">
    <path d="M 65.686318 240.445126 
L 67.158095 238.907907 
L 68.629871 238.661141 
L 70.101648 239.344838 
L 71.573425 241.406359 
L 73.045202 239.078635 
L 74.516979 240.445126 
L 75.988755 240.905266 
L 77.460532 241.53892 
L 78.932309 239.918239 
L 80.404086 239.918239 
L 81.875862 239.344838 
L 83.347639 241.406359 
L 84.819416 241.406359 
L 86.291193 239.165979 
L 89.234746 240.019748 
L 90.706523 238.992624 
L 92.1783 238.907907 
L 93.650077 238.348084 
L 95.121854 238.661141 
L 96.59363 241.026423 
L 98.065407 239.078635 
L 101.008961 239.529562 
L 102.480737 238.581231 
L 103.952514 238.907907 
L 105.424291 238.197846 
L 106.896068 239.254698 
L 108.367845 237.24534 
L 109.839621 236.651783 
L 111.311398 238.502438 
L 112.783175 236.881757 
L 114.254952 238.992624 
L 115.726729 239.344838 
L 117.198505 238.051511 
L 118.670282 238.742201 
L 120.142059 237.769773 
L 121.613836 237.18309 
L 123.085612 237.308286 
L 124.557389 237.701486 
L 126.029166 238.661141 
L 127.500943 237.000363 
L 128.97272 238.197846 
L 130.444496 236.485261 
L 131.916273 236.376919 
L 133.38805 236.595727 
L 134.859827 236.651783 
L 136.331604 239.165979 
L 140.746934 235.349795 
L 143.690487 236.708402 
L 145.162264 235.577907 
L 146.634041 236.270622 
L 148.105818 236.218216 
L 149.577595 234.519829 
L 151.049371 234.87827 
L 152.521148 234.636794 
L 153.992925 234.756238 
L 155.464702 235.217234 
L 156.936479 235.261076 
L 158.408255 235.173732 
L 159.880032 234.87827 
L 161.351809 233.762748 
L 162.823586 234.597535 
L 164.295362 235.087721 
L 165.767139 234.039298 
L 167.238916 234.837298 
L 168.710693 234.292943 
L 170.18247 234.182837 
L 171.654246 233.629402 
L 174.5978 233.69568 
L 176.069577 234.256001 
L 177.541354 234.676328 
L 180.484907 232.947588 
L 181.956684 232.860693 
L 183.428461 232.108433 
L 184.900237 232.525927 
L 187.843791 234.443181 
L 189.315568 232.26139 
L 190.787345 232.158959 
L 193.730898 230.614926 
L 196.674452 232.287292 
L 198.146229 231.838362 
L 199.618005 231.626637 
L 201.089782 230.25979 
L 202.561559 229.994423 
L 205.505112 230.314397 
L 206.976889 231.056215 
L 208.448666 231.014639 
L 211.39222 229.28118 
L 212.863996 228.513714 
L 214.335773 228.20353 
L 215.80755 228.254056 
L 217.279327 229.265974 
L 218.751104 229.190557 
L 220.22288 228.702869 
L 223.166434 226.856612 
L 224.638211 226.124188 
L 227.581764 227.562389 
L 229.053541 227.193198 
L 230.525318 226.567152 
L 231.997095 225.086931 
L 233.468871 224.330152 
L 234.940648 223.90995 
L 236.412425 224.223678 
L 237.884202 225.353484 
L 240.827755 224.419374 
L 243.771309 221.849185 
L 245.243086 221.384498 
L 246.714862 221.536458 
L 248.186639 222.737996 
L 249.658416 221.898245 
L 251.130193 220.737223 
L 252.60197 218.726862 
L 254.073746 217.771915 
L 255.545523 217.287983 
L 257.0173 217.833441 
L 258.489077 218.00156 
L 259.960854 217.241081 
L 264.376184 211.214767 
L 265.847961 210.183022 
L 267.319737 209.869604 
L 268.791514 208.779723 
L 270.263291 206.558798 
L 273.206845 199.871618 
L 274.678621 197.053874 
L 276.150398 194.817315 
L 277.622175 193.186803 
L 279.093952 192.164882 
L 280.565729 191.668202 
L 282.037505 191.715347 
L 283.509282 192.29896 
L 284.981059 193.415263 
L 286.452836 195.083383 
L 287.924612 197.24168 
L 290.868166 202.124244 
L 292.339943 203.847663 
L 293.81172 204.839327 
L 295.283496 205.282905 
L 296.755273 205.970772 
L 301.170604 208.771328 
L 302.64238 208.914132 
L 304.114157 208.320493 
L 308.529487 205.011483 
L 310.001264 203.993897 
L 311.473041 202.573821 
L 312.944818 200.723644 
L 314.416595 198.403445 
L 315.888371 195.085881 
L 317.360148 191.194385 
L 318.831925 183.530877 
L 320.303702 173.051391 
L 321.775479 176.398529 
L 323.247255 180.940953 
L 324.719032 176.565097 
L 326.190809 180.510148 
L 327.662586 195.648724 
L 329.134362 200.796587 
L 330.606139 203.866698 
L 332.077916 205.987807 
L 333.549693 207.565192 
L 335.02147 210.562469 
L 336.493246 215.243052 
L 337.965023 218.230249 
L 339.4368 219.516328 
L 342.380354 221.463766 
L 343.85213 222.834134 
L 345.323907 224.529649 
L 346.795684 225.376276 
L 348.267461 225.794941 
L 349.739237 225.9361 
L 351.211014 226.211804 
L 352.682791 226.936381 
L 354.154568 227.462283 
L 355.626345 229.220603 
L 357.098121 228.716626 
L 358.569898 228.97018 
L 360.041675 228.898596 
L 361.513452 228.941437 
L 362.985229 229.594237 
L 364.457005 230.653645 
L 365.928782 231.312331 
L 367.400559 231.790619 
L 368.872336 231.035389 
L 370.344112 231.378222 
L 371.815889 231.056215 
L 373.287666 231.334209 
L 374.759443 231.959519 
L 376.23122 233.629402 
L 377.702996 233.729114 
L 379.174773 232.918474 
L 380.64655 232.88951 
L 382.118327 233.155713 
L 383.590104 233.596553 
L 385.06188 235.003004 
L 386.533657 235.485551 
L 388.005434 233.968877 
L 389.477211 234.597535 
L 390.948987 234.558548 
L 392.420764 233.933994 
L 393.892541 234.919542 
L 396.836095 235.963259 
L 398.307871 236.270622 
L 399.779648 235.349795 
L 404.194979 235.671802 
L 405.666755 236.376919 
L 407.138532 236.823377 
L 408.610309 237.908881 
L 410.082086 236.881757 
L 411.553862 236.881757 
L 413.025639 236.114845 
L 414.497416 237.769773 
L 415.969193 237.979744 
L 417.44097 237.838897 
L 418.912746 238.197846 
L 420.384523 237.769773 
L 421.8563 237.567347 
L 423.328077 237.838897 
L 424.799854 237.634017 
L 426.27163 238.907907 
L 429.215184 238.502438 
L 430.686961 238.051511 
L 432.158737 238.348084 
L 433.630514 237.634017 
L 435.102291 240.670499 
L 439.517621 239.254698 
L 440.989398 238.581231 
L 442.461175 239.344838 
L 443.932952 239.624246 
L 445.404729 238.348084 
L 446.876505 239.344838 
L 448.348282 241.956414 
L 449.820059 239.624246 
L 451.291836 240.556686 
L 452.763612 238.742201 
L 454.235389 240.335733 
L 455.707166 240.019748 
L 457.178943 239.918239 
L 458.65072 241.276846 
L 460.122496 240.556686 
L 461.594273 240.78666 
L 463.06605 240.123119 
L 464.537827 241.150243 
L 466.009604 239.624246 
L 467.48138 240.670499 
L 468.953157 241.53892 
L 468.953157 241.53892 
" clip-path="url(#p9e30d3ecea)" style="fill: none; stroke: #8c564b; stroke-width: 1.5; stroke-linecap: square"/>
   </g>
   <g id="line2d_39">
    <path d="M 320.303702 246.438847 
L 320.303702 55.766642 
" clip-path="url(#p9e30d3ecea)" style="fill: none; stroke-dasharray: 3.7,1.6; stroke-dashoffset: 0; stroke: #808080"/>
   </g>
   <g id="line2d_40">
    <path d="M 320.303702 246.438847 
L 320.303702 55.766642 
" clip-path="url(#p9e30d3ecea)" style="fill: none; stroke-dasharray: 3.7,1.6; stroke-dashoffset: 0; stroke: #808080"/>
   </g>
   <g id="line2d_41">
    <path d="M 279.093952 224.400136 
L 279.093952 68.73845 
" clip-path="url(#p9e30d3ecea)" style="fill: none; stroke-dasharray: 1,1.65; stroke-dashoffset: 0; stroke: #808080"/>
   </g>
   <g id="line2d_42">
    <path d="M 279.093952 224.400136 
L 279.093952 68.73845 
" clip-path="url(#p9e30d3ecea)" style="fill: none; stroke-dasharray: 1,1.65; stroke-dashoffset: 0; stroke: #808080"/>
   </g>
   <g id="line2d_43">
    <path d="M 303.407704 221.752331 
L 303.407704 68.73845 
" clip-path="url(#p9e30d3ecea)" style="fill: none; stroke-dasharray: 6.4,1.6,1,1.6; stroke-dashoffset: 0; stroke: #808080"/>
   </g>
   <g id="line2d_44">
    <path d="M 303.407704 221.752331 
L 303.407704 68.73845 
" clip-path="url(#p9e30d3ecea)" style="fill: none; stroke-dasharray: 6.4,1.6,1,1.6; stroke-dashoffset: 0; stroke: #808080"/>
   </g>
   <g id="line2d_45">
    <defs>
     <path id="m59b4581b64" d="M -3 0 
L 3 0 
M 0 3 
L 0 -3 
" style="stroke: #1f77b4"/>
    </defs>
    <g clip-path="url(#p9e30d3ecea)">
     <use xlink:href="#m59b4581b64" x="275.41451" y="78.071328" style="fill: #1f77b4; stroke: #1f77b4"/>
    </g>
   </g>
   <g id="line2d_46">
    <defs>
     <path id="m71c4a9d5c9" d="M -3 0 
L 3 0 
M 0 3 
L 0 -3 
" style="stroke: #ff7f0e"/>
    </defs>
    <g clip-path="url(#p9e30d3ecea)">
     <use xlink:href="#m71c4a9d5c9" x="275.41451" y="98.062337" style="fill: #ff7f0e; stroke: #ff7f0e"/>
    </g>
   </g>
   <g id="line2d_47">
    <defs>
     <path id="m3917f3488a" d="M -3 0 
L 3 0 
M 0 3 
L 0 -3 
" style="stroke: #2ca02c"/>
    </defs>
    <g clip-path="url(#p9e30d3ecea)">
     <use xlink:href="#m3917f3488a" x="275.41451" y="119.084159" style="fill: #2ca02c; stroke: #2ca02c"/>
    </g>
   </g>
   <g id="line2d_48">
    <defs>
     <path id="me480276476" d="M -3 0 
L 3 0 
M 0 3 
L 0 -3 
" style="stroke: #d62728"/>
    </defs>
    <g clip-path="url(#p9e30d3ecea)">
     <use xlink:href="#me480276476" x="275.41451" y="140.958417" style="fill: #d62728; stroke: #d62728"/>
    </g>
   </g>
   <g id="line2d_49">
    <defs>
     <path id="me0309f3de7" d="M -3 0 
L 3 0 
M 0 3 
L 0 -3 
" style="stroke: #9467bd"/>
    </defs>
    <g clip-path="url(#p9e30d3ecea)">
     <use xlink:href="#me0309f3de7" x="273.942733" y="162.196402" style="fill: #9467bd; stroke: #9467bd"/>
    </g>
   </g>
   <g id="line2d_50">
    <defs>
     <path id="m3203d98950" d="M -3 0 
L 3 0 
M 0 3 
L 0 -3 
" style="stroke: #8c564b"/>
    </defs>
    <g clip-path="url(#p9e30d3ecea)">
     <use xlink:href="#m3203d98950" x="276.886287" y="185.479077" style="fill: #8c564b; stroke: #8c564b"/>
    </g>
   </g>
   <g id="patch_3">
    <path d="M 50.078125 250.34375 
L 50.078125 25.918125 
" style="fill: none; stroke: #000000; stroke-width: 0.8; stroke-linejoin: miter; stroke-linecap: square"/>
   </g>
   <g id="patch_4">
    <path d="M 565.2 250.34375 
L 565.2 25.918125 
" style="fill: none; stroke: #000000; stroke-width: 0.8; stroke-linejoin: miter; stroke-linecap: square"/>
   </g>
   <g id="patch_5">
    <path d="M 50.078125 250.34375 
L 565.2 250.34375 
" style="fill: none; stroke: #000000; stroke-width: 0.8; stroke-linejoin: miter; stroke-linecap: square"/>
   </g>
   <g id="patch_6">
    <path d="M 50.078125 25.918125 
L 565.2 25.918125 
" style="fill: none; stroke: #000000; stroke-width: 0.8; stroke-linejoin: miter; stroke-linecap: square"/>
   </g>
   <g id="text_19">
    <!-- Sample 1 -->
    <g style="fill: #1f77b4" transform="translate(475.468132 138.996467) scale(0.1 -0.1)">
     <defs>
      <path id="DejaVuSans-53" d="M 3425 4513 
L 3425 3897 
Q 3066 4069 2747 4153 
Q 2428 4238 2131 4238 
Q 1616 4238 1336 4038 
Q 1056 3838 1056 3469 
Q 1056 3159 1242 3001 
Q 1428 2844 1947 2747 
L 2328 2669 
Q 3034 2534 3370 2195 
Q 3706 1856 3706 1288 
Q 3706 609 3251 259 
Q 2797 -91 1919 -91 
Q 1588 -91 1214 -16 
Q 841 59 441 206 
L 441 856 
Q 825 641 1194 531 
Q 1563 422 1919 422 
Q 2459 422 2753 634 
Q 3047 847 3047 1241 
Q 3047 1584 2836 1778 
Q 2625 1972 2144 2069 
L 1759 2144 
Q 1053 2284 737 2584 
Q 422 2884 422 3419 
Q 422 4038 858 4394 
Q 1294 4750 2059 4750 
Q 2388 4750 2728 4690 
Q 3069 4631 3425 4513 
z
" transform="scale(0.015625)"/>
      <path id="DejaVuSans-6d" d="M 3328 2828 
Q 3544 3216 3844 3400 
Q 4144 3584 4550 3584 
Q 5097 3584 5394 3201 
Q 5691 2819 5691 2113 
L 5691 0 
L 5113 0 
L 5113 2094 
Q 5113 2597 4934 2840 
Q 4756 3084 4391 3084 
Q 3944 3084 3684 2787 
Q 3425 2491 3425 1978 
L 3425 0 
L 2847 0 
L 2847 2094 
Q 2847 2600 2669 2842 
Q 2491 3084 2119 3084 
Q 1678 3084 1418 2786 
Q 1159 2488 1159 1978 
L 1159 0 
L 581 0 
L 581 3500 
L 1159 3500 
L 1159 2956 
Q 1356 3278 1631 3431 
Q 1906 3584 2284 3584 
Q 2666 3584 2933 3390 
Q 3200 3197 3328 2828 
z
" transform="scale(0.015625)"/>
      <path id="DejaVuSans-70" d="M 1159 525 
L 1159 -1331 
L 581 -1331 
L 581 3500 
L 1159 3500 
L 1159 2969 
Q 1341 3281 1617 3432 
Q 1894 3584 2278 3584 
Q 2916 3584 3314 3078 
Q 3713 2572 3713 1747 
Q 3713 922 3314 415 
Q 2916 -91 2278 -91 
Q 1894 -91 1617 61 
Q 1341 213 1159 525 
z
M 3116 1747 
Q 3116 2381 2855 2742 
Q 2594 3103 2138 3103 
Q 1681 3103 1420 2742 
Q 1159 2381 1159 1747 
Q 1159 1113 1420 752 
Q 1681 391 2138 391 
Q 2594 391 2855 752 
Q 3116 1113 3116 1747 
z
" transform="scale(0.015625)"/>
      <path id="DejaVuSans-6c" d="M 603 4863 
L 1178 4863 
L 1178 0 
L 603 0 
L 603 4863 
z
" transform="scale(0.015625)"/>
     </defs>
     <use xlink:href="#DejaVuSans-53"/>
     <use xlink:href="#DejaVuSans-61" x="63.476562"/>
     <use xlink:href="#DejaVuSans-6d" x="124.755859"/>
     <use xlink:href="#DejaVuSans-70" x="222.167969"/>
     <use xlink:href="#DejaVuSans-6c" x="285.644531"/>
     <use xlink:href="#DejaVuSans-65" x="313.427734"/>
     <use xlink:href="#DejaVuSans-20" x="374.951172"/>
     <use xlink:href="#DejaVuSans-31" x="406.738281"/>
    </g>
   </g>
   <g id="text_20">
    <!-- Sample 2 -->
    <g style="fill: #ff7f0e" transform="translate(472.521634 158.596602) scale(0.1 -0.1)">
     <use xlink:href="#DejaVuSans-53"/>
     <use xlink:href="#DejaVuSans-61" x="63.476562"/>
     <use xlink:href="#DejaVuSans-6d" x="124.755859"/>
     <use xlink:href="#DejaVuSans-70" x="222.167969"/>
     <use xlink:href="#DejaVuSans-6c" x="285.644531"/>
     <use xlink:href="#DejaVuSans-65" x="313.427734"/>
     <use xlink:href="#DejaVuSans-20" x="374.951172"/>
     <use xlink:href="#DejaVuSans-32" x="406.738281"/>
    </g>
   </g>
   <g id="text_21">
    <!-- Sample 3 -->
    <g style="fill: #2ca02c" transform="translate(472.521634 178.718059) scale(0.1 -0.1)">
     <use xlink:href="#DejaVuSans-53"/>
     <use xlink:href="#DejaVuSans-61" x="63.476562"/>
     <use xlink:href="#DejaVuSans-6d" x="124.755859"/>
     <use xlink:href="#DejaVuSans-70" x="222.167969"/>
     <use xlink:href="#DejaVuSans-6c" x="285.644531"/>
     <use xlink:href="#DejaVuSans-65" x="313.427734"/>
     <use xlink:href="#DejaVuSans-20" x="374.951172"/>
     <use xlink:href="#DejaVuSans-33" x="406.738281"/>
    </g>
   </g>
   <g id="text_22">
    <!-- Sample 4 -->
    <g style="fill: #d62728" transform="translate(471.048386 201.827397) scale(0.1 -0.1)">
     <use xlink:href="#DejaVuSans-53"/>
     <use xlink:href="#DejaVuSans-61" x="63.476562"/>
     <use xlink:href="#DejaVuSans-6d" x="124.755859"/>
     <use xlink:href="#DejaVuSans-70" x="222.167969"/>
     <use xlink:href="#DejaVuSans-6c" x="285.644531"/>
     <use xlink:href="#DejaVuSans-65" x="313.427734"/>
     <use xlink:href="#DejaVuSans-20" x="374.951172"/>
     <use xlink:href="#DejaVuSans-34" x="406.738281"/>
    </g>
   </g>
   <g id="text_23">
    <!-- Sample 5 -->
    <g style="fill: #9467bd" transform="translate(472.521634 222.795482) scale(0.1 -0.1)">
     <use xlink:href="#DejaVuSans-53"/>
     <use xlink:href="#DejaVuSans-61" x="63.476562"/>
     <use xlink:href="#DejaVuSans-6d" x="124.755859"/>
     <use xlink:href="#DejaVuSans-70" x="222.167969"/>
     <use xlink:href="#DejaVuSans-6c" x="285.644531"/>
     <use xlink:href="#DejaVuSans-65" x="313.427734"/>
     <use xlink:href="#DejaVuSans-20" x="374.951172"/>
     <use xlink:href="#DejaVuSans-35" x="406.738281"/>
    </g>
   </g>
   <g id="text_24">
    <!-- Sample X -->
    <g style="fill: #8c564b" transform="translate(472.521634 246.037381) scale(0.1 -0.1)">
     <defs>
      <path id="DejaVuSans-58" d="M 403 4666 
L 1081 4666 
L 2241 2931 
L 3406 4666 
L 4084 4666 
L 2584 2425 
L 4184 0 
L 3506 0 
L 2194 1984 
L 872 0 
L 191 0 
L 1856 2491 
L 403 4666 
z
" transform="scale(0.015625)"/>
     </defs>
     <use xlink:href="#DejaVuSans-53"/>
     <use xlink:href="#DejaVuSans-61" x="63.476562"/>
     <use xlink:href="#DejaVuSans-6d" x="124.755859"/>
     <use xlink:href="#DejaVuSans-70" x="222.167969"/>
     <use xlink:href="#DejaVuSans-6c" x="285.644531"/>
     <use xlink:href="#DejaVuSans-65" x="313.427734"/>
     <use xlink:href="#DejaVuSans-20" x="374.951172"/>
     <use xlink:href="#DejaVuSans-58" x="406.738281"/>
    </g>
   </g>
   <g id="text_25">
    <!-- STO -->
    <g transform="translate(310.139639 41.921025) scale(0.1 -0.1)">
     <defs>
      <path id="DejaVuSans-54" d="M -19 4666 
L 3928 4666 
L 3928 4134 
L 2272 4134 
L 2272 0 
L 1638 0 
L 1638 4134 
L -19 4134 
L -19 4666 
z
" transform="scale(0.015625)"/>
      <path id="DejaVuSans-4f" d="M 2522 4238 
Q 1834 4238 1429 3725 
Q 1025 3213 1025 2328 
Q 1025 1447 1429 934 
Q 1834 422 2522 422 
Q 3209 422 3611 934 
Q 4013 1447 4013 2328 
Q 4013 3213 3611 3725 
Q 3209 4238 2522 4238 
z
M 2522 4750 
Q 3503 4750 4090 4092 
Q 4678 3434 4678 2328 
Q 4678 1225 4090 567 
Q 3503 -91 2522 -91 
Q 1538 -91 948 565 
Q 359 1222 359 2328 
Q 359 3434 948 4092 
Q 1538 4750 2522 4750 
z
" transform="scale(0.015625)"/>
     </defs>
     <use xlink:href="#DejaVuSans-53"/>
     <use xlink:href="#DejaVuSans-54" x="63.476562"/>
     <use xlink:href="#DejaVuSans-4f" x="124.560547"/>
    </g>
    <!-- (002) -->
    <g transform="translate(306.858389 53.118837) scale(0.1 -0.1)">
     <defs>
      <path id="DejaVuSans-28" d="M 1984 4856 
Q 1566 4138 1362 3434 
Q 1159 2731 1159 2009 
Q 1159 1288 1364 580 
Q 1569 -128 1984 -844 
L 1484 -844 
Q 1016 -109 783 600 
Q 550 1309 550 2009 
Q 550 2706 781 3412 
Q 1013 4119 1484 4856 
L 1984 4856 
z
" transform="scale(0.015625)"/>
      <path id="DejaVuSans-29" d="M 513 4856 
L 1013 4856 
Q 1481 4119 1714 3412 
Q 1947 2706 1947 2009 
Q 1947 1309 1714 600 
Q 1481 -109 1013 -844 
L 513 -844 
Q 928 -128 1133 580 
Q 1338 1288 1338 2009 
Q 1338 2731 1133 3434 
Q 928 4138 513 4856 
z
" transform="scale(0.015625)"/>
     </defs>
     <use xlink:href="#DejaVuSans-28"/>
     <use xlink:href="#DejaVuSans-30" x="39.013672"/>
     <use xlink:href="#DejaVuSans-30" x="102.636719"/>
     <use xlink:href="#DejaVuSans-32" x="166.259766"/>
     <use xlink:href="#DejaVuSans-29" x="229.882812"/>
    </g>
   </g>
   <g id="text_26">
    <!-- SRO -->
    <g transform="translate(268.509577 54.892832) scale(0.1 -0.1)">
     <defs>
      <path id="DejaVuSans-52" d="M 2841 2188 
Q 3044 2119 3236 1894 
Q 3428 1669 3622 1275 
L 4263 0 
L 3584 0 
L 2988 1197 
Q 2756 1666 2539 1819 
Q 2322 1972 1947 1972 
L 1259 1972 
L 1259 0 
L 628 0 
L 628 4666 
L 2053 4666 
Q 2853 4666 3247 4331 
Q 3641 3997 3641 3322 
Q 3641 2881 3436 2590 
Q 3231 2300 2841 2188 
z
M 1259 4147 
L 1259 2491 
L 2053 2491 
Q 2509 2491 2742 2702 
Q 2975 2913 2975 3322 
Q 2975 3731 2742 3939 
Q 2509 4147 2053 4147 
L 1259 4147 
z
" transform="scale(0.015625)"/>
     </defs>
     <use xlink:href="#DejaVuSans-53"/>
     <use xlink:href="#DejaVuSans-52" x="63.476562"/>
     <use xlink:href="#DejaVuSans-4f" x="132.958984"/>
    </g>
    <!-- (220) -->
    <g transform="translate(265.648639 66.090645) scale(0.1 -0.1)">
     <use xlink:href="#DejaVuSans-28"/>
     <use xlink:href="#DejaVuSans-32" x="39.013672"/>
     <use xlink:href="#DejaVuSans-32" x="102.636719"/>
     <use xlink:href="#DejaVuSans-30" x="166.259766"/>
     <use xlink:href="#DejaVuSans-29" x="229.882812"/>
    </g>
   </g>
   <g id="text_27">
    <!-- SRO -->
    <g transform="translate(292.823329 235.241034) scale(0.1 -0.1)">
     <use xlink:href="#DejaVuSans-53"/>
     <use xlink:href="#DejaVuSans-52" x="63.476562"/>
     <use xlink:href="#DejaVuSans-4f" x="132.958984"/>
    </g>
    <!-- (bulk) -->
    <g transform="translate(288.878798 246.438847) scale(0.1 -0.1)">
     <defs>
      <path id="DejaVuSans-62" d="M 3116 1747 
Q 3116 2381 2855 2742 
Q 2594 3103 2138 3103 
Q 1681 3103 1420 2742 
Q 1159 2381 1159 1747 
Q 1159 1113 1420 752 
Q 1681 391 2138 391 
Q 2594 391 2855 752 
Q 3116 1113 3116 1747 
z
M 1159 2969 
Q 1341 3281 1617 3432 
Q 1894 3584 2278 3584 
Q 2916 3584 3314 3078 
Q 3713 2572 3713 1747 
Q 3713 922 3314 415 
Q 2916 -91 2278 -91 
Q 1894 -91 1617 61 
Q 1341 213 1159 525 
L 1159 0 
L 581 0 
L 581 4863 
L 1159 4863 
L 1159 2969 
z
" transform="scale(0.015625)"/>
      <path id="DejaVuSans-6b" d="M 581 4863 
L 1159 4863 
L 1159 1991 
L 2875 3500 
L 3609 3500 
L 1753 1863 
L 3688 0 
L 2938 0 
L 1159 1709 
L 1159 0 
L 581 0 
L 581 4863 
z
" transform="scale(0.015625)"/>
     </defs>
     <use xlink:href="#DejaVuSans-28"/>
     <use xlink:href="#DejaVuSans-62" x="39.013672"/>
     <use xlink:href="#DejaVuSans-75" x="102.490234"/>
     <use xlink:href="#DejaVuSans-6c" x="165.869141"/>
     <use xlink:href="#DejaVuSans-6b" x="193.652344"/>
     <use xlink:href="#DejaVuSans-29" x="251.5625"/>
    </g>
   </g>
   <g id="text_28">
    <!-- XRD Scans -->
    <g transform="translate(275.12 19.918125) scale(0.12 -0.12)">
     <defs>
      <path id="DejaVuSans-44" d="M 1259 4147 
L 1259 519 
L 2022 519 
Q 2988 519 3436 956 
Q 3884 1394 3884 2338 
Q 3884 3275 3436 3711 
Q 2988 4147 2022 4147 
L 1259 4147 
z
M 628 4666 
L 1925 4666 
Q 3281 4666 3915 4102 
Q 4550 3538 4550 2338 
Q 4550 1131 3912 565 
Q 3275 0 1925 0 
L 628 0 
L 628 4666 
z
" transform="scale(0.015625)"/>
      <path id="DejaVuSans-63" d="M 3122 3366 
L 3122 2828 
Q 2878 2963 2633 3030 
Q 2388 3097 2138 3097 
Q 1578 3097 1268 2742 
Q 959 2388 959 1747 
Q 959 1106 1268 751 
Q 1578 397 2138 397 
Q 2388 397 2633 464 
Q 2878 531 3122 666 
L 3122 134 
Q 2881 22 2623 -34 
Q 2366 -91 2075 -91 
Q 1284 -91 818 406 
Q 353 903 353 1747 
Q 353 2603 823 3093 
Q 1294 3584 2113 3584 
Q 2378 3584 2631 3529 
Q 2884 3475 3122 3366 
z
" transform="scale(0.015625)"/>
     </defs>
     <use xlink:href="#DejaVuSans-58"/>
     <use xlink:href="#DejaVuSans-52" x="68.505859"/>
     <use xlink:href="#DejaVuSans-44" x="137.988281"/>
     <use xlink:href="#DejaVuSans-20" x="214.990234"/>
     <use xlink:href="#DejaVuSans-53" x="246.777344"/>
     <use xlink:href="#DejaVuSans-63" x="310.253906"/>
     <use xlink:href="#DejaVuSans-61" x="365.234375"/>
     <use xlink:href="#DejaVuSans-6e" x="426.513672"/>
     <use xlink:href="#DejaVuSans-73" x="489.892578"/>
    </g>
   </g>
   <g id="legend_1">
    <g id="line2d_51">
     <path d="M 390.412969 37.706719 
L 399.412969 37.706719 
L 408.412969 37.706719 
" style="fill: none; stroke: #1f77b4; stroke-width: 1.5; stroke-linecap: square"/>
    </g>
    <g id="text_29">
     <!-- SRO(+): 45.9121°, FWHM: 0.16 -->
     <g transform="translate(415.612969 40.856719) scale(0.09 -0.09)">
      <defs>
       <path id="DejaVuSans-2b" d="M 2944 4013 
L 2944 2272 
L 4684 2272 
L 4684 1741 
L 2944 1741 
L 2944 0 
L 2419 0 
L 2419 1741 
L 678 1741 
L 678 2272 
L 2419 2272 
L 2419 4013 
L 2944 4013 
z
" transform="scale(0.015625)"/>
       <path id="DejaVuSans-3a" d="M 750 794 
L 1409 794 
L 1409 0 
L 750 0 
L 750 794 
z
M 750 3309 
L 1409 3309 
L 1409 2516 
L 750 2516 
L 750 3309 
z
" transform="scale(0.015625)"/>
       <path id="DejaVuSans-2c" d="M 750 794 
L 1409 794 
L 1409 256 
L 897 -744 
L 494 -744 
L 750 256 
L 750 794 
z
" transform="scale(0.015625)"/>
       <path id="DejaVuSans-46" d="M 628 4666 
L 3309 4666 
L 3309 4134 
L 1259 4134 
L 1259 2759 
L 3109 2759 
L 3109 2228 
L 1259 2228 
L 1259 0 
L 628 0 
L 628 4666 
z
" transform="scale(0.015625)"/>
       <path id="DejaVuSans-57" d="M 213 4666 
L 850 4666 
L 1831 722 
L 2809 4666 
L 3519 4666 
L 4500 722 
L 5478 4666 
L 6119 4666 
L 4947 0 
L 4153 0 
L 3169 4050 
L 2175 0 
L 1381 0 
L 213 4666 
z
" transform="scale(0.015625)"/>
       <path id="DejaVuSans-48" d="M 628 4666 
L 1259 4666 
L 1259 2753 
L 3553 2753 
L 3553 4666 
L 4184 4666 
L 4184 0 
L 3553 0 
L 3553 2222 
L 1259 2222 
L 1259 0 
L 628 0 
L 628 4666 
z
" transform="scale(0.015625)"/>
       <path id="DejaVuSans-4d" d="M 628 4666 
L 1569 4666 
L 2759 1491 
L 3956 4666 
L 4897 4666 
L 4897 0 
L 4281 0 
L 4281 4097 
L 3078 897 
L 2444 897 
L 1241 4097 
L 1241 0 
L 628 0 
L 628 4666 
z
" transform="scale(0.015625)"/>
      </defs>
      <use xlink:href="#DejaVuSans-53"/>
      <use xlink:href="#DejaVuSans-52" x="63.476562"/>
      <use xlink:href="#DejaVuSans-4f" x="132.958984"/>
      <use xlink:href="#DejaVuSans-28" x="211.669922"/>
      <use xlink:href="#DejaVuSans-2b" x="250.683594"/>
      <use xlink:href="#DejaVuSans-29" x="334.472656"/>
      <use xlink:href="#DejaVuSans-3a" x="373.486328"/>
      <use xlink:href="#DejaVuSans-20" x="407.177734"/>
      <use xlink:href="#DejaVuSans-34" x="438.964844"/>
      <use xlink:href="#DejaVuSans-35" x="502.587891"/>
      <use xlink:href="#DejaVuSans-2e" x="566.210938"/>
      <use xlink:href="#DejaVuSans-39" x="597.998047"/>
      <use xlink:href="#DejaVuSans-31" x="661.621094"/>
      <use xlink:href="#DejaVuSans-32" x="725.244141"/>
      <use xlink:href="#DejaVuSans-31" x="788.867188"/>
      <use xlink:href="#DejaVuSans-b0" x="852.490234"/>
      <use xlink:href="#DejaVuSans-2c" x="902.490234"/>
      <use xlink:href="#DejaVuSans-20" x="934.277344"/>
      <use xlink:href="#DejaVuSans-46" x="966.064453"/>
      <use xlink:href="#DejaVuSans-57" x="1023.583984"/>
      <use xlink:href="#DejaVuSans-48" x="1122.460938"/>
      <use xlink:href="#DejaVuSans-4d" x="1197.65625"/>
      <use xlink:href="#DejaVuSans-3a" x="1283.935547"/>
      <use xlink:href="#DejaVuSans-20" x="1317.626953"/>
      <use xlink:href="#DejaVuSans-30" x="1349.414062"/>
      <use xlink:href="#DejaVuSans-2e" x="1413.037109"/>
      <use xlink:href="#DejaVuSans-31" x="1444.824219"/>
      <use xlink:href="#DejaVuSans-36" x="1508.447266"/>
     </g>
    </g>
    <g id="line2d_52">
     <path d="M 390.412969 50.917031 
L 399.412969 50.917031 
L 408.412969 50.917031 
" style="fill: none; stroke: #ff7f0e; stroke-width: 1.5; stroke-linecap: square"/>
    </g>
    <g id="text_30">
     <!-- SRO(+): 45.9121°, FWHM: 0.16 -->
     <g transform="translate(415.612969 54.067031) scale(0.09 -0.09)">
      <use xlink:href="#DejaVuSans-53"/>
      <use xlink:href="#DejaVuSans-52" x="63.476562"/>
      <use xlink:href="#DejaVuSans-4f" x="132.958984"/>
      <use xlink:href="#DejaVuSans-28" x="211.669922"/>
      <use xlink:href="#DejaVuSans-2b" x="250.683594"/>
      <use xlink:href="#DejaVuSans-29" x="334.472656"/>
      <use xlink:href="#DejaVuSans-3a" x="373.486328"/>
      <use xlink:href="#DejaVuSans-20" x="407.177734"/>
      <use xlink:href="#DejaVuSans-34" x="438.964844"/>
      <use xlink:href="#DejaVuSans-35" x="502.587891"/>
      <use xlink:href="#DejaVuSans-2e" x="566.210938"/>
      <use xlink:href="#DejaVuSans-39" x="597.998047"/>
      <use xlink:href="#DejaVuSans-31" x="661.621094"/>
      <use xlink:href="#DejaVuSans-32" x="725.244141"/>
      <use xlink:href="#DejaVuSans-31" x="788.867188"/>
      <use xlink:href="#DejaVuSans-b0" x="852.490234"/>
      <use xlink:href="#DejaVuSans-2c" x="902.490234"/>
      <use xlink:href="#DejaVuSans-20" x="934.277344"/>
      <use xlink:href="#DejaVuSans-46" x="966.064453"/>
      <use xlink:href="#DejaVuSans-57" x="1023.583984"/>
      <use xlink:href="#DejaVuSans-48" x="1122.460938"/>
      <use xlink:href="#DejaVuSans-4d" x="1197.65625"/>
      <use xlink:href="#DejaVuSans-3a" x="1283.935547"/>
      <use xlink:href="#DejaVuSans-20" x="1317.626953"/>
      <use xlink:href="#DejaVuSans-30" x="1349.414062"/>
      <use xlink:href="#DejaVuSans-2e" x="1413.037109"/>
      <use xlink:href="#DejaVuSans-31" x="1444.824219"/>
      <use xlink:href="#DejaVuSans-36" x="1508.447266"/>
     </g>
    </g>
    <g id="line2d_53">
     <path d="M 390.412969 64.127344 
L 399.412969 64.127344 
L 408.412969 64.127344 
" style="fill: none; stroke: #2ca02c; stroke-width: 1.5; stroke-linecap: square"/>
    </g>
    <g id="text_31">
     <!-- SRO(+): 45.9121°, FWHM: 0.18 -->
     <g transform="translate(415.612969 67.277344) scale(0.09 -0.09)">
      <use xlink:href="#DejaVuSans-53"/>
      <use xlink:href="#DejaVuSans-52" x="63.476562"/>
      <use xlink:href="#DejaVuSans-4f" x="132.958984"/>
      <use xlink:href="#DejaVuSans-28" x="211.669922"/>
      <use xlink:href="#DejaVuSans-2b" x="250.683594"/>
      <use xlink:href="#DejaVuSans-29" x="334.472656"/>
      <use xlink:href="#DejaVuSans-3a" x="373.486328"/>
      <use xlink:href="#DejaVuSans-20" x="407.177734"/>
      <use xlink:href="#DejaVuSans-34" x="438.964844"/>
      <use xlink:href="#DejaVuSans-35" x="502.587891"/>
      <use xlink:href="#DejaVuSans-2e" x="566.210938"/>
      <use xlink:href="#DejaVuSans-39" x="597.998047"/>
      <use xlink:href="#DejaVuSans-31" x="661.621094"/>
      <use xlink:href="#DejaVuSans-32" x="725.244141"/>
      <use xlink:href="#DejaVuSans-31" x="788.867188"/>
      <use xlink:href="#DejaVuSans-b0" x="852.490234"/>
      <use xlink:href="#DejaVuSans-2c" x="902.490234"/>
      <use xlink:href="#DejaVuSans-20" x="934.277344"/>
      <use xlink:href="#DejaVuSans-46" x="966.064453"/>
      <use xlink:href="#DejaVuSans-57" x="1023.583984"/>
      <use xlink:href="#DejaVuSans-48" x="1122.460938"/>
      <use xlink:href="#DejaVuSans-4d" x="1197.65625"/>
      <use xlink:href="#DejaVuSans-3a" x="1283.935547"/>
      <use xlink:href="#DejaVuSans-20" x="1317.626953"/>
      <use xlink:href="#DejaVuSans-30" x="1349.414062"/>
      <use xlink:href="#DejaVuSans-2e" x="1413.037109"/>
      <use xlink:href="#DejaVuSans-31" x="1444.824219"/>
      <use xlink:href="#DejaVuSans-38" x="1508.447266"/>
     </g>
    </g>
    <g id="line2d_54">
     <path d="M 390.412969 77.337656 
L 399.412969 77.337656 
L 408.412969 77.337656 
" style="fill: none; stroke: #d62728; stroke-width: 1.5; stroke-linecap: square"/>
    </g>
    <g id="text_32">
     <!-- SRO(+): 45.9121°, FWHM: 0.16 -->
     <g transform="translate(415.612969 80.487656) scale(0.09 -0.09)">
      <use xlink:href="#DejaVuSans-53"/>
      <use xlink:href="#DejaVuSans-52" x="63.476562"/>
      <use xlink:href="#DejaVuSans-4f" x="132.958984"/>
      <use xlink:href="#DejaVuSans-28" x="211.669922"/>
      <use xlink:href="#DejaVuSans-2b" x="250.683594"/>
      <use xlink:href="#DejaVuSans-29" x="334.472656"/>
      <use xlink:href="#DejaVuSans-3a" x="373.486328"/>
      <use xlink:href="#DejaVuSans-20" x="407.177734"/>
      <use xlink:href="#DejaVuSans-34" x="438.964844"/>
      <use xlink:href="#DejaVuSans-35" x="502.587891"/>
      <use xlink:href="#DejaVuSans-2e" x="566.210938"/>
      <use xlink:href="#DejaVuSans-39" x="597.998047"/>
      <use xlink:href="#DejaVuSans-31" x="661.621094"/>
      <use xlink:href="#DejaVuSans-32" x="725.244141"/>
      <use xlink:href="#DejaVuSans-31" x="788.867188"/>
      <use xlink:href="#DejaVuSans-b0" x="852.490234"/>
      <use xlink:href="#DejaVuSans-2c" x="902.490234"/>
      <use xlink:href="#DejaVuSans-20" x="934.277344"/>
      <use xlink:href="#DejaVuSans-46" x="966.064453"/>
      <use xlink:href="#DejaVuSans-57" x="1023.583984"/>
      <use xlink:href="#DejaVuSans-48" x="1122.460938"/>
      <use xlink:href="#DejaVuSans-4d" x="1197.65625"/>
      <use xlink:href="#DejaVuSans-3a" x="1283.935547"/>
      <use xlink:href="#DejaVuSans-20" x="1317.626953"/>
      <use xlink:href="#DejaVuSans-30" x="1349.414062"/>
      <use xlink:href="#DejaVuSans-2e" x="1413.037109"/>
      <use xlink:href="#DejaVuSans-31" x="1444.824219"/>
      <use xlink:href="#DejaVuSans-36" x="1508.447266"/>
     </g>
    </g>
    <g id="line2d_55">
     <path d="M 390.412969 90.547969 
L 399.412969 90.547969 
L 408.412969 90.547969 
" style="fill: none; stroke: #9467bd; stroke-width: 1.5; stroke-linecap: square"/>
    </g>
    <g id="text_33">
     <!-- SRO(+): 45.8921°, FWHM: 0.14 -->
     <g transform="translate(415.612969 93.697969) scale(0.09 -0.09)">
      <use xlink:href="#DejaVuSans-53"/>
      <use xlink:href="#DejaVuSans-52" x="63.476562"/>
      <use xlink:href="#DejaVuSans-4f" x="132.958984"/>
      <use xlink:href="#DejaVuSans-28" x="211.669922"/>
      <use xlink:href="#DejaVuSans-2b" x="250.683594"/>
      <use xlink:href="#DejaVuSans-29" x="334.472656"/>
      <use xlink:href="#DejaVuSans-3a" x="373.486328"/>
      <use xlink:href="#DejaVuSans-20" x="407.177734"/>
      <use xlink:href="#DejaVuSans-34" x="438.964844"/>
      <use xlink:href="#DejaVuSans-35" x="502.587891"/>
      <use xlink:href="#DejaVuSans-2e" x="566.210938"/>
      <use xlink:href="#DejaVuSans-38" x="597.998047"/>
      <use xlink:href="#DejaVuSans-39" x="661.621094"/>
      <use xlink:href="#DejaVuSans-32" x="725.244141"/>
      <use xlink:href="#DejaVuSans-31" x="788.867188"/>
      <use xlink:href="#DejaVuSans-b0" x="852.490234"/>
      <use xlink:href="#DejaVuSans-2c" x="902.490234"/>
      <use xlink:href="#DejaVuSans-20" x="934.277344"/>
      <use xlink:href="#DejaVuSans-46" x="966.064453"/>
      <use xlink:href="#DejaVuSans-57" x="1023.583984"/>
      <use xlink:href="#DejaVuSans-48" x="1122.460938"/>
      <use xlink:href="#DejaVuSans-4d" x="1197.65625"/>
      <use xlink:href="#DejaVuSans-3a" x="1283.935547"/>
      <use xlink:href="#DejaVuSans-20" x="1317.626953"/>
      <use xlink:href="#DejaVuSans-30" x="1349.414062"/>
      <use xlink:href="#DejaVuSans-2e" x="1413.037109"/>
      <use xlink:href="#DejaVuSans-31" x="1444.824219"/>
      <use xlink:href="#DejaVuSans-34" x="1508.447266"/>
     </g>
    </g>
    <g id="line2d_56">
     <path d="M 390.412969 103.758281 
L 399.412969 103.758281 
L 408.412969 103.758281 
" style="fill: none; stroke: #8c564b; stroke-width: 1.5; stroke-linecap: square"/>
    </g>
    <g id="text_34">
     <!-- SRO(+): 45.9321°, FWHM: 0.18 -->
     <g transform="translate(415.612969 106.908281) scale(0.09 -0.09)">
      <use xlink:href="#DejaVuSans-53"/>
      <use xlink:href="#DejaVuSans-52" x="63.476562"/>
      <use xlink:href="#DejaVuSans-4f" x="132.958984"/>
      <use xlink:href="#DejaVuSans-28" x="211.669922"/>
      <use xlink:href="#DejaVuSans-2b" x="250.683594"/>
      <use xlink:href="#DejaVuSans-29" x="334.472656"/>
      <use xlink:href="#DejaVuSans-3a" x="373.486328"/>
      <use xlink:href="#DejaVuSans-20" x="407.177734"/>
      <use xlink:href="#DejaVuSans-34" x="438.964844"/>
      <use xlink:href="#DejaVuSans-35" x="502.587891"/>
      <use xlink:href="#DejaVuSans-2e" x="566.210938"/>
      <use xlink:href="#DejaVuSans-39" x="597.998047"/>
      <use xlink:href="#DejaVuSans-33" x="661.621094"/>
      <use xlink:href="#DejaVuSans-32" x="725.244141"/>
      <use xlink:href="#DejaVuSans-31" x="788.867188"/>
      <use xlink:href="#DejaVuSans-b0" x="852.490234"/>
      <use xlink:href="#DejaVuSans-2c" x="902.490234"/>
      <use xlink:href="#DejaVuSans-20" x="934.277344"/>
      <use xlink:href="#DejaVuSans-46" x="966.064453"/>
      <use xlink:href="#DejaVuSans-57" x="1023.583984"/>
      <use xlink:href="#DejaVuSans-48" x="1122.460938"/>
      <use xlink:href="#DejaVuSans-4d" x="1197.65625"/>
      <use xlink:href="#DejaVuSans-3a" x="1283.935547"/>
      <use xlink:href="#DejaVuSans-20" x="1317.626953"/>
      <use xlink:href="#DejaVuSans-30" x="1349.414062"/>
      <use xlink:href="#DejaVuSans-2e" x="1413.037109"/>
      <use xlink:href="#DejaVuSans-31" x="1444.824219"/>
      <use xlink:href="#DejaVuSans-38" x="1508.447266"/>
     </g>
    </g>
   </g>
  </g>
 </g>
 <defs>
  <clipPath id="p9e30d3ecea">
   <rect x="50.078125" y="25.918125" width="515.121875" height="224.425625"/>
  </clipPath>
 </defs>
</svg>
